<svg width="185" height="394" viewBox="0 0 185 394" fill="none" xmlns="http://www.w3.org/2000/svg">
<g clip-path="url(#clip0)">
<path fill-rule="evenodd" clip-rule="evenodd" d="M126.61 382.26L112.12 388.14L112.19 393.12H160.51V388.2L126.61 382.26Z" fill="#583101"/>
<path fill-rule="evenodd" clip-rule="evenodd" d="M125.52 358.5L117.42 367.76L112.12 388.14L160.51 388.2L150.01 364.78L136.81 358.5H125.52Z" fill="#7F5539"/>
<path fill-rule="evenodd" clip-rule="evenodd" d="M93.69 367.76L77.02 355.42L75.54 358.98L70.68 358.21L60.89 362.81L34.93 383.34L65.56 384.2L94.87 383.16L93.69 367.76Z" fill="#7F5539"/>
<path fill-rule="evenodd" clip-rule="evenodd" d="M44.72 315.03L60.89 362.81L93.69 367.76L97 329.62L92.29 296.07L69.14 291.43L44.72 315.03Z" fill="#484849"/>
<path fill-rule="evenodd" clip-rule="evenodd" d="M44.72 315.03L95.75 344.04L97 329.62L78.08 300.89L44.72 315.03Z" fill="#3F4040"/>
<path fill-rule="evenodd" clip-rule="evenodd" d="M110.05 311.03L97 329.62L117.42 367.76L150.01 364.78L151.37 323.19L110.05 311.03Z" fill="#484849"/>
<path fill-rule="evenodd" clip-rule="evenodd" d="M56.64 248.15L50.74 249.29L44.72 315.03L78.08 328.14V300.89L94.19 267.42L56.64 248.15Z" fill="#7F5539"/>
<path fill-rule="evenodd" clip-rule="evenodd" d="M90.51 253.47L78.9 265L78.08 300.88L97 329.61L151.37 323.18L152.74 289.18C152.74 289.18 143.42 253.52 142.15 252.93C140.88 252.34 90.51 253.47 90.51 253.47Z" fill="#583101"/>
<path fill-rule="evenodd" clip-rule="evenodd" d="M136.76 264.79L133.71 265.64L120.84 269.67L152.94 288.97L145.19 271.51L136.76 264.79Z" fill="#F4CAB2"/>
<path fill-rule="evenodd" clip-rule="evenodd" d="M148.24 258.74L137.39 259.94L133.71 265.64L152.74 289.22L157.94 282.76L148.24 258.74Z" fill="#EAECEB"/>
<path fill-rule="evenodd" clip-rule="evenodd" d="M137.9 163.72L144.08 168.22L157.31 172.85L161.37 195.54L160.61 246.25L137.39 259.94L78.9 265.01L69.77 236.61L97.43 184.89L120.92 188.81L137.9 163.72Z" fill="#7F5539"/>
<path fill-rule="evenodd" clip-rule="evenodd" d="M152.23 234.46L147.03 239.02L137.39 259.94L157.94 282.76L183.57 246.88L152.23 234.46Z" fill="#9C6644"/>
<path fill-rule="evenodd" clip-rule="evenodd" d="M152.74 197.57L147.03 239.02L183.57 246.88L157.31 172.85L152.74 197.57Z" fill="#583101"/>
<path fill-rule="evenodd" clip-rule="evenodd" d="M64.78 166.99L55.23 168.01L50.74 249.29L78.9 265.01L79.06 237.4L74.43 185.75L68.45 188.31L69.65 182.74L64.78 166.99Z" fill="#9C6644"/>
<path fill-rule="evenodd" clip-rule="evenodd" d="M74.43 185.75L79.06 237.4L107.16 193.36L74.43 185.75Z" fill="#EAECEB"/>
<path fill-rule="evenodd" clip-rule="evenodd" d="M66.63 166.8L55.23 168.01L79.06 237.4L80.33 187.3L66.63 166.8Z" fill="#B08968"/>
<path fill-rule="evenodd" clip-rule="evenodd" d="M125.43 160.81L144.08 168.22L79.06 237.4L94.63 194.66L110.78 167.43L125.43 160.81Z" fill="#B08968"/>
<path fill-rule="evenodd" clip-rule="evenodd" d="M66.19 169.11L67.87 187.61L82.39 193.48L90.83 188.99L90.67 181.66L66.19 169.11Z" fill="#7F5539"/>
<path fill-rule="evenodd" clip-rule="evenodd" d="M67.87 187.61L66.16 199.01L82.39 193.48L90.83 188.99L90.69 182.61L87.56 181.66L67.87 187.61Z" fill="#583101"/>
<path fill-rule="evenodd" clip-rule="evenodd" d="M88.13 188L91.52 194.66L110.82 188.72L115.09 171.71L87.56 181.66L88.13 188Z" fill="#7F5539"/>
<path fill-rule="evenodd" clip-rule="evenodd" d="M88.13 188L91.52 194.66L111.11 203.3L110.82 188.72L87.56 181.66L88.13 188Z" fill="#583101"/>
<path fill-rule="evenodd" clip-rule="evenodd" d="M82.39 193.48L91.52 194.66L87.56 181.66L82.39 193.48Z" fill="#7F5539"/>
<path fill-rule="evenodd" clip-rule="evenodd" d="M78.24 153.01L55.23 168.01L87.56 181.66L78.24 153.01Z" fill="#EAECEB"/>
<path fill-rule="evenodd" clip-rule="evenodd" d="M103.23 171.39L87.56 181.66L60.73 131.84L111.52 158.28L103.23 171.39Z" fill="#C18F7C"/>
<path fill-rule="evenodd" clip-rule="evenodd" d="M96.12 129.18C95.49 129.76 111.51 158.28 111.51 158.28L129.23 161.5L143.7 152.25L154.33 131.84L164.88 75.1701L138.25 31.3101L98.41 80.5001C98.41 80.5001 96.11 129.23 96.12 129.18Z" fill="#F4CAB2"/>
<path fill-rule="evenodd" clip-rule="evenodd" d="M159.79 121.36L154.33 131.84L145.73 111L159.79 121.36Z" fill="#C18F7C"/>
<path fill-rule="evenodd" clip-rule="evenodd" d="M161.58 67.8199L147.76 80.3699L142.55 97.9999L150 102.84L170.34 101.44L184.04 76.3099L161.58 67.8199Z" fill="#393939"/>
<path fill-rule="evenodd" clip-rule="evenodd" d="M142.68 35.24L141.8 49.69L147.76 80.37L184.04 76.31L166.66 26.37L142.68 35.24Z" fill="#444648"/>
<path fill-rule="evenodd" clip-rule="evenodd" d="M46.84 42.28L45.82 46.78L32.06 53.56L45.38 68.41L53.62 45.76L46.84 42.28Z" fill="#444648"/>
<path fill-rule="evenodd" clip-rule="evenodd" d="M53.69 22.25L42.33 25.48L45.38 68.41L62.32 46.08L53.69 22.25Z" fill="#686B6D"/>
<path fill-rule="evenodd" clip-rule="evenodd" d="M58.57 28.0201L52.86 38.66L30.15 128.92L111.52 158.28L141.8 49.69L85.59 21.55L58.57 28.0201Z" fill="#FBE3D4"/>
<path fill-rule="evenodd" clip-rule="evenodd" d="M33.35 116.23L30.15 128.92L34.86 130.62L84.48 148.53L109.75 146.86L117.31 137.51L92.74 132.57L36.37 113.57L33.35 116.23Z" fill="#F4CAB2"/>
<path fill-rule="evenodd" clip-rule="evenodd" d="M60.15 58.23L53.48 61.92L60.16 78.66L58.61 104.43L71.64 102.49L80.05 111.16L99.23 91.15L125.12 73.92L103.8 74.54L85.88 79.18L78.43 82.78L75.36 76.57L69.99 65.54L65.17 57L60.15 58.23Z" fill="#F4CAB2"/>
<path fill-rule="evenodd" clip-rule="evenodd" d="M86.61 9.63L80.64 0L42.33 25.48L52.86 38.66L74.81 27.13L86.61 9.63Z" fill="#8B8A8A"/>
<path fill-rule="evenodd" clip-rule="evenodd" d="M93.33 127.39L100.18 128.4L117.31 137.51L107.03 143.61L93.33 127.39Z" fill="#626366"/>
<path fill-rule="evenodd" clip-rule="evenodd" d="M36.37 113.57L28.61 114.66L27.4 104.58L35.57 107.38L36.37 113.57Z" fill="#686B6D"/>
<path fill-rule="evenodd" clip-rule="evenodd" d="M67.2 119.53L80.05 111.16L100.18 128.4L107.03 143.61L85.88 143.15L67.2 119.53Z" fill="#494D4E"/>
<path fill-rule="evenodd" clip-rule="evenodd" d="M64.66 114.46L58.61 104.43L35.57 107.38L28.61 114.66L38.65 124.41L64.66 114.46Z" fill="#494D4E"/>
<path fill-rule="evenodd" clip-rule="evenodd" d="M66.18 102.8L58.61 104.43L38.65 124.41L85.88 143.15L80.05 111.16L66.18 102.8Z" fill="#393939"/>
<path fill-rule="evenodd" clip-rule="evenodd" d="M75.36 76.5699L58.61 104.43L80.05 111.16L85.88 79.1799L75.36 76.5699Z" fill="#FFF0E8"/>
<path fill-rule="evenodd" clip-rule="evenodd" d="M90.54 41.07L74.81 27.13L80.64 0L92.76 22.55L90.54 41.07Z" fill="#444648"/>
<path fill-rule="evenodd" clip-rule="evenodd" d="M166.66 26.37L141.8 49.69L90.54 41.07L80.64 0L166.66 26.37Z" fill="#686B6D"/>
<path fill-rule="evenodd" clip-rule="evenodd" d="M94.35 161.5L143.7 152.25L144.08 168.22L87.56 181.66L94.35 161.5Z" fill="#EAECEB"/>
<path fill-rule="evenodd" clip-rule="evenodd" d="M155.93 91.51L170.34 101.44L159.79 121.36L145.73 111L155.93 91.51Z" fill="#FBE3D4"/>
<path fill-rule="evenodd" clip-rule="evenodd" d="M157.59 97.41L164.05 101.69L153.49 107.22L157.59 97.41Z" fill="#C18F7C"/>
<path fill-rule="evenodd" clip-rule="evenodd" d="M112.84 210.18L139.55 214.87L138.47 219.5L112.33 214.49L112.84 210.18Z" fill="#583101"/>
<path fill-rule="evenodd" clip-rule="evenodd" d="M123.62 212.08L125.95 212.48V217.4H123.65V212.1L123.62 212.08ZM123.22 253.53H125.53V258.29H123.23V253.52L123.22 253.53ZM123.44 232.99H125.74L125.68 238.16H123.38L123.44 232.99Z" fill="#E5E6E5"/>
<path fill-rule="evenodd" clip-rule="evenodd" d="M124.77 214.8C128.84 214.8 132.1 219.22 132.04 224.57C131.98 229.92 128.64 234.22 124.58 234.18C120.52 234.14 117.25 229.77 117.31 224.42C117.37 219.07 120.7 214.76 124.77 214.8Z" fill="#9C6644"/>
<path fill-rule="evenodd" clip-rule="evenodd" d="M124.55 236.75C128.62 236.75 131.87 241.17 131.82 246.51C131.77 251.85 128.42 256.17 124.35 256.13C120.28 256.09 117.03 251.72 117.08 246.36C117.13 241 120.48 236.71 124.55 236.75Z" fill="#9C6644"/>
<path fill-rule="evenodd" clip-rule="evenodd" d="M124.75 217.78C127.38 217.78 129.49 220.83 129.45 224.54C129.41 228.25 127.24 231.23 124.6 231.21C121.96 231.19 119.86 228.15 119.9 224.45C119.94 220.75 122.11 217.75 124.75 217.78Z" fill="white"/>
<path fill-rule="evenodd" clip-rule="evenodd" d="M124.52 239.72C127.15 239.72 129.26 242.78 129.22 246.49C129.18 250.2 127.02 253.18 124.38 253.16C121.74 253.14 119.64 250.1 119.68 246.39C119.72 242.68 121.88 239.7 124.52 239.72Z" fill="white"/>
<path d="M94.88 383.16H34.93V388.14H94.88V383.16Z" fill="#583101"/>
<path d="M58.61 104.43L65.3 116.32L80.05 111.16L58.61 104.43Z" fill="#2B2B2B"/>
<path fill-rule="evenodd" clip-rule="evenodd" d="M104 342.7L151.37 323.19L97 329.62L104 342.7Z" fill="#3F4040"/>
<path fill-rule="evenodd" clip-rule="evenodd" d="M51.79 58.59L65.11 53.34L75.93 67.82L75.36 76.57L63.3 58.76L53.48 61.92L51.79 58.59Z" fill="#616264"/>
<path fill-rule="evenodd" clip-rule="evenodd" d="M89.88 72.13L85.88 79.18L125.12 73.92L125.26 69.49L89.88 72.13Z" fill="#616264"/>
<path fill-rule="evenodd" clip-rule="evenodd" d="M96.7796 82.3571C97.6623 81.7953 98.6917 81.5079 99.7377 81.5312C100.784 81.5545 101.799 81.8874 102.656 82.4879C103.513 83.0883 104.172 83.9294 104.551 84.9047C104.93 85.88 105.011 86.9457 104.784 87.9671C104.557 88.9884 104.033 89.9196 103.277 90.6427C102.52 91.3659 101.567 91.8487 100.536 92.0299C99.506 92.2111 98.4449 92.0827 97.4875 91.661C96.53 91.2392 95.7191 90.5429 95.1573 89.6603C94.7835 89.0779 94.528 88.4275 94.4055 87.7463C94.2831 87.0652 94.2959 86.3666 94.4434 85.6904C94.591 85.0142 94.8702 84.3737 95.2653 83.8055C95.6603 83.2372 96.1634 82.7523 96.7459 82.3785L96.7796 82.3571Z" fill="#2B2B2B"/>
<path fill-rule="evenodd" clip-rule="evenodd" d="M67.6 75.17C67.602 76.2163 67.2937 77.2396 66.714 78.1107C66.1344 78.9817 65.3095 79.6613 64.3436 80.0635C63.3778 80.4657 62.3143 80.5725 61.2878 80.3703C60.2612 80.1681 59.3177 79.6661 58.5765 78.9277C57.8353 78.1893 57.3297 77.2476 57.1236 76.2218C56.9176 75.1961 57.0203 74.1322 57.4189 73.1649C57.8174 72.1975 58.4939 71.37 59.3627 70.7871C60.2316 70.2042 61.2537 69.892 62.3 69.89C62.9947 69.8887 63.6828 70.0242 64.3252 70.2889C64.9675 70.5535 65.5514 70.9421 66.0435 71.4324C66.5357 71.9227 66.9264 72.5051 67.1935 73.1464C67.4606 73.7877 67.5987 74.4753 67.6 75.17Z" fill="#2B2B2B"/>
<path fill-rule="evenodd" clip-rule="evenodd" d="M22.58 205.27L34.25 220.49L58.1 211.86L55.23 168.01L26.39 189.05L22.58 205.27Z" fill="#7F5539"/>
<path fill-rule="evenodd" clip-rule="evenodd" d="M32.98 150.26L20.25 165.34L0 206.03L19.28 227.59L37.82 219.2L43.1 176.85L32.98 150.26Z" fill="#B08968"/>
<path fill-rule="evenodd" clip-rule="evenodd" d="M30.41 152.44L23.28 158.49L20.25 165.34L43.1 176.85L44.59 169.52L34.98 153.58L30.41 152.44Z" fill="#EAECEB"/>
<path fill-rule="evenodd" clip-rule="evenodd" d="M27.97 145.44L19.08 132.58L32.73 118.67L55.45 138.05L51.69 150.72L27.97 145.44Z" fill="#FBE3D4"/>
<path fill-rule="evenodd" clip-rule="evenodd" d="M23.28 158.49L19.08 132.58L51.69 150.72L44.59 169.52L23.28 158.49Z" fill="#F4CAB2"/>
</g>
<defs>
<clipPath id="clip0">
<rect width="184.04" height="393.12" fill="white"/>
</clipPath>
</defs>
</svg>
