<svg xmlns="http://www.w3.org/2000/svg" xmlns:xlink="http://www.w3.org/1999/xlink" viewBox="0 0 768.76 850.76"><defs><style>.cls-1{fill:none;}.cls-2{clip-path:url(#clip-path);}.cls-3{fill:#3b2d47;}.cls-4{fill:#362746;}.cls-5{fill:#47445b;}.cls-6{fill:#94564d;}.cls-7{fill:#706a73;}.cls-8{fill:#5d5665;}.cls-9{fill:#4a445b;}.cls-10{fill:#434258;}.cls-11{fill:#525067;}.cls-12{fill:#5e5b6b;}.cls-13{fill:#312c4d;}.cls-14{fill:#858283;}.cls-15{fill:#9a989a;}.cls-16{fill:#46405b;}.cls-17{fill:#655b6b;}.cls-18{fill:#3d314a;}.cls-19{fill:#857d83;}.cls-20{fill:#857f82;}.cls-21{fill:#635c62;}.cls-22{fill:#4a4154;}.cls-23{fill:#291b3d;}.cls-24{fill:#332a48;}.cls-25{fill:#433b52;}.cls-26{fill:#90898c;}.cls-27{fill:#827b81;}.cls-28{fill:#4c445b;}.cls-29{fill:#a56358;}.cls-30{fill:#ad6759;}.cls-31{fill:#492339;}.cls-32{fill:#532e3d;}.cls-33{fill:url(#Gradient_bez_nazwy);}.cls-34{fill:#7fbb00;}.cls-35{fill:url(#Gradient_bez_nazwy_25);}.cls-36{fill:#94d402;}.cls-37{fill:url(#Gradient_bez_nazwy_3);}.cls-38{fill:#6ea507;}.cls-39{fill:#71ab04;}.cls-40{fill:#80c200;}.cls-41{fill:url(#Gradient_bez_nazwy_23);}.cls-42{fill:url(#Gradient_bez_nazwy_5);}.cls-43{fill:url(#Gradient_bez_nazwy_6);}.cls-44{fill:#80c100;}.cls-45{fill:#87c901;}.cls-46{fill:#98de13;}.cls-47{fill:#7cb901;}.cls-48{fill:#4a701b;}.cls-49{fill:#486b1a;}.cls-50{fill:#71ac00;}.cls-51{fill:#864c4a;}.cls-52{fill:url(#Gradient_bez_nazwy_7);}.cls-53{fill:url(#Gradient_bez_nazwy_8);}.cls-54{fill:#693841;}.cls-55{fill:#592f3c;}.cls-56{fill:#9e5d56;}.cls-57{fill:url(#Gradient_bez_nazwy_9);}.cls-58{fill:url(#Gradient_bez_nazwy_10);}.cls-59{fill:url(#Gradient_bez_nazwy_11);}.cls-60{fill:url(#Gradient_bez_nazwy_12);}.cls-61{fill:url(#Gradient_bez_nazwy_13);}.cls-62{fill:url(#Gradient_bez_nazwy_14);}.cls-63{fill:url(#Gradient_bez_nazwy_15);}.cls-64{fill:url(#Gradient_bez_nazwy_16);}.cls-65{fill:#6b3a42;}.cls-66{fill:#794448;}.cls-67{fill:#61333e;}.cls-68{fill:#63373f;}.cls-69{fill:#673945;}.cls-70{fill:#5f333e;}.cls-71{fill:#64343e;}.cls-72{fill:url(#Gradient_bez_nazwy_17);}.cls-73{fill:url(#Gradient_bez_nazwy_18);}.cls-74{fill:#5a303e;}.cls-75{fill:#5a5362;}.cls-76{fill:#605566;}.cls-77{fill:url(#Gradient_bez_nazwy_19);}.cls-78{fill:url(#Gradient_bez_nazwy_20);}.cls-79{fill:url(#Gradient_bez_nazwy_21);}.cls-80{fill:url(#Gradient_bez_nazwy_22);}.cls-81{fill:#554d61;}.cls-82{fill:#613541;}.cls-83{fill:#304817;}.cls-84{fill:#77b500;}.cls-85{fill:#9d5f54;}.cls-86{fill:#4a2835;}.cls-87{fill:#6ba507;}.cls-88{fill:#9c5e53;}.cls-89{fill:#a3665a;}.cls-90{fill:#724240;}.cls-91{fill:#6eab01;}.cls-92{fill:#9f6155;}.cls-93{fill:#56303b;}.cls-94{fill:#7cbb00;}.cls-95{fill:#895349;}.cls-96{fill:#6e4042;}.cls-97{fill:#81c300;}.cls-98{fill:#8d544c;}.cls-99{fill:#462a33;}.cls-100{fill:#6c4142;}.cls-101{fill:#8cd200;}.cls-102{fill:#93d61d;}.cls-103{fill:url(#Gradient_bez_nazwy_23-2);}.cls-104{fill:url(#Gradient_bez_nazwy_25-2);}.cls-105{fill:url(#Gradient_bez_nazwy_25-3);}.cls-106{fill:#94564b;}.cls-107{fill:#985c4d;}.cls-108{fill:#b16958;}.cls-109{fill:#ae6655;}.cls-110{fill:#3d182e;}.cls-111{fill:#985c4e;}.cls-112{fill:#4f2935;}.cls-113{fill:#b76e5b;}.cls-114{fill:#331022;}.cls-115{fill:#b86d5c;}.cls-116{fill:#220720;}.cls-117{fill:#8bcd01;}.cls-118{fill:#87c800;}.cls-119{fill:#8cd300;}.cls-120{fill:#8dcf01;}.cls-121{fill:#86c900;}.cls-122{fill:#588809;}.cls-123{fill:#5d8d08;}.cls-124{fill:#456218;}.cls-125{fill:#bb7160;}.cls-126{fill:#94554c;}.cls-127{fill:#300c2b;}.cls-128{fill:#4e7913;}.cls-129{fill:#8bca00;}.cls-130{fill:#97dc09;}.cls-131{fill:#70aa00;}.cls-132{fill:#344615;}.cls-133{fill:#405c1a;}.cls-134{fill:#75b601;}.cls-135{fill:#8ed200;}.cls-136{fill:#95d900;}.cls-137{fill:#81c200;}.cls-138{fill:#94d800;}.cls-139{fill:#79b100;}.cls-140{fill:#669e00;}.cls-141{fill:#94d702;}.cls-142{fill:#97dc0b;}.cls-143{fill:#69a200;}.cls-144{fill:#83c600;}.cls-145{fill:#85c500;}.cls-146{fill:#8bce00;}.cls-147{fill:#88cd00;}.cls-148{fill:#406817;}.cls-149{fill:#385016;}.cls-150{fill:#2e3114;}.cls-151{fill:#98da09;}.cls-152{fill:#96da0c;}.cls-153{fill:#83c400;}.cls-154{fill:#477013;}.cls-155{fill:#416114;}.cls-156{fill:#426814;}.cls-157{fill:#71ac02;}.cls-158{fill:#5c9106;}.cls-159{fill:#88cb00;}.cls-160{fill:#9bdf0d;}.cls-161{fill:#89ce00;}.cls-162{fill:#92d300;}.cls-163{fill:#6fa600;}.cls-164{fill:#68a201;}.cls-165{fill:#6ba001;}.cls-166{fill:#3b5115;}.cls-167{fill:#3d5714;}.cls-168{fill:#9b5d4f;}.cls-169{fill:#365c15;}.cls-170{fill:#37192f;}.cls-171{fill:#432338;}.cls-172{fill:#3b6a13;}.cls-173{fill:#422334;}.cls-174{fill:#462434;}.cls-175{fill:#2f132b;}.cls-176{fill:#2b1027;}.cls-177{fill:#35132a;}.cls-178{fill:#91d501;}.cls-179{fill:#96da05;}.cls-180{fill:#89cd00;}.cls-181{fill:#548709;}.cls-182{fill:#7ebe02;}.cls-183{fill:#7aba00;}.cls-184{fill:#3a5e17;}.cls-185{fill:#2c3815;}.cls-186{fill:#354816;}.cls-187{fill:#334d16;}.cls-188{fill:#364b16;}.cls-189{fill:#85c700;}.cls-190{fill:#85cb00;}.cls-191{fill:#92d400;}.cls-192{fill:#8acc00;}.cls-193{fill:#619800;}.cls-194{fill:#3b5a19;}.cls-195{fill:#476e17;}.cls-196{fill:#2d3f15;}.cls-197{fill:#8bcc00;}.cls-198{fill:#6ba800;}.cls-199{fill:#8bd000;}.cls-200{fill:#69a502;}.cls-201{fill:#334f15;}.cls-202{fill:#2f4917;}.cls-203{fill:#619602;}.cls-204{fill:#304212;}.cls-205{fill:#334815;}.cls-206{fill:#365916;}.cls-207{fill:#354d15;}.cls-208{fill:#375615;}.cls-209{fill:#406615;}.cls-210{fill:#406c15;}.cls-211{fill:#92d907;}.cls-212{fill:#9de118;}.cls-213{fill:#90d704;}.cls-214{fill:#548a0a;}.cls-215{fill:#83c002;}.cls-216{fill:#7cbe00;}.cls-217{fill:#375a17;}.cls-218{fill:#305013;}.cls-219{fill:#354c15;}.cls-220{fill:#2f4415;}.cls-221{fill:#8e5548;}.cls-222{fill:#31152d;}.cls-223{fill:#2f112c;}.cls-224{fill:#532c36;}.cls-225{fill:#402031;}.cls-226{fill:#412337;}.cls-227{fill:#321228;}.cls-228{fill:#93584c;}.cls-229{fill:#4e2934;}.cls-230{fill:#16011c;}.cls-231{fill:#3d5d15;}.cls-232{fill:#75af01;}.cls-233{fill:#7dbc00;}.cls-234{fill:#89c901;}.cls-235{fill:#92d600;}.cls-236{fill:#3c5015;}.cls-237{fill:#476b14;}.cls-238{fill:#364a16;}.cls-239{fill:#73ac01;}.cls-240{fill:#23180e;}.cls-241{fill:#221f0e;}.cls-242{fill:#385615;}.cls-243{fill:#3a6213;}.cls-244{fill:#385813;}.cls-245{fill:#578a08;}.cls-246{fill:#90d306;}.cls-247{fill:#344e15;}.cls-248{fill:#334b17;}.cls-249{fill:#76b000;}.cls-250{fill:#689f01;}.cls-251{fill:#4e7713;}.cls-252{fill:#4d7a10;}.cls-253{fill:#8dd000;}.cls-254{fill:#95d903;}.cls-255{fill:#7abf00;}.cls-256{fill:#588311;}.cls-257{fill:#6ba300;}.cls-258{fill:#416515;}.cls-259{fill:#7fbc04;}.cls-260{fill:#93d706;}.cls-261{fill:#374919;}.cls-262{fill:#3b5a17;}.cls-263{fill:#4c7013;}.cls-264{fill:#354617;}.cls-265{fill:#4d7a0f;}.cls-266{fill:#8dd300;}.cls-267{fill:#8acd01;}.cls-268{fill:#80c301;}.cls-269{fill:#477017;}.cls-270{fill:#3c6015;}.cls-271{fill:#98dd12;}.cls-272{fill:#98dc0c;}.cls-273{fill:#8ccf00;}.cls-274{fill:#88c600;}.cls-275{fill:#80c000;}.cls-276{fill:#5b8c0b;}.cls-277{fill:#365117;}.cls-278{fill:#3c5c16;}.cls-279{fill:#466615;}.cls-280{fill:#3f5b16;}.cls-281{fill:#441928;}.cls-282{fill:#345819;}.cls-283{fill:#385f16;}.cls-284{fill:#7bb902;}.cls-285{fill:#8acd02;}.cls-286{fill:#477417;}.cls-287{fill:#325018;}.cls-288{fill:#2d4119;}.cls-289{fill:#6aa606;}.cls-290{fill:#91d400;}.cls-291{fill:#2d4719;}.cls-292{fill:#96d910;}.cls-293{fill:#79b901;}.cls-294{fill:#315217;}.cls-295{fill:#324d19;}.cls-296{fill:#99df12;}.cls-297{fill:#8fd401;}.cls-298{fill:#588914;}.cls-299{fill:#2e4918;}.cls-300{fill:#95da0c;}.cls-301{fill:#9de319;}.cls-302{fill:#7dbe00;}.cls-303{fill:#345519;}.cls-304{fill:#90d404;}.cls-305{fill:#578a11;}.cls-306{fill:#314f19;}.cls-307{fill:#8dce01;}.cls-308{fill:#170b06;}.cls-309{fill:#5a8e12;}.cls-310{fill:#41671a;}.cls-311{fill:#283213;}.cls-312{fill:#73b100;}.cls-313{fill:#96dd0a;}.cls-314{fill:#2b4617;}.cls-315{fill:#335119;}.cls-316{fill:#334b19;}.cls-317{fill:#95db10;}.cls-318{fill:#7fc201;}.cls-319{fill:#7bbd00;}.cls-320{fill:#314d18;}.cls-321{fill:#2e4619;}.cls-322{fill:#9be41a;}.cls-323{fill:#93d605;}.cls-324{fill:#578a12;}.cls-325{fill:#94d707;}.cls-326{fill:#78b200;}.cls-327{fill:#7aba01;}.cls-328{fill:#33541a;}.cls-329{fill:#2e4b16;}.cls-330{fill:#9be316;}.cls-331{fill:#324b1b;}.cls-332{fill:#95db07;}.cls-333{fill:#77b700;}.cls-334{fill:#74b301;}.cls-335{fill:#314c18;}.cls-336{fill:#8fd301;}.cls-337{fill:#9ce10f;}.cls-338{fill:#5a9011;}.cls-339{fill:#2e4f1a;}.cls-340{fill:#74b304;}.cls-341{fill:#96da0a;}.cls-342{fill:#6fad01;}.cls-343{fill:#5e940c;}.cls-344{fill:#9fe518;}.cls-345{fill:#86cb00;}.cls-346{fill:#2e3f16;}.cls-347{fill:#304f1a;}.cls-348{fill:#8cd100;}.cls-349{fill:#82c500;}.cls-350{fill:#8ed101;}.cls-351{fill:#466f1a;}.cls-352{fill:url(#Gradient_bez_nazwy_26);}.cls-353{fill:#9ce216;}.cls-354{fill:#9adf12;}.cls-355{fill:#639e09;}.cls-356{fill:#95d706;}.cls-357{fill:#83c500;}.cls-358{fill:#41641a;}.cls-359{fill:#2f4719;}.cls-360{fill:#669f09;}.cls-361{fill:#2f4b18;}.cls-362{fill:#2f4718;}.cls-363{fill:#548715;}.cls-364{fill:#91d709;}.cls-365{fill:#7ab901;}.cls-366{fill:#77b600;}.cls-367{fill:#304a17;}.cls-368{fill:#98dd0f;}.cls-369{fill:#528611;}.cls-370{fill:#2f4519;}.cls-371{fill:#fffefe;}.cls-372{fill:#eaedea;}.cls-373{fill:#91bbb9;}.cls-374{fill:#f9f9fa;}.cls-375{fill:url(#Gradient_bez_nazwy_30);}.cls-376{fill:url(#Gradient_bez_nazwy_29);}.cls-377{fill:#bcc9c7;}.cls-378{fill:#c3ced4;}.cls-379{fill:#abbeb8;}.cls-380{fill:#b3c8c9;}.cls-381{fill:#f5f6f7;}.cls-382{fill:#f8f9f8;}.cls-383{fill:#e3eaef;}.cls-384{fill:#fafbfb;}.cls-385{fill:#f9faf9;}.cls-386{fill:#c2cec7;}.cls-387{fill:#a6c1a5;}.cls-388{fill:#bacbd5;}.cls-389{fill:#b7cbce;}.cls-390{fill:#325112;}.cls-391{fill:#3d6617;}.cls-392{fill:url(#Gradient_bez_nazwy_29-2);}.cls-393{fill:url(#Gradient_bez_nazwy_30-2);}.cls-394{fill:#bec9cd;}.cls-395{fill:#c5cfda;}.cls-396{fill:#b9c6d1;}.cls-397{fill:#bcc9d9;}.cls-398{fill:#315114;}.cls-399{fill:#3d6716;}</style><clipPath id="clip-path" transform="translate(-285.44 -101.42)"><rect class="cls-1" width="1323" height="1077"/></clipPath><radialGradient id="Gradient_bez_nazwy" cx="379.98" cy="683.95" r="1" gradientTransform="matrix(379.67, 5.18, 5.62, -412.09, -147448.78, 280402.37)" gradientUnits="userSpaceOnUse"><stop offset="0" stop-color="#85c900"/><stop offset="0.41" stop-color="#83c500"/><stop offset="0.8" stop-color="#7cba00"/><stop offset="1" stop-color="#77b100"/></radialGradient><linearGradient id="Gradient_bez_nazwy_25" x1="303.23" y1="501.3" x2="392.21" y2="500.48" gradientTransform="matrix(1, 0, 0, -1, 0, 1078)" gradientUnits="userSpaceOnUse"><stop offset="0" stop-color="#86c400"/><stop offset="0.15" stop-color="#88c600"/><stop offset="1" stop-color="#8dcd00"/></linearGradient><radialGradient id="Gradient_bez_nazwy_3" cx="371.68" cy="691.66" r="1" gradientTransform="matrix(41.44, 0.57, 0.61, -44.98, -15377.4, 31518.29)" gradientUnits="userSpaceOnUse"><stop offset="0" stop-color="#9be21c"/><stop offset="1" stop-color="#9de61f"/></radialGradient><linearGradient id="Gradient_bez_nazwy_23" x1="701.12" y1="495.92" x2="682.89" y2="460.56" gradientTransform="matrix(1, 0, 0, -1, 0, 1078)" gradientUnits="userSpaceOnUse"><stop offset="0" stop-color="#a4e81c"/><stop offset="0.12" stop-color="#a3e71c"/><stop offset="1" stop-color="#a0e61b"/></linearGradient><linearGradient id="Gradient_bez_nazwy_5" x1="702.16" y1="510.31" x2="698.48" y2="479.79" gradientTransform="matrix(1, 0, 0, -1, 0, 1078)" gradientUnits="userSpaceOnUse"><stop offset="0" stop-color="#98dd13"/><stop offset="0.19" stop-color="#9add13"/><stop offset="1" stop-color="#9dde12"/></linearGradient><linearGradient id="Gradient_bez_nazwy_6" x1="793.19" y1="500.71" x2="791.18" y2="473.11" gradientTransform="matrix(1, 0, 0, -1, 0, 1078)" gradientUnits="userSpaceOnUse"><stop offset="0" stop-color="#95d80a"/><stop offset="1" stop-color="#95d70b"/></linearGradient><linearGradient id="Gradient_bez_nazwy_7" x1="377.64" y1="490.96" x2="365.77" y2="352.03" gradientTransform="matrix(1, 0, 0, -1, 0, 1078)" gradientUnits="userSpaceOnUse"><stop offset="0" stop-color="#7d4747"/><stop offset="0.23" stop-color="#894f4c"/><stop offset="0.57" stop-color="#935750"/><stop offset="0.99" stop-color="#965951"/></linearGradient><linearGradient id="Gradient_bez_nazwy_8" x1="370.68" y1="423.26" x2="351.4" y2="403.01" gradientTransform="matrix(1, 0, 0, -1, 0, 1078)" gradientUnits="userSpaceOnUse"><stop offset="0" stop-color="#572d3a"/><stop offset="0.04" stop-color="#592e3b"/><stop offset="0.38" stop-color="#613340"/><stop offset="1" stop-color="#633541"/></linearGradient><linearGradient id="Gradient_bez_nazwy_9" x1="597.69" y1="480.65" x2="564.78" y2="372.68" gradientTransform="matrix(1, 0, 0, -1, 0, 1078)" gradientUnits="userSpaceOnUse"><stop offset="0" stop-color="#744346"/><stop offset="0.53" stop-color="#814c4b"/><stop offset="1" stop-color="#864f4d"/></linearGradient><linearGradient id="Gradient_bez_nazwy_10" x1="662.83" y1="411.92" x2="507.79" y2="389.18" gradientTransform="matrix(1, 0, 0, -1, 0, 1078)" gradientUnits="userSpaceOnUse"><stop offset="0" stop-color="#64343f"/><stop offset="0.31" stop-color="#683842"/><stop offset="1" stop-color="#6d3c46"/></linearGradient><linearGradient id="Gradient_bez_nazwy_11" x1="498.18" y1="339.66" x2="661.92" y2="307.94" gradientTransform="matrix(1, 0, 0, -1, 0, 1078)" gradientUnits="userSpaceOnUse"><stop offset="0" stop-color="#7e494b"/><stop offset="0.99" stop-color="#804a4e"/></linearGradient><linearGradient id="Gradient_bez_nazwy_12" x1="650.72" y1="464.68" x2="695.1" y2="373.56" gradientTransform="matrix(1, 0, 0, -1, 0, 1078)" gradientUnits="userSpaceOnUse"><stop offset="0" stop-color="#9c5c54"/><stop offset="1" stop-color="#a66358"/></linearGradient><linearGradient id="Gradient_bez_nazwy_13" x1="699.86" y1="471.27" x2="727.11" y2="388.1" gradientTransform="matrix(1, 0, 0, -1, 0, 1078)" gradientUnits="userSpaceOnUse"><stop offset="0" stop-color="#b46f5f"/><stop offset="0.03" stop-color="#b57060"/><stop offset="0.6" stop-color="#c8806d"/><stop offset="1" stop-color="#cf8672"/></linearGradient><linearGradient id="Gradient_bez_nazwy_14" x1="753.21" y1="473.27" x2="762.68" y2="388.21" gradientTransform="matrix(1, 0, 0, -1, 0, 1078)" gradientUnits="userSpaceOnUse"><stop offset="0" stop-color="#844d4c"/><stop offset="0.15" stop-color="#8b5250"/><stop offset="0.65" stop-color="#9e5f59"/><stop offset="1" stop-color="#a5645d"/></linearGradient><linearGradient id="Gradient_bez_nazwy_15" x1="746.84" y1="465.13" x2="823.45" y2="432.53" gradientTransform="matrix(1, 0, 0, -1, 0, 1078)" gradientUnits="userSpaceOnUse"><stop offset="0" stop-color="#8d524f"/><stop offset="0.4" stop-color="#925651"/><stop offset="0.86" stop-color="#9f6057"/><stop offset="1" stop-color="#a5645a"/></linearGradient><linearGradient id="Gradient_bez_nazwy_16" x1="820.81" y1="428.35" x2="862.99" y2="392.78" gradientTransform="matrix(1, 0, 0, -1, 0, 1078)" gradientUnits="userSpaceOnUse"><stop offset="0" stop-color="#58303f"/><stop offset="1" stop-color="#5c3140"/></linearGradient><linearGradient id="Gradient_bez_nazwy_17" x1="836.07" y1="403.34" x2="996.32" y2="441.21" gradientTransform="matrix(1, 0, 0, -1, 0, 1078)" gradientUnits="userSpaceOnUse"><stop offset="0" stop-color="#562e3e"/><stop offset="0.04" stop-color="#562e3e"/><stop offset="1" stop-color="#5a333e"/></linearGradient><linearGradient id="Gradient_bez_nazwy_18" x1="925.24" y1="486.5" x2="927.87" y2="380.6" gradientTransform="matrix(1, 0, 0, -1, 0, 1078)" gradientUnits="userSpaceOnUse"><stop offset="0" stop-color="#663841"/><stop offset="0.15" stop-color="#683942"/><stop offset="1" stop-color="#6c3c44"/></linearGradient><linearGradient id="Gradient_bez_nazwy_19" x1="621.49" y1="321.86" x2="641.54" y2="285.51" gradientTransform="matrix(1, 0, 0, -1, 0, 1078)" gradientUnits="userSpaceOnUse"><stop offset="0" stop-color="#564c61"/><stop offset="0.58" stop-color="#544a5f"/><stop offset="0.79" stop-color="#4f435a"/><stop offset="0.94" stop-color="#443850"/><stop offset="1" stop-color="#3e304a"/></linearGradient><linearGradient id="Gradient_bez_nazwy_20" x1="694.37" y1="350.54" x2="682.77" y2="295.13" gradientTransform="matrix(1, 0, 0, -1, 0, 1078)" gradientUnits="userSpaceOnUse"><stop offset="0" stop-color="#584f63"/><stop offset="0.63" stop-color="#564d61"/><stop offset="0.98" stop-color="#4f455a"/><stop offset="1" stop-color="#4f445a"/></linearGradient><linearGradient id="Gradient_bez_nazwy_21" x1="699.92" y1="351.52" x2="690.38" y2="294.58" gradientTransform="matrix(1, 0, 0, -1, 0, 1078)" gradientUnits="userSpaceOnUse"><stop offset="0" stop-color="#6f6772"/><stop offset="0.5" stop-color="#6d6570"/><stop offset="0.78" stop-color="#665d6a"/><stop offset="1" stop-color="#5a4f60"/></linearGradient><linearGradient id="Gradient_bez_nazwy_22" x1="727.41" y1="311.92" x2="720.15" y2="288.46" gradientTransform="matrix(1, 0, 0, -1, 0, 1078)" gradientUnits="userSpaceOnUse"><stop offset="0" stop-color="#636071"/><stop offset="0.53" stop-color="#615e6f"/><stop offset="0.83" stop-color="#5c5667"/><stop offset="1" stop-color="#564d5f"/></linearGradient><linearGradient id="Gradient_bez_nazwy_23-2" x1="332.83" y1="-1508.93" x2="239.23" y2="-2014.62" xlink:href="#Gradient_bez_nazwy_23"/><linearGradient id="Gradient_bez_nazwy_25-2" x1="4973.67" y1="12.07" x2="6216.86" y2="-115.24" xlink:href="#Gradient_bez_nazwy_25"/><linearGradient id="Gradient_bez_nazwy_25-3" x1="3627.67" y1="168.33" x2="4500.18" y2="82.46" xlink:href="#Gradient_bez_nazwy_25"/><linearGradient id="Gradient_bez_nazwy_26" x1="854.82" y1="545.72" x2="863.34" y2="520.11" gradientTransform="matrix(1, 0, 0, -1, 0, 1078)" gradientUnits="userSpaceOnUse"><stop offset="0" stop-color="#2d4517"/><stop offset="0.27" stop-color="#304a17"/><stop offset="0.99" stop-color="#324c17"/></linearGradient><linearGradient id="Gradient_bez_nazwy_30" x1="691.27" y1="689.76" x2="686.51" y2="689.76" gradientTransform="matrix(1, 0, 0, -1, 0, 1078)" gradientUnits="userSpaceOnUse"><stop offset="0" stop-color="#f2f2f3"/><stop offset="0.24" stop-color="#edeeed"/><stop offset="0.49" stop-color="#eceded"/><stop offset="1" stop-color="#ecedec"/></linearGradient><linearGradient id="Gradient_bez_nazwy_29" x1="690.97" y1="689.65" x2="693.02" y2="689.65" gradientTransform="matrix(1, 0, 0, -1, 0, 1078)" gradientUnits="userSpaceOnUse"><stop offset="0" stop-color="#c6d2da"/><stop offset="0.24" stop-color="#9fc0c7"/><stop offset="0.49" stop-color="#a4bfca"/><stop offset="1" stop-color="#a4b6c0"/></linearGradient><linearGradient id="Gradient_bez_nazwy_29-2" x1="1714.69" y1="711.75" x2="1724.59" y2="711.75" xlink:href="#Gradient_bez_nazwy_29"/><linearGradient id="Gradient_bez_nazwy_30-2" x1="2054.37" y1="711.75" x2="2071.87" y2="711.75" xlink:href="#Gradient_bez_nazwy_30"/></defs><g id="Warstwa_2" data-name="Warstwa 2"><g id="Warstwa_1-2" data-name="Warstwa 1"><g class="cls-2"><path class="cls-3" d="M780.41,784.45l9.49-4.52L780.77,795Z" transform="translate(-285.44 -101.42)"/><path class="cls-4" d="M780.41,784.45l-3.21,8,3.57,2.58Z" transform="translate(-285.44 -101.42)"/><path class="cls-5" d="M789.9,779.93l4.59,16-13.72-.9Z" transform="translate(-285.44 -101.42)"/><path class="cls-6" d="M550,838.62l-69.06,27.29,71.24,37.8Z" transform="translate(-285.44 -101.42)"/><path class="cls-7" d="M480.91,865.91l12.7,20.89,58.54,16.91Z" transform="translate(-285.44 -101.42)"/><path class="cls-8" d="M493.61,886.8l44.92,27.39,13.62-10.48Z" transform="translate(-285.44 -101.42)"/><path class="cls-9" d="M529.79,800.93l-1.62,18.27,6.59-2.26Z" transform="translate(-285.44 -101.42)"/><path class="cls-10" d="M534.76,816.94l6.51-9.12-11.48-6.89Z" transform="translate(-285.44 -101.42)"/><path class="cls-11" d="M616.42,829.18l-6.48,31,20.17-18.52Z" transform="translate(-285.44 -101.42)"/><path class="cls-12" d="M630.11,841.64,641.59,854l-24.84,22.29L610,860Z" transform="translate(-285.44 -101.42)"/><path class="cls-13" d="M616.42,829.18l13.69,12.46L641.59,854l-2.91-16.48Z" transform="translate(-285.44 -101.42)"/><path class="cls-14" d="M580.86,941.62l2.32,5.42,15.51-31.88Z" transform="translate(-285.44 -101.42)"/><path class="cls-15" d="M598.69,915.16l-2.48,26.93-13,4.95Z" transform="translate(-285.44 -101.42)"/><path class="cls-16" d="M598.69,915.16,613,948.87l-3.05,3.31-13.69-10.09Z" transform="translate(-285.44 -101.42)"/><path class="cls-17" d="M596.21,942.09l13.69,10.09L583.18,947Z" transform="translate(-285.44 -101.42)"/><path class="cls-18" d="M592.08,925l-.07,7.18-5.29.79Z" transform="translate(-285.44 -101.42)"/><path class="cls-19" d="M732,826.42,734.4,847l1.42,2.47,2.28-8.26Z" transform="translate(-285.44 -101.42)"/><path class="cls-20" d="M732,826.42l6.15,14.82,12.7-.53Z" transform="translate(-285.44 -101.42)"/><path class="cls-21" d="M750.8,840.71,753,837l-21-10.62Z" transform="translate(-285.44 -101.42)"/><path class="cls-22" d="M750.8,840.71l-12.5,8-2.48.82,2.28-8.26Z" transform="translate(-285.44 -101.42)"/><path class="cls-23" d="M741.41,831.19l-2.42.58-7-5.35Z" transform="translate(-285.44 -101.42)"/><path class="cls-24" d="M732,826.42l7,5.35-4.56.64Z" transform="translate(-285.44 -101.42)"/><path class="cls-25" d="M732,826.42l2.12,17.7.36-11.71Z" transform="translate(-285.44 -101.42)"/><path class="cls-26" d="M771.8,872.05l25.47,24.73-3.54-59.59Z" transform="translate(-285.44 -101.42)"/><path class="cls-27" d="M793.73,837.19l3.54,59.59,10.22-22.18Z" transform="translate(-285.44 -101.42)"/><path class="cls-28" d="M797.27,896.78l40.06-27.86,16.24-23.22-46.08,28.9Z" transform="translate(-285.44 -101.42)"/><path class="cls-29" d="M807.49,874.6l46.08-28.9-15.32-47.43Z" transform="translate(-285.44 -101.42)"/><path class="cls-30" d="M807.49,874.6l-13.76-37.41,44.52-38.92Z" transform="translate(-285.44 -101.42)"/><path class="cls-31" d="M804.19,828l22.69-1.5,11.37-28.26Z" transform="translate(-285.44 -101.42)"/><path class="cls-32" d="M838.25,798.27l-11.37,28.26,23.25,8.54Z" transform="translate(-285.44 -101.42)"/><path class="cls-33" d="M285.54,502.28l5.32,30.15,11.05,32.89,88.24,9.19,38.24,9.62,3.34-1.29,48.12,2.83,77.5-9.19L655.61,562l90.17,14.75,93.89,5.35,45.75-2.37,36.68-8.87,48.82,3.56,42.2-2.37L1037.93,548,999.1,526.19l30.56-12-20.74-11.52-40.62-5.78L938.24,492l-61-9.44L846,465.66l-63.77-4.38-76.87-2.15-54.64.17-107-3.19-70.65,10.16-60.53,4-68,3.92-24.71,4.2Z" transform="translate(-285.44 -101.42)"/><path class="cls-34" d="M290.86,532.43l11.05,32.89,1,14.93-12.37-39.31Z" transform="translate(-285.44 -101.42)"/><path class="cls-35" d="M302.9,580.25l87.78,8.62-.53-14.36-88.24-9.19Z" transform="translate(-285.44 -101.42)"/><path class="cls-36" d="M390.15,574.51l38.24,9.62L450,622.33l.5,17.19-59.84-50.65Z" transform="translate(-285.44 -101.42)"/><path class="cls-37" d="M431.73,582.84l-3.34,1.29L450,622.33l29.83-36.66Z" transform="translate(-285.44 -101.42)"/><path class="cls-38" d="M450,622.33l.5,17.19,106.07-48.86-76.74-5Z" transform="translate(-285.44 -101.42)"/><path class="cls-38" d="M479.85,585.67l76.74,5,.76-14.18Z" transform="translate(-285.44 -101.42)"/><path class="cls-39" d="M557.35,576.48l98.16,33.14-98.92-19Z" transform="translate(-285.44 -101.42)"/><path class="cls-40" d="M557.35,576.48,655.61,562l-.1,47.6Z" transform="translate(-285.44 -101.42)"/><path class="cls-41" d="M655.61,562l-.1,47.6,89.31-4Z" transform="translate(-285.44 -101.42)"/><path class="cls-42" d="M655.61,562l89.21,43.65,1-28.9Z" transform="translate(-285.44 -101.42)"/><path class="cls-43" d="M745.78,576.77l-1,28.9,94.36-8.26.49-15.29Z" transform="translate(-285.44 -101.42)"/><path class="cls-44" d="M839.67,582.12l-.49,15.29,88.28-5.6-42-12.06Z" transform="translate(-285.44 -101.42)"/><path class="cls-45" d="M885.42,579.75l42,12.06-5.36-20.93Z" transform="translate(-285.44 -101.42)"/><path class="cls-46" d="M922.1,570.88l5.36,20.93,43.46-17.37Z" transform="translate(-285.44 -101.42)"/><path class="cls-47" d="M927.46,591.81l85.26-5.06.4-14.68-42.2,2.37Z" transform="translate(-285.44 -101.42)"/><path class="cls-48" d="M1013.12,572.07l-.4,14.68L1034.88,561l3-13Z" transform="translate(-285.44 -101.42)"/><path class="cls-49" d="M1037.93,548l-3,13,19.32-3.91Z" transform="translate(-285.44 -101.42)"/><path class="cls-50" d="M1054.2,557.1,1037.93,548,999.1,526.19l30.56-12Z" transform="translate(-285.44 -101.42)"/><path class="cls-51" d="M390.68,588.87l54.38,90.65,5.46-40Z" transform="translate(-285.44 -101.42)"/><path class="cls-52" d="M302.9,580.25l87.78,8.62,54.38,90.65L439,728.7Z" transform="translate(-285.44 -101.42)"/><path class="cls-53" d="M302.9,580.25l40.19,57.8,26.52,50L402,724.86l37,3.84Z" transform="translate(-285.44 -101.42)"/><path class="cls-54" d="M450.52,639.52l-5.46,40,59.83,20.28Z" transform="translate(-285.44 -101.42)"/><path class="cls-55" d="M504.89,699.8l51.7-109.14L450.52,639.52Z" transform="translate(-285.44 -101.42)"/><path class="cls-56" d="M445.06,679.52,439,728.7l112.16,68L504.89,699.8Z" transform="translate(-285.44 -101.42)"/><path class="cls-57" d="M556.59,590.66,504.89,699.8l150.62-90.18Z" transform="translate(-285.44 -101.42)"/><path class="cls-58" d="M655.51,609.62,667.06,723,504.89,699.8Z" transform="translate(-285.44 -101.42)"/><path class="cls-59" d="M504.89,699.8l46.24,96.86L667.06,723Z" transform="translate(-285.44 -101.42)"/><path class="cls-60" d="M655.51,609.62,667.06,723l57.81-33.57Z" transform="translate(-285.44 -101.42)"/><path class="cls-61" d="M655.51,609.62l69.36,79.8,20-83.75Z" transform="translate(-285.44 -101.42)"/><path class="cls-62" d="M724.87,689.42l75.64,1.05-55.69-84.8Z" transform="translate(-285.44 -101.42)"/><path class="cls-63" d="M744.82,605.67l55.69,84.8,38.67-93.06Z" transform="translate(-285.44 -101.42)"/><path class="cls-64" d="M839.18,597.41l-38.67,93.06,21.93,28.28,18.43-12.42Z" transform="translate(-285.44 -101.42)"/><path class="cls-65" d="M667.06,723l20.64,5.85,37.17-39.42Z" transform="translate(-285.44 -101.42)"/><path class="cls-66" d="M687.7,728.84l27,35.54,10.12-75Z" transform="translate(-285.44 -101.42)"/><path class="cls-67" d="M714.75,764.38l85.76-73.91-75.64-1.05Z" transform="translate(-285.44 -101.42)"/><path class="cls-68" d="M800.51,690.47l-85.76,73.91,107.69-45.63Z" transform="translate(-285.44 -101.42)"/><path class="cls-69" d="M714.75,764.38l23.85,8.15,83.84-53.78Z" transform="translate(-285.44 -101.42)"/><path class="cls-70" d="M738.6,772.53l-16.41,20.68,100.25-74.46Z" transform="translate(-285.44 -101.42)"/><path class="cls-71" d="M840.87,706.33l-18.43,12.42-48.85,36.3,170.3-59.7Z" transform="translate(-285.44 -101.42)"/><path class="cls-72" d="M840.5,706.55l172.22-119.8-68.83,108.6Z" transform="translate(-285.44 -101.42)"/><path class="cls-73" d="M839.18,597.41l1.32,109.14,172.22-119.8-85.26,5.06Z" transform="translate(-285.44 -101.42)"/><path class="cls-74" d="M1012.72,586.75,1034.88,561l19.32-3.91L943.89,695.35Z" transform="translate(-285.44 -101.42)"/><path class="cls-75" d="M402,724.86l70.29,38.84,15.84-5.24L439,728.7Z" transform="translate(-285.44 -101.42)"/><path class="cls-76" d="M551.13,796.66l41.21,22.4L667.06,723Z" transform="translate(-285.44 -101.42)"/><path class="cls-77" d="M667.06,723,662,773.68l-69.62,45.38Z" transform="translate(-285.44 -101.42)"/><path class="cls-78" d="M667.06,723,662,773.68l47.73,15.55Z" transform="translate(-285.44 -101.42)"/><path class="cls-79" d="M667.06,723l42.63,66.24,12.5,4-7.44-28.83-27-35.54Z" transform="translate(-285.44 -101.42)"/><path class="cls-80" d="M714.75,764.38l7.44,28.83,16.41-20.68Z" transform="translate(-285.44 -101.42)"/><path class="cls-81" d="M773.59,755.05l-10.35,7.68,74.85-1.54,105.8-65.84Z" transform="translate(-285.44 -101.42)"/><path class="cls-82" d="M556.59,590.66,551.29,672,568.86,709l-15.52,23.81-48.45-33Z" transform="translate(-285.44 -101.42)"/><path class="cls-83" d="M985.37,505l3.77,1-2.78,3.05Z" transform="translate(-285.44 -101.42)"/><path class="cls-84" d="M285.54,502.28l-.1,9.08,5.09,29.58.33-8.51Z" transform="translate(-285.44 -101.42)"/><path class="cls-85" d="M319.27,474.78,313.05,504l53.55,7.51,3.57-17.09Z" transform="translate(-285.44 -101.42)"/><path class="cls-86" d="M366.6,511.47l60.93-6.82-57.36-10.27Z" transform="translate(-285.44 -101.42)"/><path class="cls-87" d="M319.27,474.78l50.9,19.6,57.36,10.27-11.18-12.93L358.63,476.5Z" transform="translate(-285.44 -101.42)"/><path class="cls-88" d="M451.61,450.83l-5.2,35.8,15.81-10.2Z" transform="translate(-285.44 -101.42)"/><path class="cls-89" d="M446.41,486.62l8.3,9.7,7.51-19.89Z" transform="translate(-285.44 -101.42)"/><path class="cls-90" d="M454.71,496.32l51.7-.11-44.19-19.78Z" transform="translate(-285.44 -101.42)"/><path class="cls-91" d="M451.61,450.83l10.61,25.6,44.19,19.78,28.31-12.1L503,461.64Z" transform="translate(-285.44 -101.42)"/><path class="cls-92" d="M690.34,540.83l-2.08,16.84L745.87,566l2-12.17Z" transform="translate(-285.44 -101.42)"/><path class="cls-93" d="M747.89,553.83l-2,12.17,50-9.77Z" transform="translate(-285.44 -101.42)"/><path class="cls-94" d="M795.82,556.23l-41.94-13.06-47.53-7-16,4.66,57.55,13Z" transform="translate(-285.44 -101.42)"/><path class="cls-95" d="M905.4,510.75l41.34,4.49-3.21-11.81Z" transform="translate(-285.44 -101.42)"/><path class="cls-96" d="M946.74,515.24l39.62-6.14-5.45-22.51-37.38,16.84Z" transform="translate(-285.44 -101.42)"/><path class="cls-97" d="M980.91,486.59l-30.83,1.58-38.3,11.41-6.38,11.17,38.13-7.32Z" transform="translate(-285.44 -101.42)"/><path class="cls-98" d="M694.21,480.31l2.71-6.11,62.55,13.07Z" transform="translate(-285.44 -101.42)"/><path class="cls-99" d="M759.47,487.27l52.42-22.4-15.54,16.8Z" transform="translate(-285.44 -101.42)"/><path class="cls-100" d="M811.89,464.87l6.65,14.75-22.19,2.05Z" transform="translate(-285.44 -101.42)"/><path class="cls-101" d="M696.92,474.2l62.55,13.07,52.42-22.4L781.3,439.74l-67.81,5.78Z" transform="translate(-285.44 -101.42)"/><path class="cls-83" d="M817.58,477.51l2.58,1.25-1.62.86Z" transform="translate(-285.44 -101.42)"/><path class="cls-39" d="M594.85,592.71H581.16l1,2h-2.62l1.36-2.51h-7.67l1.88-3.59L558,588.33s.53,1,1.29,2.55l1.35,2.58c1.06,2.55,2.35,5.17,3.31,7.9.27.68.53,1.4.76,2.08.5,2.34.93,4.28,1.33,6.68,3.57-4.74,4.1-11,5.92-16.19,1.72,3.37,3.9,5.78,5.62,9.15A39.67,39.67,0,0,1,579,595.9c.86,1,.83,2.88,2.15,3.84a16.75,16.75,0,0,1,1.36-4.27,51.87,51.87,0,0,1,5.12,13.93,20.13,20.13,0,0,1,1.76-6.35c.23-.58.53-1.15.79-1.72.56-1.12,1.09-2.23,1.55-3.34,1.33,1.47.83,4.3,3,5.31,0-1.44,1.78-2.37,2-4,.26-.46.53-.93.76-1.4l1.32-2.4h-5.49Z" transform="translate(-285.44 -101.42)"/><path class="cls-39" d="M605.47,606c.4-1.3,2.18-2.23,2.75-4.38l1.09-1.94,1.16-2.12H601.7l1.13,2.15c.89,1.3.85,2.73,1.85,4.1Z" transform="translate(-285.44 -101.42)"/><path class="cls-39" d="M615.2,616.69c2.44-4.13,6-7,8-11.09a18.83,18.83,0,0,0,.83-1.76l1.32-2.41c.33-.57.49-.93.49-.93l-13.69-.18.5,1a19.47,19.47,0,0,1,1.16,2.44,9.89,9.89,0,0,1,.59,1.94,11.55,11.55,0,0,1,0,1.86,25.33,25.33,0,0,0,0,7.87A7.12,7.12,0,0,0,615.2,616.69Z" transform="translate(-285.44 -101.42)"/><path class="cls-39" d="M626.18,602.37l.49,1,1.23,2.4a24,24,0,0,1,2.94,12.74c2.68-3.8,4.5-8.57,7.18-12.52l.39-.76Z" transform="translate(-285.44 -101.42)"/><path class="cls-47" d="M941.28,604.63c4.8-3.84,4.43-10,6.25-15.3H937.41c2.15,4.35,5.62,8.69,4.1,14.15C941.35,604.2,941.28,604.63,941.28,604.63Z" transform="translate(-285.44 -101.42)"/><path class="cls-47" d="M966.45,585.17c-2.11.61-3.87-.36-6.28-.25H948.06l2.45,4.77c.43.79.83,1.58,1.19,2.3l1.32,2.55.57-1.19c.36-.64.82-1.54,1.32-2.4.59-1.58,1.49-2.05,2-3.59,1.72,3.84,3.87,6.75,5.59,10.59,3.57-2.33,3.6-7.18,5-10.77,1.26,3.34,4.34,5.31,4.73,9.16A28.1,28.1,0,0,1,974,585.85l1.32-2.44H965.26Z" transform="translate(-285.44 -101.42)"/><path class="cls-47" d="M998,582.44H990.5l.33-.61-15.75-.21,2.45,4.7.7,1.36c1.88,3.16,3.3,7.18,4.89,10.38.93-1.9,2.25-3.3,3.14-5.21a47.1,47.1,0,0,0,3.31,8.19c3.14-3.81,3.64-9,5.59-13.46.5-1,1-1.84,1.39-2.59C997.48,583.41,998,582.44,998,582.44Z" transform="translate(-285.44 -101.42)"/><path class="cls-44" d="M849.7,607.64c1.15-3.84-1-8.18,1.62-11.34l1.09-2.12.46-.79H840.93l.43.83c.27.54.66,1.25,1.13,2.12a55.72,55.72,0,0,0,6.31,10.23A7.76,7.76,0,0,1,849.7,607.64Z" transform="translate(-285.44 -101.42)"/><path class="cls-44" d="M914.13,589.3l-15.45-.22,2.12-3.87L883.43,585l2.05,3.95h-6.91l2.65-4.81-17.37-.25,1.19,2.3-13.52-.22,6.61,12.64.66,1.26c.6.86.56,1.79,1.46,2.76.46-2.37,2.68-3.59,3.57-6.17a10.9,10.9,0,0,1,2.49,4.19,11.72,11.72,0,0,1,.49,5,18.2,18.2,0,0,0,6.25-5.67,30,30,0,0,1-.5,6.21c4-4.24,4.5-10,5.46-15.87l.36-.82,1.36,2.55c3,5.67,2.94,12.85,7,18.41.37.72.73,1.44,1.13,2.16,1.78-3.81.53-8.12,1.45-12.43a14,14,0,0,0,.73,2.12A22.27,22.27,0,0,0,891.5,604a13.38,13.38,0,0,1,3.87-8.72,13.92,13.92,0,0,0,.9-1.55c.46-.79.82-1.47,1.09-2l.43-.76,1.16,2.3A58.21,58.21,0,0,0,903.38,607c2.25-4.28,5.82-8,8-12.46.27-.47.5-.93.77-1.37Z" transform="translate(-285.44 -101.42)"/><path class="cls-102" d="M838.32,587c-4,0-8-.19-11.87-.19H821l1.55,3.06H811.43s.26.46.59,1.15l1.36,2.58a8,8,0,0,0,2.32,3.59H810l.43-.47h-7.47a2.73,2.73,0,0,1,.36-1.4,2.49,2.49,0,0,1,1-1h-15.9l1.42-2.58-17.37-.22,5,9.63H775c-4.7-.36-8.7,2-13.53,1.43.9-.93.9-2.84,1.79-3.8a50.5,50.5,0,0,0-8.5-.61h-8.67l5,9.73c.26.5.53,1,.76,1.5,1.13,1.3,1.52,3.59,2.85,5.17a20.33,20.33,0,0,0,5.82-10c2.11,7.68,7.8,13,9.92,20.72,3.14-6.68,1.06-15.3,5.65-21.36l1.39-2.52,3.31,6.68,6.62-12.1,3.3,6,.7,1.4a76.39,76.39,0,0,0,4.33,8.8c.93-1.4,2.25-1.87,2.25-3.77a15.88,15.88,0,0,1,2.83,6.1,16.5,16.5,0,0,1,.11,6.82,10,10,0,0,0,1.76-1.68,12.93,12.93,0,0,0,1.29-2,35.4,35.4,0,0,0,2.87-13.93,149.76,149.76,0,0,1,6,15.37,18.8,18.8,0,0,0,3.81-6.28c.23-.54.43-1.12.66-1.69.5-2,1.39-3,1.85-4.85a5.65,5.65,0,0,0,1.26,3.84c2.25-3.77,1.42-8.58,4.1-11.88a20.55,20.55,0,0,0,3.31,9.12,69.9,69.9,0,0,1,9.92-19.14A7.58,7.58,0,0,1,838.32,587Z" transform="translate(-285.44 -101.42)"/><path class="cls-103" d="M738.14,603.77H726l1.39-2.52,1.39-2.54H701.82l2.64,5.13h-11l2.11-3.88h-9.62l1-1.72L669.5,598l2.32,4.48H661.9l2,3.81c.2.43.46.9.7,1.4,2.51,6,3.3,12.71,8.56,16.62,0-4.81-.76-10.09,2.35-14.36a34.19,34.19,0,0,0,3.9,6.75c.47-2.41,1.82-3.8,2.25-6.21.17-.47.33-.93.47-1.4s.33-1,.46-1.44c1.35,2.7,2.88,5.43,4,8.37.24.57.43,1.18.63,1.79a6.32,6.32,0,0,0,1.36,3.81,3.9,3.9,0,0,1,.43-2.23,18.11,18.11,0,0,0,.46-2.33,27,27,0,0,1,2-9.33l.72-1.37.7-1.26,1.26,2.41,1.28,2.48A41.73,41.73,0,0,1,703,628.5c1.82-4.77,0-10,2-15,.37-.68.76-1.36,1.16-2a18.56,18.56,0,0,0,1.09-2.08,26.85,26.85,0,0,0,1.49,3.16l.83,1.47c.69,1.65,2,3.09,2,5,3.11-3.3,2.72-8.07,4.1-11.88a46.49,46.49,0,0,1,2.42,4.38,16.21,16.21,0,0,1,.63,1.55c.39.82.36,2.26.79,3.23a39.2,39.2,0,0,1,4.07-7.62c.76,4.53,1.75,9,2.94,13.43a23.72,23.72,0,0,1,9.92-14.36,16.55,16.55,0,0,0,1.39-2.19Z" transform="translate(-285.44 -101.42)"/><path class="cls-104" d="M351.06,577.16l-19.32-.25h-1.49a31.23,31.23,0,0,1-3.87,0c.47-.46.47-.93.9-1.43-4.83,0-10.12,0-14.75-.33h-2.72l1.36,2.59c2.38,5.28,8.07,8.22,9.33,14,4-3.3,4.49-9,5.45-13.82,3,5.31,6.62,10.16,7.48,16.3l.79,2.37a23.37,23.37,0,0,0,5.92,10.23c1.86-6.68.6-13.86,5.43-19.64.46-.79.79-1.44,1.06-1.9l.39-.72.6,1.18c.36.69.86,1.62,1.32,2.55s2,1.94,1.95,3.59l.5-.89c1.52-2.84,6.15-11.24,6.15-11.24H349.6Z" transform="translate(-285.44 -101.42)"/><path class="cls-105" d="M389.82,580.36a30.2,30.2,0,0,1-12.8-.29c.43.47.43,1,.86,1.44a28.33,28.33,0,0,1-7.8-.33h-2.55l1.16,2.23h-2.58l.49-.93c.33-.54.73-1.3,1.13-2l1.62-3-13-.18,2.38,4.63.79,1.54a21.46,21.46,0,0,0,4.17,7.18c0-.46.47-1.43.47-1.9a24.79,24.79,0,0,1,2.94,11.52,16.32,16.32,0,0,0,2.78-5.52c.2-.65.39-1.33.56-2a7.14,7.14,0,0,0,1.19-3.91,27.77,27.77,0,0,1,2.58,5.28c1.39-3.34,5.79-3.6,6.28-8a15.6,15.6,0,0,1,4.21,6.26,16.78,16.78,0,0,1,.92,7.67c5.33-4.7,2.35-12.38,3.8-18.45A10.05,10.05,0,0,1,389.82,580.36Z" transform="translate(-285.44 -101.42)"/><path class="cls-36" d="M428.26,619.81c2.05,2.59,2.44,6,4.39,8.58l1.26,2.19c2.51,4.45,5.09,9,2.71,14.36,6.62-3.26,5.46-12.35,7.91-18.56.46-.93.92-1.79,1.35-2.58l2.22-4-15.64-.22h-2.22C429,619.67,428.26,619.81,428.26,619.81Z" transform="translate(-285.44 -101.42)"/><path class="cls-36" d="M432.62,608.51H426l2.11-3.81-14.19-.22,5.63-10.23L402.19,594l3.31,6.68.79,1.54c1.69,2.77,2.55,6.14,4.27,9-.43-1.43,1.36-2.37,1.36-3.8,2.58,6.28,7.37,11.13,7.27,18.27a4.45,4.45,0,0,0,1.26-2.12,5.16,5.16,0,0,0,.56-2.15c2.19,1.94.37,5.74,2.55,7.68,2.71-4.27,2.78-9.51,5.42-13.89l.8-1.47Z" transform="translate(-285.44 -101.42)"/><path class="cls-38" d="M487.89,618l-12.7-.18,1.92,3.59H466.23L470.1,629c.64,1.16,1.24,2.36,1.78,3.59.56,1.76,1.42,3.19,1.85,4.66a84.61,84.61,0,0,1,5.86-10.76,21.89,21.89,0,0,1,1.49,3.8,26.82,26.82,0,0,0,1.52,3.91c.49-5.74,5.39-8.54,6.61-13.32.43,1.44,1.75,2.45,1.72,3.88-.53,8.58-.2,18.63,7.68,23-7.81-9.66.23-21,5.42-29.3.4-.78.76-1.57,1.19-2.33s.83-1.47,1.26-2.15l2-3.59-24.84-.36Z" transform="translate(-285.44 -101.42)"/><path class="cls-38" d="M519.61,620.35a63.83,63.83,0,0,1,8.3-17.16,37.33,37.33,0,0,1-4.23-.21H511.87l2,3.91a49,49,0,0,1,2.44,5.89c.37,1,.76,2,1.16,2.94a30.51,30.51,0,0,0,1.39,3C519.28,619.67,519.61,620.35,519.61,620.35Z" transform="translate(-285.44 -101.42)"/><path class="cls-38" d="M546.1,594.76h-5.75c0-.51.43-.47.43-1H525l2,3.87c.56,1.15,1.22,2.41,1.85,3.59q2.34,4.85,5.13,9.41a51.8,51.8,0,0,1,5.42-13.79,12.57,12.57,0,0,0,3.31,6.25,13.66,13.66,0,0,1,2.58-6.93Z" transform="translate(-285.44 -101.42)"/><path class="cls-106" d="M817.58,522.31v-13h11v7.36Z" transform="translate(-285.44 -101.42)"/><path class="cls-107" d="M817.58,509.35l4.76-39.78,9.23,1.69-3,38.09Z" transform="translate(-285.44 -101.42)"/><path class="cls-108" d="M822.34,469.57l13.2-44.77,7.74,3.2-11.71,43.26Z" transform="translate(-285.44 -101.42)"/><path class="cls-109" d="M835.54,424.8l7.74,3.2,8.47-23.59-6.42-2.94Z" transform="translate(-285.44 -101.42)"/><path class="cls-110" d="M838.52,417.73l7.24-11,4.5,1.76,1.49-4.13-6.42-2.94Z" transform="translate(-285.44 -101.42)"/><path class="cls-111" d="M821.65,440.31s-7.41-25.81-7.64-25.56a23.32,23.32,0,0,0,3.8-.61l8,25.13Z" transform="translate(-285.44 -101.42)"/><path class="cls-112" d="M816.36,422.18l4.49,1.55-3-9.41-3.87.43Z" transform="translate(-285.44 -101.42)"/><path class="cls-113" d="M842.12,432.24,848,423v-3.66l-2.28,1.8L843.28,428Z" transform="translate(-285.44 -101.42)"/><path class="cls-114" d="M848,423l.73.76-8.43,15.15,1.78-6.64Z" transform="translate(-285.44 -101.42)"/><path class="cls-115" d="M848,423l15.68-12.49-1.29-3.16-14.39,12Z" transform="translate(-285.44 -101.42)"/><path class="cls-116" d="M848.77,423.73l15-12.24v-1L848,423Z" transform="translate(-285.44 -101.42)"/><path class="cls-117" d="M841.86,333.51,863,339.9l-6.62-34Z" transform="translate(-285.44 -101.42)"/><path class="cls-118" d="M841.86,333.51l9.89-27.64h4.66Z" transform="translate(-285.44 -101.42)"/><path class="cls-119" d="M856.41,305.87l6.62,34,25.13-25.06Z" transform="translate(-285.44 -101.42)"/><path class="cls-120" d="M888.16,314.84l-8.37-20.1-23.38,11.13Z" transform="translate(-285.44 -101.42)"/><path class="cls-121" d="M856.41,305.87h-4.66l28-11.13Z" transform="translate(-285.44 -101.42)"/><path class="cls-122" d="M879.79,294.74l8.37,20.1,12.8,3.84Z" transform="translate(-285.44 -101.42)"/><path class="cls-123" d="M892.26,347.26l-4.1-32.42L863,339.9Z" transform="translate(-285.44 -101.42)"/><path class="cls-124" d="M841.86,333.51l15.44,23.41h5.36l.37-17Z" transform="translate(-285.44 -101.42)"/><path class="cls-124" d="M862.66,356.92l29.6-9.66L863,339.9Z" transform="translate(-285.44 -101.42)"/><path class="cls-125" d="M867.29,355.41l3.31,3.34,9.19-16.52-4.06-2.33Z" transform="translate(-285.44 -101.42)"/><path class="cls-126" d="M864.55,346.36l-.14,7.83,3.31.14.27-8.79Z" transform="translate(-285.44 -101.42)"/><path class="cls-127" d="M864.51,347.44l3.34,2.41.14-4.31-3.44.82Z" transform="translate(-285.44 -101.42)"/><path class="cls-128" d="M867.62,328l6.59,18.13,10.28-3.81Z" transform="translate(-285.44 -101.42)"/><path class="cls-129" d="M884.49,342.34l2.42-24.66L867.62,328Z" transform="translate(-285.44 -101.42)"/><path class="cls-130" d="M886.91,317.68l-10.85-11L867.62,328Z" transform="translate(-285.44 -101.42)"/><path class="cls-131" d="M884.49,342.34,904.27,330l-17.36-12.31Z" transform="translate(-285.44 -101.42)"/><path class="cls-132" d="M874.21,346.15l21.69,1.54-11.41-5.35Z" transform="translate(-285.44 -101.42)"/><path class="cls-133" d="M884.49,342.34l11.41,5.35,8.37-17.7Z" transform="translate(-285.44 -101.42)"/><path class="cls-134" d="M886.91,317.68,904.27,330l-5.69-22Z" transform="translate(-285.44 -101.42)"/><path class="cls-135" d="M876.06,306.69l10.85,11L898.58,308Z" transform="translate(-285.44 -101.42)"/><path class="cls-136" d="M815.27,334.12l11.18,21.36,21.29-17.77-5.32-3.34Z" transform="translate(-285.44 -101.42)"/><path class="cls-137" d="M847.74,337.71l6.26,7.07,2.41,8.73-13.53,10.84-16.43-8.87Z" transform="translate(-285.44 -101.42)"/><path class="cls-138" d="M826.45,355.48l-25.61,15.73,14.43-37.09Z" transform="translate(-285.44 -101.42)"/><path class="cls-139" d="M826.45,355.48l1.09,28.9-24.35-10-2.35-3.19Z" transform="translate(-285.44 -101.42)"/><path class="cls-140" d="M827.54,384.38l15.34-20-16.43-8.87Z" transform="translate(-285.44 -101.42)"/><path class="cls-141" d="M860.38,348.84,835.31,367l7.57,1.68Z" transform="translate(-285.44 -101.42)"/><path class="cls-142" d="M842.88,368.69h32.28l-14.78-19.85Z" transform="translate(-285.44 -101.42)"/><path class="cls-143" d="M875.16,368.69l10.69-1.61-25.47-18.24Z" transform="translate(-285.44 -101.42)"/><path class="cls-144" d="M835.31,367l-1.39,21,5.75,9.73,3.21-29.08Z" transform="translate(-285.44 -101.42)"/><path class="cls-145" d="M842.88,368.69,858,399.21l-18.36-1.44Z" transform="translate(-285.44 -101.42)"/><path class="cls-146" d="M842.88,368.69,858,399.21l17.13-30.52Z" transform="translate(-285.44 -101.42)"/><path class="cls-147" d="M858,399.21l23.68-2.73-6.55-27.79Z" transform="translate(-285.44 -101.42)"/><path class="cls-148" d="M885.85,367.08l-4.14,29.4-6.55-27.79Z" transform="translate(-285.44 -101.42)"/><path class="cls-149" d="M839.67,397.77l-1.88,2.77L858,414.14V399.21Z" transform="translate(-285.44 -101.42)"/><path class="cls-150" d="M858,399.21v14.93l11.18-7.1L861,398.89Z" transform="translate(-285.44 -101.42)"/><path class="cls-151" d="M855.65,391l23.71-22.26-4.2,35.9Z" transform="translate(-285.44 -101.42)"/><path class="cls-152" d="M875.16,404.59l32.32-14.82-28.12-21.08Z" transform="translate(-285.44 -101.42)"/><path class="cls-153" d="M907.48,389.77l-.73-22.15-27.39,1.07Z" transform="translate(-285.44 -101.42)"/><path class="cls-154" d="M907.48,389.77,918.76,401l-12-33.38Z" transform="translate(-285.44 -101.42)"/><path class="cls-155" d="M907.48,389.77,900,424.2,918.76,401Z" transform="translate(-285.44 -101.42)"/><path class="cls-155" d="M907.48,389.77l-32.32,14.82L900,424.2Z" transform="translate(-285.44 -101.42)"/><path class="cls-156" d="M875.16,404.59,868.28,424l31.69.22Z" transform="translate(-285.44 -101.42)"/><path class="cls-157" d="M875.16,404.59,868.28,424l-12.63-33Z" transform="translate(-285.44 -101.42)"/><path class="cls-158" d="M836.7,371.21l4.23,27.35-18.29-19.35Z" transform="translate(-285.44 -101.42)"/><path class="cls-159" d="M822.64,379.21l-14.39-14,28.45,6Z" transform="translate(-285.44 -101.42)"/><path class="cls-160" d="M808.25,365.17l-12.53,23.38,26.92-9.34Z" transform="translate(-285.44 -101.42)"/><path class="cls-161" d="M795.72,388.55l-2.48-2.44,15-20.94Z" transform="translate(-285.44 -101.42)"/><path class="cls-162" d="M795.72,388.55,816,409.62l6.61-30.41Z" transform="translate(-285.44 -101.42)"/><path class="cls-163" d="M795.72,388.55l2.31,25.2,18-4.13Z" transform="translate(-285.44 -101.42)"/><path class="cls-164" d="M793.24,386.11l2.48,2.44,2.31,25.2Z" transform="translate(-285.44 -101.42)"/><path class="cls-165" d="M822.64,379.21,816,409.62l24.9-11.06Z" transform="translate(-285.44 -101.42)"/><path class="cls-166" d="M816,409.62l8.86,9.69,16-20.75Z" transform="translate(-285.44 -101.42)"/><path class="cls-167" d="M798,413.75l26.86,5.56L816,409.62Z" transform="translate(-285.44 -101.42)"/><path class="cls-168" d="M829,461.42l-4.47.65-2.91-21.76,4.13-.89Z" transform="translate(-285.44 -101.42)"/><path class="cls-169" d="M879.79,530.85l14.82-3.19,29.77.75v-.89l-26.1-.72,12.57-2.62,13.23,2.22L951.27,533l3.64,1.87,4.5-1,14.75-1.8,4.2-3.59.66-4.34-26.46-2.44,5.36-3.59-3.77-1.33,7.57-1.33,5.52,1.65,20.87-1.65,1.56-4.13-6.62-1.68L955.34,514l3.31,1.11-5.33,1.25h-4.73l-3.11-.75-.26-.54-39.69-4.34,2.51-4.42-18.12.51-10.13,6.31,6.62,2.16-18.49,2.08-4.66,4.16,11.57,6.61,3.31-2.26,15.22-.61-17.1,3.87Z" transform="translate(-285.44 -101.42)"/><path class="cls-170" d="M905.4,510.75l28.8-5.53,1.26,5.82,6.81,2.47v-7l-2.81-2.29,4.07-.79,1.62,5.92.07,5.74Z" transform="translate(-285.44 -101.42)"/><path class="cls-171" d="M945.15,509.35l.07-2.08L955.6,514l27.45-4.42-1.65-2.55.86-6.85-7.41-10.88-31.32,14.11Z" transform="translate(-285.44 -101.42)"/><path class="cls-172" d="M905.4,510.75l28.8-5.53.5-.93,4.76-.07,4.07-.79,31.32-14.11-9.06.68L944,495.1l-12.37,6.57-8.5-.33-15.25,5Z" transform="translate(-285.44 -101.42)"/><path class="cls-173" d="M532.61,519l-1.72-22.15,7.57-2.05,2.15,16Z" transform="translate(-285.44 -101.42)"/><path class="cls-174" d="M538.46,494.81l-6.28-36.33L525.36,462l5.53,34.86Z" transform="translate(-285.44 -101.42)"/><path class="cls-175" d="M540.61,510.79l1.89-.51-2.29-15.15-1.75-.32Z" transform="translate(-285.44 -101.42)"/><path class="cls-176" d="M538.46,494.81l1.75.32-7-36.18-1.05-.47Z" transform="translate(-285.44 -101.42)"/><path class="cls-177" d="M538.26,484.94l6.82-21.36-2.58-6.11-6.45,16Z" transform="translate(-285.44 -101.42)"/><path class="cls-178" d="M508,397.52l2.28,20.82,7.87-19.56Z" transform="translate(-285.44 -101.42)"/><path class="cls-179" d="M508,397.52l10.15,1.26,7.71-13.43Z" transform="translate(-285.44 -101.42)"/><path class="cls-180" d="M518.12,398.78l21.76-.36-14-13.07Z" transform="translate(-285.44 -101.42)"/><path class="cls-181" d="M539.88,398.42l2-2.12-16.07-10.95Z" transform="translate(-285.44 -101.42)"/><path class="cls-182" d="M518.12,398.78l-7.87,19.56,20,.79Z" transform="translate(-285.44 -101.42)"/><path class="cls-183" d="M530.29,419.13l9.59-20.71-21.76.36Z" transform="translate(-285.44 -101.42)"/><path class="cls-184" d="M530.29,419.13l14.19-1.79-4.6-18.92Z" transform="translate(-285.44 -101.42)"/><path class="cls-185" d="M530.29,419.13,529,424.05l2.78,2.26,12.7-9Z" transform="translate(-285.44 -101.42)"/><path class="cls-186" d="M529,424.05l-13-1.76-5.79-4,20,.79Z" transform="translate(-285.44 -101.42)"/><path class="cls-187" d="M539.88,398.42l4.6,18.92-2.58-21Z" transform="translate(-285.44 -101.42)"/><path class="cls-188" d="M502.67,406.82l-.36,13.28,8.8,2.48Z" transform="translate(-285.44 -101.42)"/><path class="cls-189" d="M502.31,420.1l-15.21-10,15.57-3.27Z" transform="translate(-285.44 -101.42)"/><path class="cls-190" d="M487.1,410.09l-.43-2.91,16-.36Z" transform="translate(-285.44 -101.42)"/><path class="cls-191" d="M486.67,407.18l-8.67,14,8.67,8.08.43-19.2Z" transform="translate(-285.44 -101.42)"/><path class="cls-192" d="M487.1,410.09l-.43,19.2,15.64-9.19Z" transform="translate(-285.44 -101.42)"/><path class="cls-193" d="M478,421.21l8.67,16.05v-8Z" transform="translate(-285.44 -101.42)"/><path class="cls-194" d="M486.67,437.26l15.64-.43-15.64-7.54Z" transform="translate(-285.44 -101.42)"/><path class="cls-195" d="M486.67,429.29l15.64,7.54V420.1Z" transform="translate(-285.44 -101.42)"/><path class="cls-196" d="M502.31,420.1v16.73l8.8-14.25Z" transform="translate(-285.44 -101.42)"/><path class="cls-197" d="M543,420.5l15.42,8,11.37-9.62Z" transform="translate(-285.44 -101.42)"/><path class="cls-198" d="M558.41,428.47,581,442.11l-11.18-23.26Z" transform="translate(-285.44 -101.42)"/><path class="cls-198" d="M558.41,428.47l-23.26,16.76L543,420.5Z" transform="translate(-285.44 -101.42)"/><path class="cls-199" d="M535.15,445.23,560.52,459l-2.11-30.48Z" transform="translate(-285.44 -101.42)"/><path class="cls-200" d="M560.52,459,581,442.11l-22.55-13.64Z" transform="translate(-285.44 -101.42)"/><path class="cls-201" d="M581,442.11l-7.7,24.3L560.52,459Z" transform="translate(-285.44 -101.42)"/><path class="cls-202" d="M573.26,466.41l-27.59,1.91L560.52,459Z" transform="translate(-285.44 -101.42)"/><path class="cls-203" d="M545.67,468.32l-10.52-23.09L560.52,459Z" transform="translate(-285.44 -101.42)"/><path class="cls-204" d="M546,422.08l5.72-2.12-8.73.54Z" transform="translate(-285.44 -101.42)"/><path class="cls-205" d="M546,422.08l-5.59,9.51,3.05,7.65-8.31,6L543,420.5Z" transform="translate(-285.44 -101.42)"/><path class="cls-206" d="M543.46,439.24l3.9,5.63-1,6.43-11.22-6.07Z" transform="translate(-285.44 -101.42)"/><path class="cls-207" d="M546.37,451.3,552.45,464l-6.78,4.28-10.52-23.09Z" transform="translate(-285.44 -101.42)"/><path class="cls-208" d="M556.62,461.42l-1-5.09,4.86,2.62Z" transform="translate(-285.44 -101.42)"/><path class="cls-209" d="M555.66,456.33l2.05-1.58,2.65,2,.16,2.19Z" transform="translate(-285.44 -101.42)"/><path class="cls-210" d="M560.36,456.76l1.65,1L560.52,459Z" transform="translate(-285.44 -101.42)"/><path class="cls-211" d="M504.49,454.24l8.3-21.18-11.64-2.3Z" transform="translate(-285.44 -101.42)"/><path class="cls-212" d="M512.79,433.06l8.47-15.72-20.11,13.42Z" transform="translate(-285.44 -101.42)"/><path class="cls-213" d="M512.79,433.06l24.08-.54-15.61-15.18Z" transform="translate(-285.44 -101.42)"/><path class="cls-214" d="M536.87,432.52l2.35-2.58-18-12.6Z" transform="translate(-285.44 -101.42)"/><path class="cls-215" d="M504.49,454.24l21.34,1.87-13-23.05Z" transform="translate(-285.44 -101.42)"/><path class="cls-216" d="M525.83,456.11l11-23.59-24.08.54Z" transform="translate(-285.44 -101.42)"/><path class="cls-217" d="M525.83,456.11l17.43-2.76-6.39-20.83Z" transform="translate(-285.44 -101.42)"/><path class="cls-218" d="M536.87,432.52l6.39,20.83-4-23.41Z" transform="translate(-285.44 -101.42)"/><path class="cls-219" d="M504.49,454.24l17.7,12.46,3.64-10.59Z" transform="translate(-285.44 -101.42)"/><path class="cls-220" d="M522.19,466.7l21.07-13.35-17.43,2.76Z" transform="translate(-285.44 -101.42)"/><path class="cls-221" d="M442.21,520.62l-16.6-37.23-6.95.18,15.85,42.11Z" transform="translate(-285.44 -101.42)"/><path class="cls-221" d="M418.66,483.57l-3-38.88,5.52,2.19,4.4,36.51Z" transform="translate(-285.44 -101.42)"/><path class="cls-222" d="M421.21,446.88l1.26-.57,4.89,36-1.75,1.11Z" transform="translate(-285.44 -101.42)"/><path class="cls-223" d="M425.61,483.39l16.6,37.23,6.42,3.7-21.27-42Z" transform="translate(-285.44 -101.42)"/><path class="cls-224" d="M415.69,444.69l-1.09-18.23,4.46-3.13,2.15,23.55-5.79-2.19Z" transform="translate(-285.44 -101.42)"/><path class="cls-225" d="M421.21,446.88l1.26-.57-2.32-23h-1.09Z" transform="translate(-285.44 -101.42)"/><path class="cls-226" d="M421.08,432.31l2.38-11.2,3.9-2.26-5.19,24.23Z" transform="translate(-285.44 -101.42)"/><path class="cls-226" d="M418,474.42l-11.28-18.31-1.09-4.24,1.12-1.83,15.38,23.77Z" transform="translate(-285.44 -101.42)"/><path class="cls-227" d="M422.1,473.81l-4.93-9.69-9.35-14.58-1.1.5Z" transform="translate(-285.44 -101.42)"/><path class="cls-228" d="M405.6,451.87l-1.92-4,3,2.15Z" transform="translate(-285.44 -101.42)"/><path class="cls-229" d="M404.9,453.35l-8.4-6.4,1.76-2.83,5.42,3.77,1.92,4Z" transform="translate(-285.44 -101.42)"/><path class="cls-230" d="M406.72,450l-3-2.15-5.42-3.77.39-1.08,9.23,6.5Z" transform="translate(-285.44 -101.42)"/><path class="cls-231" d="M373.32,455.57l19.31.68-5.06-9.94Z" transform="translate(-285.44 -101.42)"/><path class="cls-232" d="M369.55,436l3.77,19.53,14.25-9.26Z" transform="translate(-285.44 -101.42)"/><path class="cls-233" d="M369.55,436l-5.46,4.24,9.23,15.29Z" transform="translate(-285.44 -101.42)"/><path class="cls-234" d="M369.55,436l18,10.27-.46-21.72Z" transform="translate(-285.44 -101.42)"/><path class="cls-235" d="M364.09,440.28l5.46-4.24,2.68-14.5-8.31,18.74Z" transform="translate(-285.44 -101.42)"/><path class="cls-236" d="M387.57,446.31l5.06,9.94,8.4-18Z" transform="translate(-285.44 -101.42)"/><path class="cls-237" d="M387.11,424.59l.46,21.72L401,438.23Z" transform="translate(-285.44 -101.42)"/><path class="cls-235" d="M372.23,421.54,369.55,436l17.56-11.45Z" transform="translate(-285.44 -101.42)"/><path class="cls-238" d="M387.11,424.59,401,438.23l-9.16-15.44Z" transform="translate(-285.44 -101.42)"/><path class="cls-239" d="M391.87,422.8l-19.64-1.26,14.88,3Z" transform="translate(-285.44 -101.42)"/><path class="cls-240" d="M388.57,424l9.22,8.72-5.92-9.95Z" transform="translate(-285.44 -101.42)"/><path class="cls-241" d="M391.87,422.79l-6.64.26,3.34,1Z" transform="translate(-285.44 -101.42)"/><path class="cls-242" d="M441.35,409.33,457,398.74,439.6,399Z" transform="translate(-285.44 -101.42)"/><path class="cls-243" d="M451,377.52,439.6,399l17.36-.22Z" transform="translate(-285.44 -101.42)"/><path class="cls-244" d="M451,377.52l6,21.22-2.54-22.4Z" transform="translate(-285.44 -101.42)"/><path class="cls-245" d="M451,377.52l-13.47-13.06,16.94,11.88Z" transform="translate(-285.44 -101.42)"/><path class="cls-44" d="M451,377.52,439.6,399l-3.9-20.82Z" transform="translate(-285.44 -101.42)"/><path class="cls-246" d="M451,377.52l-15.25.62-.86-11,2.64-2.69Z" transform="translate(-285.44 -101.42)"/><path class="cls-247" d="M445.65,387.54,446,379l-.76-1.26-9.49.4L439.6,399Z" transform="translate(-285.44 -101.42)"/><path class="cls-248" d="M445.19,377.74l-8.43-12.57-1.92,2,.86,11Z" transform="translate(-285.44 -101.42)"/><path class="cls-249" d="M384.5,386.68l-14.65-20,6.61-8.94Z" transform="translate(-285.44 -101.42)"/><path class="cls-250" d="M376.46,357.71l8,29,22.06-13.61Z" transform="translate(-285.44 -101.42)"/><path class="cls-189" d="M376.46,357.71l30.1,15.36-3.57-35Z" transform="translate(-285.44 -101.42)"/><path class="cls-251" d="M403,338.11l3.57,35,21-15.9Z" transform="translate(-285.44 -101.42)"/><path class="cls-252" d="M403,338.11l24.57,19.06-15.88-22.26Z" transform="translate(-285.44 -101.42)"/><path class="cls-253" d="M369.85,366.65l10.64-31.74-4,22.8Z" transform="translate(-285.44 -101.42)"/><path class="cls-254" d="M380.49,334.91l-4,22.8L403,338.11Z" transform="translate(-285.44 -101.42)"/><path class="cls-255" d="M380.36,334.91s22.46,2.8,22.49,3.2a73.77,73.77,0,0,0,8.7-3.2Z" transform="translate(-285.44 -101.42)"/><path class="cls-256" d="M382.05,419.67,410,429.29l-27.91-29.36Z" transform="translate(-285.44 -101.42)"/><path class="cls-257" d="M410,429.29l10.82-35.36-38.73,6Z" transform="translate(-285.44 -101.42)"/><path class="cls-258" d="M420.78,393.93,410,429.29l32-18.88Z" transform="translate(-285.44 -101.42)"/><path class="cls-259" d="M382.05,399.93l-6.88-20.75,6.88,40.49Z" transform="translate(-285.44 -101.42)"/><path class="cls-260" d="M382.05,399.93l38.73-6-22.42-31.59Z" transform="translate(-285.44 -101.42)"/><path class="cls-179" d="M382.05,399.93l-6.88-20.75,23.19-16.84Z" transform="translate(-285.44 -101.42)"/><path class="cls-179" d="M398.36,362.34l22.42,31.59,14.92-25.45Z" transform="translate(-285.44 -101.42)"/><path class="cls-261" d="M427.66,382.23l-9.1-16.55,17.14,2.8Z" transform="translate(-285.44 -101.42)"/><path class="cls-262" d="M435.7,368.48l-14.92,25.45L442,410.41Z" transform="translate(-285.44 -101.42)"/><path class="cls-263" d="M427.23,339.51l11.41,17.66-.73-10Z" transform="translate(-285.44 -101.42)"/><path class="cls-264" d="M438.64,357.17l17.5-2.48-18.23-7.54Z" transform="translate(-285.44 -101.42)"/><path class="cls-265" d="M437.91,347.15l18.23,7.54-1-20.46Z" transform="translate(-285.44 -101.42)"/><path class="cls-266" d="M437.91,347.15l-1.32-23.62-9.36,16Z" transform="translate(-285.44 -101.42)"/><path class="cls-267" d="M437.91,347.15l17.23-12.92-18.55-10.7Z" transform="translate(-285.44 -101.42)"/><path class="cls-268" d="M436.59,323.53l18.55,10.7-.79-14.83Z" transform="translate(-285.44 -101.42)"/><path class="cls-269" d="M455.14,334.23l11,3.34L454.35,319.4Z" transform="translate(-285.44 -101.42)"/><path class="cls-270" d="M455.14,334.23l1,20.46,10-17.12Z" transform="translate(-285.44 -101.42)"/><path class="cls-271" d="M425.91,342.16l-13.3,9,6.81.28Z" transform="translate(-285.44 -101.42)"/><path class="cls-272" d="M412.61,351.14l1.19,15.29,5.62-15Z" transform="translate(-285.44 -101.42)"/><path class="cls-273" d="M419.42,351.42l16.54.15-10-9.41Z" transform="translate(-285.44 -101.42)"/><path class="cls-274" d="M413.8,366.43l14.52.5-8.9-15.5Z" transform="translate(-285.44 -101.42)"/><path class="cls-275" d="M428.32,366.93,436,351.57l-16.54-.14Z" transform="translate(-285.44 -101.42)"/><path class="cls-276" d="M436,351.57l3-.79-13-8.62Z" transform="translate(-285.44 -101.42)"/><path class="cls-277" d="M436,351.57l4,15.08-1.06-15.87Z" transform="translate(-285.44 -101.42)"/><path class="cls-278" d="M436,351.57l-7.64,15.36,11.68-.28Z" transform="translate(-285.44 -101.42)"/><path class="cls-279" d="M413.8,366.43l13.76,9.3.76-8.8Z" transform="translate(-285.44 -101.42)"/><path class="cls-280" d="M427.56,375.73,440,366.65l-11.68.28Z" transform="translate(-285.44 -101.42)"/><path class="cls-281" d="M405.6,451.87l-.7,1.48,1.72,2.58Z" transform="translate(-285.44 -101.42)"/><path class="cls-282" d="M509.59,518.54v2.33L490,526.54l-22,.33-11.55,3.59L461,534.3h11.61l4.5-1.72h1.65l-3.93,3.77,1.88.89,23.15-6,5.86,1.4,15-1.15,11.41-16.55v-1.54Zm-26,14.83,2.12-2.52,2.48-.46,1.95-.86,5.23,1.22Z" transform="translate(-285.44 -101.42)"/><path class="cls-283" d="M577.36,519.51l7.5,1.11,22.5-1.61,5.62-3.59-5.56-1.51,26.46-4.42,2.88-4.66s-12.63-.72-12.57-.9,0-2.77,0-2.77l-17.92-.89-20.64,3.37-.7,3.16-9,.36,7-3.23-7-1.37-11.21.61,10.12,13.14,9.17-2.15,8.63-1.15,6.61,1-15.18,1.33Z" transform="translate(-285.44 -101.42)"/><path class="cls-284" d="M370.74,515l-1.26,12.57,7.87,1.83Z" transform="translate(-285.44 -101.42)"/><path class="cls-285" d="M370.74,515l6.61,14.4,10.29.72,7.61-14.4Z" transform="translate(-285.44 -101.42)"/><path class="cls-286" d="M395.25,515.7l-7.61,14.4L403,528.34Z" transform="translate(-285.44 -101.42)"/><path class="cls-287" d="M395.25,515.7l7.7,12.64,7.25-2.08,2.05-14.5Z" transform="translate(-285.44 -101.42)"/><path class="cls-288" d="M412.25,511.76l-.83,12.38-1.22,2.12Z" transform="translate(-285.44 -101.42)"/><path class="cls-289" d="M395.25,515.7l-5.39-18.34,22.39,14.4Z" transform="translate(-285.44 -101.42)"/><path class="cls-290" d="M389.86,497.36l-16.25,12.92L370.74,515l24.51.71Z" transform="translate(-285.44 -101.42)"/><path class="cls-291" d="M403,528.34l7.25-2.08s1.22-2,1.22-2.12.26-3.84.26-3.84l10.89,3.05-11,3.3Z" transform="translate(-285.44 -101.42)"/><path class="cls-292" d="M456.57,503.75l.86,10.41,1.22.5,3.24-8.94Z" transform="translate(-285.44 -101.42)"/><path class="cls-293" d="M461.89,505.72l15.68.22-4.83,9.19-14.09-.47Z" transform="translate(-285.44 -101.42)"/><path class="cls-294" d="M477.57,505.94l-4.83,9.19,8.57-3.41Z" transform="translate(-285.44 -101.42)"/><path class="cls-295" d="M477.57,505.94l3.74,5.78.1-8.76Z" transform="translate(-285.44 -101.42)"/><path class="cls-296" d="M456.57,503.75l5.32,2,6.88-10.37Z" transform="translate(-285.44 -101.42)"/><path class="cls-297" d="M461.89,505.72l15.68.22-8.8-10.59Z" transform="translate(-285.44 -101.42)"/><path class="cls-298" d="M468.77,495.35l8.8,10.59,3.84-3Z" transform="translate(-285.44 -101.42)"/><path class="cls-299" d="M481.34,510.28l6.88.25-3.47,2.77-12,1.83,8.57-3.41Z" transform="translate(-285.44 -101.42)"/><path class="cls-300" d="M421.57,533.69,422.63,558,430,538.1Z" transform="translate(-285.44 -101.42)"/><path class="cls-301" d="M421.57,533.69,430,538.1l11.61-18.2Z" transform="translate(-285.44 -101.42)"/><path class="cls-302" d="M430,538.1l25.9-1.25-11.35,23.33L422.63,558Z" transform="translate(-285.44 -101.42)"/><path class="cls-303" d="M455.91,536.85l-11.35,23.33,19.12-3.62Z" transform="translate(-285.44 -101.42)"/><path class="cls-304" d="M441.62,519.9l14.29,17L430,538.1Z" transform="translate(-285.44 -101.42)"/><path class="cls-305" d="M441.62,519.9l14.29,17,6.38-5Z" transform="translate(-285.44 -101.42)"/><path class="cls-306" d="M462.29,531.86l1.39,24.7-7.77-19.71Z" transform="translate(-285.44 -101.42)"/><path class="cls-307" d="M467,556.63l-3.81-8.51-.26-4.84,11.41,1.07Z" transform="translate(-285.44 -101.42)"/><path class="cls-308" d="M467,556.63l-3.41-1.94-.4-6.57Z" transform="translate(-285.44 -101.42)"/><path class="cls-309" d="M467,556.63c.26,0,14.48-1.08,14.48-1.08l-7.14-11.2Z" transform="translate(-285.44 -101.42)"/><path class="cls-310" d="M481.47,555.55l3.34-13.71-10.48,2.51Z" transform="translate(-285.44 -101.42)"/><path class="cls-311" d="M484.81,541.84l-.49,11.24-2.85,2.47Z" transform="translate(-285.44 -101.42)"/><path class="cls-312" d="M472.54,533.62l1.79,10.73,10.48-2.51Z" transform="translate(-285.44 -101.42)"/><path class="cls-313" d="M472.54,533.62l-9.65,8.72,0,.93,11.41,1.08Z" transform="translate(-285.44 -101.42)"/><path class="cls-314" d="M444.56,560.18,467,556.63l-3.41-1.94.1,1.87Z" transform="translate(-285.44 -101.42)"/><path class="cls-315" d="M467,556.63l1.09-1.87,1-4.27-3.24-6.93-2.94-.28.26,4.84Z" transform="translate(-285.44 -101.42)"/><path class="cls-316" d="M465.86,543.56l-.53-3.45-2.44,2.23,0,.93Z" transform="translate(-285.44 -101.42)"/><path class="cls-317" d="M519.44,523l.8,11.23,2.21.94,4.14-9.52Z" transform="translate(-285.44 -101.42)"/><path class="cls-318" d="M522.45,535.2l16.87.71-12.73-10.23Z" transform="translate(-285.44 -101.42)"/><path class="cls-319" d="M526.59,525.68l12.73,10.23,5.29-11Z" transform="translate(-285.44 -101.42)"/><path class="cls-320" d="M544.61,524.89l-5.29,11,8.7-2.19Z" transform="translate(-285.44 -101.42)"/><path class="cls-321" d="M544.61,524.89l3.31,8.83s-.2-12-.2-12S544.61,524.89,544.61,524.89Z" transform="translate(-285.44 -101.42)"/><path class="cls-322" d="M519.44,523l7.15,2.65,7.41-12.6Z" transform="translate(-285.44 -101.42)"/><path class="cls-323" d="M526.59,525.68l18-.79L534,513.08Z" transform="translate(-285.44 -101.42)"/><path class="cls-324" d="M534,513.08l10.61,11.81,3.21-3.19-14-8.62Z" transform="translate(-285.44 -101.42)"/><path class="cls-325" d="M535.19,511.65v2.26l9.46,5.85,1.38-4Z" transform="translate(-285.44 -101.42)"/><path class="cls-326" d="M546,515.78l7.75,13.78-5.83-.39-.13-7.47-3.17-1.94Z" transform="translate(-285.44 -101.42)"/><path class="cls-327" d="M553.78,529.56l11.11-.11,7.31-14.86L546,515.78Z" transform="translate(-285.44 -101.42)"/><path class="cls-328" d="M572.2,514.59l-7.31,14.86,12.1-2.76Z" transform="translate(-285.44 -101.42)"/><path class="cls-329" d="M572.2,514.59l4.79,12.1-.89-16.34Z" transform="translate(-285.44 -101.42)"/><path class="cls-305" d="M576.1,510.35l-19.61-12.63,15.71,16.87Z" transform="translate(-285.44 -101.42)"/><path class="cls-211" d="M556.49,497.72,546,515.78l26.17-1.19Z" transform="translate(-285.44 -101.42)"/><path class="cls-330" d="M556.49,497.72,546,515.78l-10.84-4.13Z" transform="translate(-285.44 -101.42)"/><path class="cls-331" d="M539.32,535.91l12.83-2.15,2.62-3.37-1-.83-5.83-.39.07,4.55Z" transform="translate(-285.44 -101.42)"/><path class="cls-294" d="M576.7,521.09l9.09.82L582,526.76l-17.07,2.69,12.1-2.76Z" transform="translate(-285.44 -101.42)"/><path class="cls-332" d="M661.1,482.28,665,503.1l9.5-18.13Z" transform="translate(-285.44 -101.42)"/><path class="cls-333" d="M674.47,485l12.1,19.28L665,503.1Z" transform="translate(-285.44 -101.42)"/><path class="cls-334" d="M674.47,485l12.1,19.28,9.49-20.17Z" transform="translate(-285.44 -101.42)"/><path class="cls-335" d="M696.06,484.08l2.88,17.59-12.37,2.58Z" transform="translate(-285.44 -101.42)"/><path class="cls-336" d="M696.06,484.08l-15.58-14.76-6,15.65Z" transform="translate(-285.44 -101.42)"/><path class="cls-337" d="M680.48,469.32l-6,15.65-13.37-2.69Z" transform="translate(-285.44 -101.42)"/><path class="cls-338" d="M696.06,484.08l-.82-4.13-14.76-10.63Z" transform="translate(-285.44 -101.42)"/><path class="cls-339" d="M698.08,496.32l8.67.43,1,3.23-8.77,1.69Z" transform="translate(-285.44 -101.42)"/><path class="cls-340" d="M740.52,513.8l-.73,17.3,7.51,4.56Z" transform="translate(-285.44 -101.42)"/><path class="cls-341" d="M740.52,513.8l6.78,21.86,11.84-19.53Z" transform="translate(-285.44 -101.42)"/><path class="cls-342" d="M759.14,516.13,747.3,535.66l23-.1Z" transform="translate(-285.44 -101.42)"/><path class="cls-343" d="M759.14,516.13l11.14,19.43,7.08-21.72Z" transform="translate(-285.44 -101.42)"/><path class="cls-344" d="M740.52,513.8l18.62,2.33-.47-16.19Z" transform="translate(-285.44 -101.42)"/><path class="cls-345" d="M758.67,499.94l.47,16.19,18.22-2.29Z" transform="translate(-285.44 -101.42)"/><path class="cls-346" d="M777.36,513.84l-.86,17.44-6.22,4.28Z" transform="translate(-285.44 -101.42)"/><path class="cls-347" d="M776.73,526.69l3.77,0,6.92,4.06-17.14,4.78,6.22-4.28Z" transform="translate(-285.44 -101.42)"/><path class="cls-348" d="M802,528.84l1.26,30.7,11.7-24Z" transform="translate(-285.44 -101.42)"/><path class="cls-349" d="M803.23,559.54,829.39,564l-14.46-28.39Z" transform="translate(-285.44 -101.42)"/><path class="cls-350" d="M829.39,564l6.51.11,15.55-28-36.52-.5Z" transform="translate(-285.44 -101.42)"/><path class="cls-351" d="M851.45,536.06l-15.55,28,23-3.77Z" transform="translate(-285.44 -101.42)"/><path class="cls-352" d="M858.86,560.29l.36-30.66-7.77,6.43Z" transform="translate(-285.44 -101.42)"/><path class="cls-353" d="M832,511.36l-30,17.48,13,6.72Z" transform="translate(-285.44 -101.42)"/><path class="cls-354" d="M832,511.36l-17.07,24.2,36.52.5Z" transform="translate(-285.44 -101.42)"/><path class="cls-355" d="M832,511.36l19.45,24.7,7.77-6.43Z" transform="translate(-285.44 -101.42)"/><path class="cls-356" d="M854.46,526.4l11.61-6.53,10.68,13.6-17.56-.25,0-3.59Z" transform="translate(-285.44 -101.42)"/><path class="cls-357" d="M859.19,533.22l-.07,3.74,5.29,9.72,4.9.08,7.44-13.29Z" transform="translate(-285.44 -101.42)"/><path class="cls-94" d="M859.12,537l-.1,8.83,5.39.89Z" transform="translate(-285.44 -101.42)"/><path class="cls-358" d="M876.75,533.47l-7.44,13.29,11-1.94Z" transform="translate(-285.44 -101.42)"/><path class="cls-359" d="M876.75,533.47l3.51,11.35c0-.29.4-14.9.4-14.9Z" transform="translate(-285.44 -101.42)"/><path class="cls-360" d="M866.07,519.87l10.68,13.6,3.91-3.55Z" transform="translate(-285.44 -101.42)"/><path class="cls-361" d="M859,549.66l12.37,2.27-6.58,6.57-5.92,1.79Z" transform="translate(-285.44 -101.42)"/><path class="cls-362" d="M880.32,540l6.19.93-3.64,3.38-2.61.5Z" transform="translate(-285.44 -101.42)"/><path class="cls-363" d="M923.62,525.68,924,535l1.79,2.19Z" transform="translate(-285.44 -101.42)"/><path class="cls-364" d="M925.77,537.21l5,1.25,5.79-9.9-13-2.88Z" transform="translate(-285.44 -101.42)"/><path class="cls-365" d="M930.8,538.46l10.05.76-4.26-10.66Z" transform="translate(-285.44 -101.42)"/><path class="cls-366" d="M940.85,539.22l7.44-.5L953,528.27l-16.43.29Z" transform="translate(-285.44 -101.42)"/><path class="cls-367" d="M953,528.27l.3,8.76-5,1.69Z" transform="translate(-285.44 -101.42)"/><path class="cls-350" d="M939.69,515.88l-3.1,12.68,16.43-.29Z" transform="translate(-285.44 -101.42)"/><path class="cls-368" d="M939.69,515.88l-16.07,9.8,13,2.88Z" transform="translate(-285.44 -101.42)"/><path class="cls-369" d="M939.69,515.88,953,528.27l-2.81-4.13Z" transform="translate(-285.44 -101.42)"/><path class="cls-370" d="M953.19,533.4h1.52l2.12,3.23-8.54,2.16,5-1.76Z" transform="translate(-285.44 -101.42)"/><path class="cls-371" d="M684.59,455.68v12.17l-4.44-1.15V454.39Z" transform="translate(-285.44 -101.42)"/><path class="cls-372" d="M693.45,455.68h-8.86v12.17h8.86Z" transform="translate(-285.44 -101.42)"/><path class="cls-373" d="M693.45,455.68l3.57-1.29v12.35l-3.57,1.11Z" transform="translate(-285.44 -101.42)"/><path class="cls-374" d="M697,454.39l-3.57,1.29h-8.86l-4.44-1.29,4.44-1.37h8Z" transform="translate(-285.44 -101.42)"/><path class="cls-371" d="M686.51,454.92l1.28-133.36h-2l-1.52,132.72Z" transform="translate(-285.44 -101.42)"/><path class="cls-375" d="M686.51,454.92H691l.33-133.11-3.51-.25Z" transform="translate(-285.44 -101.42)"/><path class="cls-376" d="M691,454.92l2-.57,0-132.58-1.69,0Z" transform="translate(-285.44 -101.42)"/><path class="cls-377" d="M693.65,321.74l0,2.37-.76.78-1.16-1.43Z" transform="translate(-285.44 -101.42)"/><path class="cls-378" d="M685.61,332.68l2.15-5.41,0-5.71h-2Z" transform="translate(-285.44 -101.42)"/><path class="cls-379" d="M687.76,327.26l3.51-.71,0-4.74-3.51-.25Z" transform="translate(-285.44 -101.42)"/><path class="cls-380" d="M704.3,329.2l.16,3.66L702,336.45l-10.26-13,4.93-4.52Z" transform="translate(-285.44 -101.42)"/><g id="WindPowerRight"><path class="cls-381" d="M682.47,313.37l-75.15,17.74-2.81,5,79.18-15.58Z" transform="translate(-285.44 -101.42)"/><path class="cls-382" d="M695.34,309.64l24.6-82.18-2.51-5.56L689,307.2Z" transform="translate(-285.44 -101.42)"/><path class="cls-382" d="M691.8,323.49,741.15,386h5.35l-49.81-67.06Z" transform="translate(-285.44 -101.42)"/><path class="cls-381" d="M684.42,313.37l1.06,6.14,5.42,2.08,4.37-4-1.06-6.14-5.42-2.09Z" transform="translate(-285.44 -101.42)"/><path class="cls-383" d="M688.39,307l.4,2.36-4.37,4.06-2.08-.79Z" transform="translate(-285.44 -101.42)"/><path class="cls-384" d="M694.21,311.4l1.69-1.58L688.39,307l.4,2.36Z" transform="translate(-285.44 -101.42)"/><path class="cls-385" d="M697.35,318.33l-2.08-.79-1.06-6.14,1.69-1.58Z" transform="translate(-285.44 -101.42)"/><path class="cls-386" d="M697.35,318.33l-6.05,5.6-.4-2.34,4.37-4Z" transform="translate(-285.44 -101.42)"/><path class="cls-387" d="M691.3,323.93l-7.51-2.88,1.69-1.54,5.42,2.08Z" transform="translate(-285.44 -101.42)"/><path class="cls-388" d="M683.79,321.05l1.69-1.54-1.06-6.14-2.08-.79Z" transform="translate(-285.44 -101.42)"/></g><path class="cls-389" d="M728,361.05l2.78,11.77,9,11.31-2-10Z" transform="translate(-285.44 -101.42)"/><path class="cls-390" d="M697,466.74l5.1-1.58,1.62-2.77L697,463.51Z" transform="translate(-285.44 -101.42)"/><path class="cls-391" d="M700.83,467.42l36.41-22.15,7.94,4,8.6-1.08,4.73-2.37V443h26.76l-4-3.27-52.53,4.49L725,446.42,710.88,450l-1.09,1.87,8.53-2.33.14.86L707,456.86Z" transform="translate(-285.44 -101.42)"/><path class="cls-373" d="M633.19,473.63V493l7.08-1.84V471.55Z" transform="translate(-285.44 -101.42)"/><path class="cls-372" d="M633.22,473.63H619.1V493h14.12Z" transform="translate(-285.44 -101.42)"/><path class="cls-371" d="M619.1,473.63l-5.69-2.08v19.67l5.69,1.8Z" transform="translate(-285.44 -101.42)"/><path class="cls-374" d="M613.41,471.55l5.69,2.08h14.09l7.08-2.08-7.08-2.16H620.42Z" transform="translate(-285.44 -101.42)"/><path class="cls-392" d="M630.15,472.41,628.09,260.1h3.25l2.48,211.3Z" transform="translate(-285.44 -101.42)"/><path class="cls-393" d="M630.15,472.41H623l-.49-211.92,5.55-.39Z" transform="translate(-285.44 -101.42)"/><path class="cls-371" d="M623,472.41l-3.24-.9,0-211.06,2.71,0Z" transform="translate(-285.44 -101.42)"/><path class="cls-394" d="M622.54,281.46l4.4-5.39,1.32,1.44-.17-17.41-5.55.39Z" transform="translate(-285.44 -101.42)"/><path class="cls-395" d="M622.54,281.46l-2.71,15.25,0-14.25L622.54,268Z" transform="translate(-285.44 -101.42)"/><path class="cls-396" d="M622.54,266.74l-2.75-3.05,0-3.24,2.71,0Z" transform="translate(-285.44 -101.42)"/><path class="cls-388" d="M634.48,259.31l-2.68-2.48,1.68-9.77,3.31-1.29Z" transform="translate(-285.44 -101.42)"/><path class="cls-397" d="M636.16,249.43l5.5,4.81,2.24,6-9.29-1.83Z" transform="translate(-285.44 -101.42)"/><g id="WindPoweLeft"><path class="cls-381" d="M633.48,247.06l-1.68,9.77-8.63,3.3-6.95-6.46,1.69-9.77,8.63-3.3Z" transform="translate(-285.44 -101.42)"/><path class="cls-383" d="M627.17,236.87l-.63,3.73,6.94,6.46,3.31-1.29Z" transform="translate(-285.44 -101.42)"/><path class="cls-384" d="M617.91,243.9l-2.68-2.47,11.94-4.56-.63,3.73Z" transform="translate(-285.44 -101.42)"/><path class="cls-385" d="M612.91,254.93l3.31-1.26,1.69-9.77-2.68-2.47Z" transform="translate(-285.44 -101.42)"/><path class="cls-386" d="M612.91,254.93l9.63,8.93.63-3.73-6.95-6.46Z" transform="translate(-285.44 -101.42)"/><path class="cls-387" d="M622.54,263.86l11.94-4.55-2.68-2.48-8.63,3.3Z" transform="translate(-285.44 -101.42)"/><path class="cls-381" d="M636.56,247.06l119.67,28.26,4.43,7.89-126-24.77Z" transform="translate(-285.44 -101.42)"/><path class="cls-382" d="M616.09,241.1,576.93,110.29l4-8.87,45.24,135.84Z" transform="translate(-285.44 -101.42)"/><path class="cls-382" d="M621.74,263.15,543.16,362.7h-8.5l79.28-106.8Z" transform="translate(-285.44 -101.42)"/></g><path class="cls-377" d="M618.77,260.38v3.81l1.19,1.22,1.82-2.26Z" transform="translate(-285.44 -101.42)"/><path class="cls-398" d="M633.19,493,652,489l-.93-.86,43.13-7.86,1-3.16-55,9.65v4.38Z" transform="translate(-285.44 -101.42)"/><path class="cls-399" d="M640.27,477.58l57.32-4.53.56-1-57.88,4.49Z" transform="translate(-285.44 -101.42)"/></g></g></g></svg>