<svg width="1323" height="1077" viewBox="0 0 1323 1077" fill="none" xmlns="http://www.w3.org/2000/svg">
<g clip-path="url(#clip0)">
<path d="M780.405 784.451L789.897 779.927L780.769 795.041L780.405 784.451Z" fill="#3B2D47"/>
<path d="M780.405 784.451L777.196 792.457L780.768 795.041L780.405 784.451Z" fill="#362746"/>
<path d="M789.897 779.927L794.495 795.939L780.768 795.041L789.897 779.927Z" fill="#47445B"/>
<path d="M549.971 838.624L480.911 865.908L552.154 903.711L549.971 838.624Z" fill="#94564D"/>
<path d="M480.911 865.908L493.611 886.802L552.154 903.711L480.911 865.908Z" fill="#706A73"/>
<path d="M493.611 886.802L538.527 914.194L552.154 903.711L493.611 886.802Z" fill="#5D5665"/>
<path d="M529.795 800.929L528.175 819.202L534.757 816.941L529.795 800.929Z" fill="#4A445B"/>
<path d="M534.757 816.941L541.272 807.822L529.795 800.929L534.757 816.941Z" fill="#434258"/>
<path d="M616.419 829.182L609.936 860.164L630.112 841.64L616.419 829.182Z" fill="#525067"/>
<path d="M630.112 841.639L641.589 853.989L616.75 876.283L610.002 859.948L630.112 841.639Z" fill="#5E5B6B"/>
<path d="M616.419 829.182L630.112 841.64L641.589 853.989L638.678 837.511L616.419 829.182Z" fill="#312C4D"/>
<path d="M580.863 941.621L583.178 947.042L598.691 915.163L580.863 941.621Z" fill="#858283"/>
<path d="M598.691 915.163L596.21 942.088L583.178 947.042L598.691 915.163Z" fill="#9A989A"/>
<path d="M598.691 915.163L612.946 948.873L609.903 952.176L596.21 942.088L598.691 915.163Z" fill="#46405B"/>
<path d="M596.21 942.088L609.903 952.176L583.178 947.042L596.21 942.088Z" fill="#655B6B"/>
<path d="M592.075 924.963L592.009 932.143L586.717 932.933L592.075 924.963Z" fill="#3D314A"/>
<path d="M731.95 826.418L734.397 847.025L735.819 849.502L738.102 841.245L731.95 826.418Z" fill="#857D83"/>
<path d="M731.95 826.418L738.102 841.245L750.803 840.706L731.95 826.418Z" fill="#857F82"/>
<path d="M750.802 840.706L752.985 837.044L731.95 826.418L750.802 840.706Z" fill="#635C62"/>
<path d="M750.803 840.706L738.3 848.676L735.82 849.502L738.102 841.245L750.803 840.706Z" fill="#4A4154"/>
<path d="M741.409 831.193L738.995 831.767L731.95 826.418L741.409 831.193Z" fill="#291B3D"/>
<path d="M731.95 826.418L738.995 831.767L734.43 832.413L731.95 826.418Z" fill="#332A48"/>
<path d="M731.95 826.418L734.067 844.117L734.43 832.413L731.95 826.418Z" fill="#433B52"/>
<path d="M771.805 872.047L797.273 896.782L793.734 837.188L771.805 872.047Z" fill="#90898C"/>
<path d="M793.734 837.188L797.273 896.782L807.493 874.596L793.734 837.188Z" fill="#827B81"/>
<path d="M797.273 896.782L837.327 868.924L853.566 845.697L807.493 874.596L797.273 896.782Z" fill="#4C445B"/>
<path d="M807.493 874.596L853.567 845.697L838.253 798.273L807.493 874.596Z" fill="#A56358"/>
<path d="M807.493 874.596L793.734 837.188L838.253 798.273L807.493 874.596Z" fill="#AD6759"/>
<path d="M804.186 828.034L826.875 826.526L838.253 798.273L804.186 828.034Z" fill="#492339"/>
<path d="M838.253 798.273L826.875 826.526L850.127 835.07L838.253 798.273Z" fill="#532E3D"/>
<path d="M285.536 502.277L290.861 532.433L301.908 565.317L390.152 574.508L428.387 584.129L431.728 582.837L479.852 585.673L557.347 576.482L655.612 562.015L745.775 576.77L839.675 582.119L885.418 579.749L922.098 570.882L970.916 574.436L1013.12 572.067L1037.93 548.014L999.096 526.186L1029.66 514.16L1008.92 502.636L968.303 496.856L938.238 491.974L877.248 482.532L846.025 465.659L782.257 461.279L705.39 459.125L650.75 459.305L543.72 456.11L473.071 466.269L412.544 470.254L344.542 474.167L319.835 478.368L285.536 502.277Z" fill="url(#paint0_radial)"/>
<path d="M290.862 532.433L301.909 565.317L302.901 580.252L290.531 540.941L290.862 532.433Z" fill="#7FBB00"/>
<path d="M302.901 580.252L390.682 588.868L390.153 574.508L301.909 565.317L302.901 580.252Z" fill="url(#paint1_linear)"/>
<path d="M390.153 574.508L428.387 584.129L450.018 622.327L450.515 639.523L390.682 588.868L390.153 574.508Z" fill="#94D402"/>
<path d="M431.728 582.837L428.387 584.129L450.019 622.327L479.852 585.673L431.728 582.837Z" fill="url(#paint2_radial)"/>
<path d="M450.019 622.327L450.515 639.523L556.586 590.663L479.852 585.673L450.019 622.327Z" fill="#6EA507"/>
<path d="M479.852 585.673L556.586 590.663L557.347 576.482L479.852 585.673Z" fill="#6EA507"/>
<path d="M557.347 576.482L655.514 609.618L556.586 590.663L557.347 576.482Z" fill="#71AB04"/>
<path d="M557.347 576.482L655.613 562.015L655.514 609.618L557.347 576.482Z" fill="#80C200"/>
<path d="M655.613 562.015L655.514 609.618L744.816 605.669L655.613 562.015Z" fill="url(#paint3_linear)"/>
<path d="M655.613 562.015L744.816 605.669L745.775 576.77L655.613 562.015Z" fill="url(#paint4_linear)"/>
<path d="M745.775 576.77L744.816 605.669L839.179 597.412L839.675 582.119L745.775 576.77Z" fill="url(#paint5_linear)"/>
<path d="M839.675 582.119L839.179 597.412L927.456 591.812L885.418 579.749L839.675 582.119Z" fill="#80C100"/>
<path d="M885.418 579.749L927.456 591.811L922.098 570.882L885.418 579.749Z" fill="#87C901"/>
<path d="M922.098 570.882L927.456 591.811L970.917 574.436L922.098 570.882Z" fill="#98DE13"/>
<path d="M927.456 591.812L1012.72 586.75L1013.12 572.067L970.917 574.436L927.456 591.812Z" fill="#7CB901"/>
<path d="M1013.12 572.067L1012.72 586.75L1034.88 561.01L1037.93 548.014L1013.12 572.067Z" fill="#4A701B"/>
<path d="M1037.93 548.014L1034.88 561.01L1054.2 557.097L1037.93 548.014Z" fill="#486B1A"/>
<path d="M1054.2 557.096L1037.93 548.013L999.096 526.186L1029.66 514.16L1054.2 557.096Z" fill="#71AC00"/>
<path d="M390.682 588.868L445.057 679.515L450.515 639.523L390.682 588.868Z" fill="#864C4A"/>
<path d="M302.901 580.252L390.682 588.868L445.057 679.515L438.971 728.698L302.901 580.252Z" fill="url(#paint6_linear)"/>
<path d="M302.901 580.252L343.087 638.051L369.613 688.06L401.994 724.857L438.971 728.698L302.901 580.252Z" fill="url(#paint7_linear)"/>
<path d="M450.515 639.523L445.057 679.515L504.89 699.799L450.515 639.523Z" fill="#693841"/>
<path d="M504.89 699.799L556.586 590.663L450.515 639.523L504.89 699.799Z" fill="#592F3C"/>
<path d="M445.057 679.515L438.971 728.698L551.129 796.657L504.89 699.799L445.057 679.515Z" fill="#9E5D56"/>
<path d="M556.586 590.663L504.89 699.799L655.514 609.618L556.586 590.663Z" fill="url(#paint8_linear)"/>
<path d="M655.513 609.618L667.057 722.99L504.89 699.799L655.513 609.618Z" fill="url(#paint9_linear)"/>
<path d="M504.89 699.799L551.129 796.657L667.057 722.99L504.89 699.799Z" fill="url(#paint10_linear)"/>
<path d="M655.514 609.618L667.057 722.99L724.872 689.424L655.514 609.618Z" fill="url(#paint11_linear)"/>
<path d="M655.514 609.618L724.872 689.423L744.816 605.669L655.514 609.618Z" fill="url(#paint12_linear)"/>
<path d="M724.872 689.423L800.514 690.465L744.816 605.669L724.872 689.423Z" fill="url(#paint13_linear)"/>
<path d="M744.816 605.669L800.514 690.465L839.179 597.412L744.816 605.669Z" fill="url(#paint14_linear)"/>
<path d="M839.179 597.412L800.514 690.465L822.443 718.754L840.866 706.333L839.179 597.412Z" fill="url(#paint15_linear)"/>
<path d="M667.057 722.99L687.695 728.842L724.872 689.424L667.057 722.99Z" fill="#6B3A42"/>
<path d="M687.696 728.842L714.751 764.383L724.872 689.424L687.696 728.842Z" fill="#794448"/>
<path d="M714.751 764.383L800.514 690.465L724.872 689.424L714.751 764.383Z" fill="#61333E"/>
<path d="M800.514 690.465L714.751 764.383L822.443 718.754L800.514 690.465Z" fill="#63373F"/>
<path d="M714.751 764.383L738.598 772.532L822.443 718.754L714.751 764.383Z" fill="#673945"/>
<path d="M738.598 772.532L722.193 793.21L822.443 718.754L738.598 772.532Z" fill="#5F333E"/>
<path d="M840.866 706.332L822.443 718.754L773.591 755.049L943.894 695.347L840.866 706.332Z" fill="#64343E"/>
<path d="M840.502 706.548L1012.72 586.75L943.894 695.347L840.502 706.548Z" fill="url(#paint16_linear)"/>
<path d="M839.179 597.412L840.502 706.548L1012.72 586.75L927.456 591.811L839.179 597.412Z" fill="url(#paint17_linear)"/>
<path d="M1012.72 586.749L1034.88 561.009L1054.2 557.096L943.894 695.347L1012.72 586.749Z" fill="#5A303E"/>
<path d="M401.994 724.857L472.278 763.701L488.121 758.46L438.971 728.698L401.994 724.857Z" fill="#5A5362"/>
<path d="M551.129 796.657L592.34 819.059L667.057 722.99L551.129 796.657Z" fill="#605566"/>
<path d="M667.057 722.99L661.963 773.681L592.34 819.059L667.057 722.99Z" fill="url(#paint18_linear)"/>
<path d="M667.057 722.99L661.963 773.681L709.69 789.226L667.057 722.99Z" fill="url(#paint19_linear)"/>
<path d="M667.057 722.99L709.69 789.226L722.193 793.211L714.751 764.383L687.695 728.842L667.057 722.99Z" fill="url(#paint20_linear)"/>
<path d="M714.751 764.383L722.193 793.21L738.598 772.532L714.751 764.383Z" fill="url(#paint21_linear)"/>
<path d="M773.591 755.049L763.239 762.731L838.087 761.188L943.894 695.347L773.591 755.049Z" fill="#554D61"/>
<path d="M556.586 590.663L551.294 672.012L568.857 708.953L553.345 732.755L504.89 699.799L556.586 590.663Z" fill="#613541"/>
<path d="M985.371 505.041L989.141 506.046L986.363 509.098L985.371 505.041Z" fill="#304817"/>
<path d="M285.537 502.277L285.437 511.36L290.531 540.942L290.862 532.433L285.537 502.277Z" fill="#77B500"/>
<path d="M319.273 474.778L313.055 503.964L366.603 511.467L370.175 494.379L319.273 474.778Z" fill="#9D5F54"/>
<path d="M366.603 511.467L427.527 504.646L370.175 494.379L366.603 511.467Z" fill="#4A2835"/>
<path d="M319.273 474.778L370.175 494.379L427.527 504.646L416.348 491.722L358.632 476.501L319.273 474.778Z" fill="#6BA507"/>
<path d="M451.606 450.832L446.413 486.625L462.223 476.429L451.606 450.832Z" fill="#9C5E53"/>
<path d="M446.413 486.624L454.715 496.317L462.223 476.429L446.413 486.624Z" fill="#A3665A"/>
<path d="M454.715 496.317L506.411 496.21L462.223 476.429L454.715 496.317Z" fill="#724240"/>
<path d="M451.606 450.832L462.223 476.429L506.411 496.21L534.724 484.112L502.972 461.638L451.606 450.832Z" fill="#6EAB01"/>
<path d="M690.341 540.833L688.258 557.67L745.874 565.999L747.892 553.829L690.341 540.833Z" fill="#9F6155"/>
<path d="M747.892 553.829L745.874 565.999L795.818 556.235L747.892 553.829Z" fill="#56303B"/>
<path d="M795.818 556.235L753.878 543.167L706.35 536.167L690.341 540.834L747.892 553.83L795.818 556.235Z" fill="#7CBB00"/>
<path d="M905.395 510.749L946.739 515.237L943.53 503.426L905.395 510.749Z" fill="#895349"/>
<path d="M946.739 515.237L986.363 509.098L980.905 486.589L943.531 503.426L946.739 515.237Z" fill="#6E4042"/>
<path d="M980.905 486.589L950.079 488.168L911.779 499.584L905.395 510.749L943.531 503.426L980.905 486.589Z" fill="#81C300"/>
<path d="M694.211 480.306L696.923 474.203L759.468 487.271L694.211 480.306Z" fill="#8D544C"/>
<path d="M759.468 487.271L811.892 464.869L796.347 481.67L759.468 487.271Z" fill="#462A33"/>
<path d="M811.892 464.869L818.54 479.624L796.347 481.67L811.892 464.869Z" fill="#6C4142"/>
<path d="M696.923 474.203L759.468 487.271L811.892 464.869L781.298 439.739L713.494 445.519L696.923 474.203Z" fill="#8CD200"/>
<path d="M817.581 477.506L820.161 478.762L818.54 479.624L817.581 477.506Z" fill="#304817"/>
<path d="M594.854 592.709H581.161L582.186 594.683H579.573L580.929 592.17H577.093H573.256L575.141 588.58L558.008 588.329C558.008 588.329 558.538 589.334 559.298 590.878L560.654 593.463C561.713 596.011 563.003 598.632 563.962 601.36C564.227 602.043 564.491 602.761 564.723 603.443C565.219 605.776 565.649 607.715 566.046 610.12C569.618 605.381 570.147 599.171 571.966 593.929C573.686 597.304 575.869 599.709 577.589 603.084C577.838 600.644 578.315 598.239 579.011 595.904C579.871 596.873 579.838 598.776 581.161 599.745C581.423 598.258 581.88 596.82 582.517 595.473C584.869 599.806 586.598 604.503 587.644 609.402C587.881 607.189 588.475 605.038 589.397 603.048C589.628 602.473 589.926 601.899 590.19 601.325C590.753 600.212 591.282 599.099 591.745 597.986C593.068 599.458 592.572 602.294 594.788 603.299C594.788 601.863 596.574 600.93 596.739 599.314C597.004 598.848 597.268 598.381 597.5 597.914L598.823 595.509H593.332L594.854 592.709Z" fill="#71AB04"/>
<path d="M605.471 606.028C605.868 604.735 607.654 603.802 608.216 601.648L609.308 599.709L610.465 597.591H601.7L602.825 599.745C603.718 601.038 603.685 602.474 604.677 603.838L605.471 606.028Z" fill="#71AB04"/>
<path d="M615.195 616.69C617.643 612.561 621.215 609.725 623.199 605.597C623.507 605.029 623.784 604.442 624.026 603.838L625.349 601.432C625.68 600.858 625.845 600.499 625.845 600.499L612.152 600.32L612.648 601.289C613.089 602.071 613.476 602.887 613.806 603.73C614.068 604.351 614.268 605.001 614.401 605.669C614.449 606.29 614.449 606.914 614.401 607.535C613.988 610.137 613.988 612.796 614.401 615.398C614.618 615.861 614.885 616.294 615.195 616.69Z" fill="#71AB04"/>
<path d="M626.176 602.366L626.672 603.336L627.896 605.741C630.027 609.575 631.052 614.014 630.839 618.485C633.519 614.68 635.338 609.905 638.017 605.956L638.414 605.202L626.176 602.366Z" fill="#71AB04"/>
<path d="M941.281 604.628C946.077 600.786 945.714 594.576 947.533 589.334H937.412C939.562 593.678 943.034 598.022 941.513 603.479C941.348 604.197 941.281 604.628 941.281 604.628Z" fill="#7CB901"/>
<path d="M966.452 585.17C964.335 585.78 962.582 584.811 960.167 584.919H957.984H948.062L950.509 589.693C950.939 590.483 951.336 591.273 951.7 591.991L953.023 594.54L953.585 593.355C953.949 592.709 954.412 591.812 954.908 590.95C955.504 589.37 956.397 588.904 956.86 587.36C958.58 591.201 960.73 594.109 962.449 597.95C966.022 595.617 966.055 590.77 967.444 587.18C968.701 590.519 971.777 592.494 972.174 596.335C972.116 592.739 972.747 589.17 974.026 585.852L975.349 583.411H972.736H965.261L966.452 585.17Z" fill="#7CB901"/>
<path d="M998.038 582.442H990.497L990.828 581.831L975.084 581.616L977.532 586.319L978.226 587.683C980.112 590.842 981.534 594.863 983.121 598.058C984.047 596.155 985.371 594.755 986.264 592.853C987.112 595.694 988.22 598.436 989.571 601.038C992.713 597.232 993.209 591.991 995.161 587.575C995.657 586.606 996.153 585.744 996.55 584.991C997.476 583.411 998.038 582.442 998.038 582.442Z" fill="#7CB901"/>
<path d="M849.697 607.644C850.854 603.802 848.705 599.458 851.318 596.299L852.409 594.181L852.872 593.391H840.932L841.362 594.217C841.627 594.755 842.023 595.473 842.486 596.335C844.231 599.992 846.351 603.424 848.804 606.567C849.399 607.177 849.697 607.644 849.697 607.644Z" fill="#80C100"/>
<path d="M914.127 589.298L898.681 589.083L900.798 585.205L883.433 584.954L885.484 588.903H878.571L881.217 584.093L863.853 583.841L865.044 586.139L851.516 585.924L858.131 598.56L858.792 599.817C859.388 600.678 859.355 601.612 860.248 602.581C860.711 600.212 862.927 598.991 863.82 596.406C864.942 597.573 865.795 599.009 866.312 600.599C866.83 602.189 866.995 603.888 866.797 605.561C869.256 604.219 871.395 602.278 873.048 599.889C873.098 601.973 872.931 604.056 872.552 606.099C876.554 601.863 877.05 596.119 878.009 590.232L878.373 589.406L879.729 591.955C882.772 597.627 882.673 604.807 886.774 610.371C887.138 611.089 887.502 611.807 887.899 612.525C889.685 608.72 888.428 604.412 889.354 600.104C889.542 600.831 889.785 601.539 890.081 602.222C890.527 602.835 891.001 603.422 891.504 603.981C891.7 600.638 893.088 597.509 895.373 595.257C895.702 594.765 896 594.249 896.266 593.714C896.73 592.924 897.093 592.242 897.358 591.739L897.788 590.985L898.946 593.283C899.865 598.045 901.355 602.655 903.378 606.997C905.627 602.725 909.199 598.955 911.415 594.539C911.679 594.073 911.911 593.606 912.176 593.175L914.127 589.298Z" fill="#80C100"/>
<path d="M838.319 586.965C834.317 586.965 830.348 586.785 826.445 586.785H824.957H820.955L822.509 589.837H811.429C811.429 589.837 811.694 590.304 812.024 590.986L813.38 593.57C813.831 594.977 814.633 596.22 815.696 597.16H809.974L810.404 596.694C809.544 596.694 808.221 596.694 807.526 596.694H806.005C805.012 596.694 804.02 596.694 802.929 596.694C802.922 596.199 803.047 595.713 803.287 595.294C803.527 594.874 803.874 594.537 804.285 594.324H799.125H788.376L789.798 591.74L772.434 591.524L777.395 601.145H774.98C770.284 600.786 766.282 603.12 761.453 602.581C762.346 601.648 762.346 599.745 763.239 598.776C760.424 598.335 757.582 598.131 754.738 598.166H753.118H746.073L751.1 607.895C751.365 608.397 751.629 608.9 751.861 609.402C752.986 610.695 753.382 612.992 754.705 614.572C757.526 611.956 759.554 608.478 760.527 604.592C762.643 612.274 768.332 617.623 770.449 625.306C773.591 618.629 771.507 610.013 776.105 603.946L777.494 601.433L780.802 608.11L787.417 596.012L790.724 602.043L791.419 603.443C792.679 606.477 794.127 609.416 795.751 612.238C796.678 610.838 798.001 610.372 798.001 608.469C799.355 610.244 800.323 612.328 800.832 614.566C801.342 616.804 801.38 619.137 800.944 621.393C801.588 620.908 802.176 620.341 802.697 619.706C803.186 619.095 803.618 618.434 803.987 617.731C805.871 613.372 806.854 608.617 806.865 603.802C809.143 608.793 811.153 613.924 812.884 619.167C814.534 617.377 815.829 615.239 816.688 612.885C816.919 612.346 817.118 611.772 817.349 611.197C817.846 609.223 818.739 608.254 819.202 606.351C819.141 607.761 819.592 609.14 820.458 610.192C822.708 606.423 821.881 601.612 824.56 598.309C824.93 601.605 826.069 604.743 827.867 607.428C830.204 600.511 833.554 594.05 837.79 588.293C837.926 587.833 838.103 587.388 838.319 586.965Z" fill="#93D61D"/>
<path d="M738.135 603.766H733.57C731.024 603.766 728.808 603.766 725.963 603.766L727.352 601.253L728.742 598.705H719.183H711.377H701.818L704.464 603.838H693.417L695.534 599.961H685.909L686.869 598.238L669.504 597.987L671.819 602.474H661.897L663.881 606.279C664.08 606.71 664.344 607.177 664.576 607.68C667.09 613.675 667.884 620.388 673.142 624.301C673.142 619.491 672.382 614.213 675.491 609.941C676.536 612.354 677.847 614.62 679.394 616.69C679.857 614.285 681.213 612.885 681.643 610.48C681.808 610.013 681.973 609.546 682.106 609.08C682.238 608.613 682.437 608.11 682.569 607.644C683.925 610.336 685.446 613.065 686.604 616.008C686.835 616.583 687.034 617.193 687.232 617.803C687.263 619.204 687.743 620.55 688.588 621.609C688.506 620.836 688.657 620.055 689.018 619.383C689.223 618.618 689.378 617.838 689.482 617.049C689.59 613.829 690.263 610.661 691.466 607.715L692.194 606.351L692.888 605.095L694.145 607.5L695.435 609.977C699.387 615.345 702.006 621.723 703.042 628.502C704.861 623.727 703.042 618.45 704.994 613.495C705.357 612.813 705.754 612.131 706.151 611.485C706.548 610.839 706.912 610.121 707.243 609.403C707.672 610.491 708.169 611.547 708.731 612.562L709.558 614.034C710.253 615.685 711.543 617.121 711.543 619.024C714.652 615.721 714.255 610.946 715.644 607.141C716.523 608.551 717.33 610.013 718.058 611.521C718.295 612.022 718.505 612.537 718.687 613.065C719.084 613.89 719.051 615.326 719.481 616.296C720.564 613.598 721.929 611.044 723.549 608.685C724.314 613.213 725.296 617.694 726.492 622.111C727.943 616.101 731.505 610.946 736.415 607.751C736.928 607.061 737.393 606.329 737.804 605.561L738.135 603.766Z" fill="url(#paint22_linear)"/>
<path d="M351.058 577.164L331.742 576.913H330.254C328.965 576.986 327.673 576.986 326.384 576.913C326.847 576.446 326.847 575.979 327.277 575.477C322.448 575.477 317.156 575.477 312.526 575.154H309.814L311.17 577.739C313.551 583.016 319.24 585.96 320.497 591.74C324.499 588.437 324.995 582.693 325.954 577.918C328.964 583.231 332.569 588.078 333.429 594.217L334.223 596.586C335.317 600.51 337.362 604.044 340.143 606.818C341.996 600.14 340.739 592.96 345.568 587.18C346.031 586.39 346.361 585.744 346.626 585.278L347.023 584.56L347.618 585.744C347.982 586.426 348.478 587.36 348.941 588.293C349.404 589.227 350.926 590.232 350.893 591.883L351.389 590.986C352.91 588.15 357.541 579.749 357.541 579.749H349.603L351.058 577.164Z" fill="url(#paint23_linear)"/>
<path d="M389.822 580.36C385.58 581.18 381.23 581.082 377.022 580.072C377.452 580.539 377.452 581.042 377.882 581.508C375.278 581.762 372.655 581.654 370.076 581.185H367.529L368.687 583.411H366.107L366.603 582.478C366.934 581.939 367.331 581.185 367.728 580.467L369.349 577.488L356.35 577.308L358.731 581.939L359.525 583.483C360.455 586.156 361.872 588.599 363.693 590.663C363.693 590.196 364.156 589.227 364.156 588.76C366.045 592.257 367.06 596.23 367.099 600.284C368.359 598.663 369.304 596.783 369.878 594.756C370.076 594.109 370.275 593.427 370.44 592.781C371.205 591.644 371.622 590.276 371.631 588.868C372.669 590.517 373.534 592.287 374.211 594.145C375.6 590.807 379.999 590.555 380.495 586.104C382.358 587.772 383.804 589.922 384.7 592.356C385.596 594.791 385.913 597.431 385.621 600.033C390.946 595.33 387.97 587.647 389.425 581.58C389.657 580.719 389.822 580.36 389.822 580.36Z" fill="url(#paint24_linear)"/>
<path d="M428.255 619.814C430.306 622.399 430.703 625.773 432.654 628.394L433.911 630.584C436.425 635.035 439.004 639.631 436.623 644.944C443.238 641.677 442.08 632.594 444.528 626.383C444.991 625.45 445.454 624.588 445.884 623.799L448.1 619.778L432.456 619.562H430.24C428.983 619.67 428.255 619.814 428.255 619.814Z" fill="#94D402"/>
<path d="M432.621 608.505H426.006L428.123 604.7L413.934 604.484L419.556 594.253L402.192 594.001L405.5 600.679L406.293 602.223C407.98 604.987 408.84 608.361 410.56 611.233C410.13 609.797 411.916 608.864 411.916 607.428C414.496 613.711 419.292 618.557 419.193 625.701C419.794 625.144 420.231 624.407 420.449 623.583C420.788 622.922 420.981 622.185 421.012 621.429C423.195 623.368 421.376 627.173 423.558 629.112C426.271 624.84 426.337 619.598 428.983 615.218L429.777 613.746L432.621 608.505Z" fill="#94D402"/>
<path d="M487.889 618.018L475.189 617.839L477.107 621.429H466.225L470.095 628.968C470.744 630.132 471.341 631.33 471.881 632.558C472.443 634.317 473.303 635.753 473.733 637.225C475.435 633.482 477.392 629.882 479.588 626.455C480.201 627.666 480.699 628.941 481.076 630.26C481.486 631.607 481.995 632.915 482.597 634.173C483.094 628.429 487.989 625.629 489.212 620.855C489.642 622.291 490.965 623.296 490.932 624.732C490.403 633.312 490.734 643.364 498.606 647.78C490.8 638.122 498.837 626.742 504.03 618.485C504.427 617.695 504.791 616.906 505.221 616.152C505.651 615.398 506.048 614.68 506.478 613.998L508.462 610.408L483.623 610.049L487.889 618.018Z" fill="#6EA507"/>
<path d="M519.608 620.352C521.526 614.193 524.327 608.401 527.91 603.192C526.496 603.197 525.084 603.125 523.677 602.976H519.84H511.869L513.886 606.889C514.825 608.789 515.643 610.756 516.334 612.777C516.698 613.746 517.095 614.751 517.492 615.721C517.901 616.754 518.365 617.761 518.881 618.736C519.278 619.67 519.608 620.352 519.608 620.352Z" fill="#6EA507"/>
<path d="M546.101 594.755C544.282 594.755 542.099 594.755 540.346 594.755C540.346 594.252 540.776 594.288 540.776 593.786C539.453 593.786 538.13 593.786 536.774 593.786H532.937H524.999L527.017 597.663C527.579 598.812 528.241 600.068 528.869 601.253C530.432 604.48 532.143 607.619 533.996 610.659C535.15 605.792 536.979 601.144 539.42 596.873C539.924 599.267 541.076 601.442 542.728 603.12C542.948 600.587 543.844 598.179 545.307 596.191L546.101 594.755Z" fill="#6EA507"/>
<path d="M817.581 522.31V509.35H828.562V516.709L817.581 522.31Z" fill="#94564B"/>
<path d="M817.581 509.349L822.344 469.572L831.572 471.259L828.562 509.349H817.581Z" fill="#985C4D"/>
<path d="M822.344 469.572L835.541 424.805L843.28 428L831.572 471.259L822.344 469.572Z" fill="#B16958"/>
<path d="M835.541 424.805L843.28 428L851.747 404.414L845.331 401.47L835.541 424.805Z" fill="#AE6655"/>
<path d="M838.517 417.733L845.761 406.783L850.259 408.542L851.747 404.414L845.331 401.47L838.517 417.733Z" fill="#3D182E"/>
<path d="M821.649 440.314C821.649 440.314 814.24 414.502 814.009 414.753C815.289 414.655 816.561 414.451 817.812 414.143L825.783 439.273L821.649 440.314Z" fill="#985C4E"/>
<path d="M816.357 422.184L820.855 423.728L817.879 414.322L814.009 414.753L816.357 422.184Z" fill="#4F2935"/>
<path d="M842.123 432.236L848.043 422.974V419.312L845.761 421.107L843.28 428L842.123 432.236Z" fill="#B76E5B"/>
<path d="M848.043 422.974L848.771 423.728L840.336 438.878L842.123 432.236L848.043 422.974Z" fill="#331022"/>
<path d="M848.043 422.974L863.721 410.481L862.431 407.322L848.043 419.313V422.974Z" fill="#B86D5C"/>
<path d="M848.771 423.728L863.721 411.486V410.481L848.043 422.974L848.771 423.728Z" fill="#220720"/>
<path d="M841.858 333.511L863.026 339.902L856.411 305.868L841.858 333.511Z" fill="#8BCD01"/>
<path d="M841.858 333.511L851.747 305.868H856.411L841.858 333.511Z" fill="#87C800"/>
<path d="M856.411 305.868L863.026 339.902L888.163 314.843L856.411 305.868Z" fill="#8CD300"/>
<path d="M888.163 314.843L879.795 294.739L856.411 305.868L888.163 314.843Z" fill="#8DCF01"/>
<path d="M856.411 305.868H851.747L879.795 294.739L856.411 305.868Z" fill="#86C900"/>
<path d="M879.795 294.739L888.163 314.843L900.963 318.685L879.795 294.739Z" fill="#588809"/>
<path d="M892.264 347.261L888.163 314.844L863.026 339.902L892.264 347.261Z" fill="#5D8D08"/>
<path d="M841.858 333.511L857.304 356.918H862.662L863.026 339.902L841.858 333.511Z" fill="#456218"/>
<path d="M862.662 356.918L892.264 347.261L863.026 339.902L862.662 356.918Z" fill="#456218"/>
<path d="M867.293 355.41L870.6 358.749L879.795 342.235L875.727 339.902L867.293 355.41Z" fill="#BB7160"/>
<path d="M864.548 346.363L864.415 354.19L867.723 354.333L867.987 345.538L864.548 346.363Z" fill="#94554C"/>
<path d="M864.514 347.44L867.855 349.846L867.987 345.538L864.547 346.363L864.514 347.44Z" fill="#300C2B"/>
<path d="M867.624 328.019L874.205 346.148L884.492 342.343L867.624 328.019Z" fill="#4E7913"/>
<path d="M884.492 342.342L886.906 317.679L867.624 328.018L884.492 342.342Z" fill="#8BCA00"/>
<path d="M886.906 317.679L876.058 306.694L867.624 328.019L886.906 317.679Z" fill="#97DC09"/>
<path d="M884.492 342.342L904.27 329.993L886.906 317.679L884.492 342.342Z" fill="#70AA00"/>
<path d="M874.205 346.148L895.903 347.692L884.492 342.343L874.205 346.148Z" fill="#344615"/>
<path d="M884.492 342.343L895.902 347.692L904.27 329.993L884.492 342.343Z" fill="#405C1A"/>
<path d="M886.906 317.679L904.27 329.993L898.581 307.95L886.906 317.679Z" fill="#75B601"/>
<path d="M876.057 306.694L886.906 317.679L898.582 307.951L876.057 306.694Z" fill="#8ED200"/>
<path d="M815.266 334.122L826.445 355.482L847.745 337.712L842.42 334.373L815.266 334.122Z" fill="#95D900"/>
<path d="M847.745 337.712L853.997 344.784L856.411 353.508L842.883 364.349L826.445 355.482L847.745 337.712Z" fill="#81C200"/>
<path d="M826.445 355.482L800.845 371.206L815.266 334.122L826.445 355.482Z" fill="#94D800"/>
<path d="M826.445 355.482L827.536 384.381L803.193 374.401L800.845 371.206L826.445 355.482Z" fill="#79B100"/>
<path d="M827.537 384.381L842.883 364.349L826.445 355.482L827.537 384.381Z" fill="#669E00"/>
<path d="M860.38 348.841L835.309 367.006L842.883 368.693L860.38 348.841Z" fill="#94D702"/>
<path d="M842.883 368.693H875.165L860.38 348.841L842.883 368.693Z" fill="#97DC0B"/>
<path d="M875.165 368.693L885.848 367.078L860.38 348.841L875.165 368.693Z" fill="#69A200"/>
<path d="M835.309 367.006L833.92 388.043L839.675 397.772L842.883 368.693L835.309 367.006Z" fill="#83C600"/>
<path d="M842.883 368.694L858.032 399.209L839.675 397.773L842.883 368.694Z" fill="#85C500"/>
<path d="M842.883 368.694L858.032 399.209L875.165 368.694H842.883Z" fill="#8BCE00"/>
<path d="M858.032 399.209L881.713 396.48L875.164 368.694L858.032 399.209Z" fill="#88CD00"/>
<path d="M885.848 367.078L881.713 396.48L875.165 368.693L885.848 367.078Z" fill="#406817"/>
<path d="M839.675 397.772L837.79 400.536L858.032 414.143V399.208L839.675 397.772Z" fill="#385016"/>
<path d="M858.032 399.208V414.143L869.211 407.035L860.975 398.885L858.032 399.208Z" fill="#2E3114"/>
<path d="M855.65 390.952L879.365 368.694L875.165 404.594L855.65 390.952Z" fill="#98DA09"/>
<path d="M875.165 404.594L907.479 389.767L879.365 368.694L875.165 404.594Z" fill="#96DA0C"/>
<path d="M907.479 389.767L906.751 367.616L879.365 368.693L907.479 389.767Z" fill="#83C400"/>
<path d="M907.479 389.767L918.757 401.003L906.751 367.616L907.479 389.767Z" fill="#477013"/>
<path d="M907.479 389.767L899.971 424.195L918.757 401.003L907.479 389.767Z" fill="#416114"/>
<path d="M907.479 389.767L875.165 404.593L899.971 424.195L907.479 389.767Z" fill="#416114"/>
<path d="M875.165 404.594L868.285 423.979L899.971 424.195L875.165 404.594Z" fill="#426814"/>
<path d="M875.165 404.593L868.285 423.979L855.65 390.951L875.165 404.593Z" fill="#71AC02"/>
<path d="M836.698 371.206L840.932 398.562L822.641 379.212L836.698 371.206Z" fill="#5C9106"/>
<path d="M822.641 379.212L808.254 365.175L836.698 371.207L822.641 379.212Z" fill="#88CB00"/>
<path d="M808.254 365.175L795.718 388.546L822.642 379.212L808.254 365.175Z" fill="#9BDF0D"/>
<path d="M795.718 388.546L793.238 386.105L808.254 365.175L795.718 388.546Z" fill="#89CE00"/>
<path d="M795.718 388.546L816.026 409.619L822.642 379.212L795.718 388.546Z" fill="#92D300"/>
<path d="M795.718 388.546L798.034 413.747L816.027 409.619L795.718 388.546Z" fill="#6FA600"/>
<path d="M793.238 386.105L795.718 388.546L798.034 413.748L793.238 386.105Z" fill="#68A201"/>
<path d="M822.641 379.212L816.026 409.619L840.932 398.562L822.641 379.212Z" fill="#6BA001"/>
<path d="M816.026 409.619L824.89 419.312L840.932 398.562L816.026 409.619Z" fill="#3B5115"/>
<path d="M798.034 413.748L824.89 419.312L816.026 409.619L798.034 413.748Z" fill="#3D5714"/>
<path d="M829.025 461.423L824.56 462.069L821.649 440.314L825.783 439.416L829.025 461.423Z" fill="#9B5D4F"/>
<path d="M879.795 530.853L894.612 527.658L924.38 528.412V527.515L898.284 526.797L910.852 524.176L924.082 526.402L951.27 532.972L954.908 534.838L959.406 533.869L974.158 532.074L978.358 528.484L979.02 524.14L952.56 521.699L957.918 518.109L954.147 516.781L961.722 515.452L967.245 517.104L988.115 515.452L989.67 511.324L983.055 509.637L955.338 513.945L958.646 515.057L953.321 516.314H948.591L945.482 515.56L945.217 515.022L905.527 510.678L908.041 506.262L889.916 506.765L879.795 513.083L886.41 515.237L867.921 517.319L863.257 521.484L874.834 528.089L878.141 525.827L893.356 525.217L876.256 529.094L879.795 530.853Z" fill="#365C15"/>
<path d="M905.395 510.749L934.203 505.221L935.46 511.037L942.274 513.514V506.513L939.462 504.216L943.53 503.426L945.151 509.349L945.217 515.093L905.395 510.749Z" fill="#37192F"/>
<path d="M945.151 509.349L945.217 507.267L955.603 514.016L983.055 509.601L981.401 507.052L982.261 500.195L974.852 489.317L943.531 503.426L945.151 509.349Z" fill="#432338"/>
<path d="M905.395 510.749L934.203 505.221L934.699 504.287L939.462 504.216L943.53 503.426L974.853 489.317L965.79 489.999L944.027 495.097L931.657 501.667L923.156 501.344L907.909 506.334L905.395 510.749Z" fill="#3B6A13"/>
<path d="M532.607 519.007L530.887 496.856L538.461 494.81L540.611 510.786L532.607 519.007Z" fill="#422334"/>
<path d="M538.461 494.81L532.177 458.479L525.363 461.998L530.887 496.857L538.461 494.81Z" fill="#462434"/>
<path d="M540.611 510.785L542.496 510.283L540.214 495.133L538.461 494.81L540.611 510.785Z" fill="#2F132B"/>
<path d="M538.461 494.81L540.214 495.133L533.235 458.946L532.177 458.479L538.461 494.81Z" fill="#2B1027"/>
<path d="M538.263 484.938L545.076 463.577L542.496 457.474L536.047 473.521L538.263 484.938Z" fill="#35132A"/>
<path d="M507.966 397.521L510.248 418.343L518.12 398.777L507.966 397.521Z" fill="#91D501"/>
<path d="M507.966 397.521L518.12 398.777L525.826 385.351L507.966 397.521Z" fill="#96DA05"/>
<path d="M518.12 398.777L539.883 398.418L525.826 385.351L518.12 398.777Z" fill="#89CD00"/>
<path d="M539.883 398.418L541.901 396.3L525.826 385.351L539.883 398.418Z" fill="#548709"/>
<path d="M518.12 398.777L510.248 418.343L530.291 419.133L518.12 398.777Z" fill="#7EBE02"/>
<path d="M530.291 419.132L539.883 398.418L518.12 398.777L530.291 419.132Z" fill="#7ABA00"/>
<path d="M530.291 419.132L544.481 417.337L539.883 398.418L530.291 419.132Z" fill="#3A5E17"/>
<path d="M530.291 419.133L529.002 424.051L531.78 426.313L544.481 417.338L530.291 419.133Z" fill="#2C3815"/>
<path d="M529.002 424.051L516.036 422.292L510.248 418.343L530.291 419.133L529.002 424.051Z" fill="#354816"/>
<path d="M539.883 398.419L544.481 417.338L541.901 396.301L539.883 398.419Z" fill="#334D16"/>
<path d="M502.674 406.819L502.31 420.102L511.108 422.579L502.674 406.819Z" fill="#364B16"/>
<path d="M502.31 420.102L487.096 410.086L502.674 406.819L502.31 420.102Z" fill="#85C700"/>
<path d="M487.095 410.086L486.665 407.178L502.674 406.819L487.095 410.086Z" fill="#85CB00"/>
<path d="M486.666 407.178L478 421.215L486.666 429.293L487.096 410.086L486.666 407.178Z" fill="#92D400"/>
<path d="M487.095 410.086L486.665 429.292L502.31 420.102L487.095 410.086Z" fill="#8ACC00"/>
<path d="M478 421.215L486.665 437.262V429.292L478 421.215Z" fill="#619800"/>
<path d="M486.665 437.262L502.31 436.831L486.665 429.292V437.262Z" fill="#3B5A19"/>
<path d="M486.665 429.292L502.31 436.831V420.102L486.665 429.292Z" fill="#476E17"/>
<path d="M502.31 420.102V436.831L511.108 422.579L502.31 420.102Z" fill="#2D3F15"/>
<path d="M542.992 420.497L558.405 428.467L569.783 418.846L542.992 420.497Z" fill="#8BCC00"/>
<path d="M558.405 428.467L580.962 442.109L569.783 418.846L558.405 428.467Z" fill="#6BA800"/>
<path d="M558.405 428.467L535.154 445.232L542.992 420.497L558.405 428.467Z" fill="#6BA800"/>
<path d="M535.154 445.232L560.522 458.946L558.405 428.467L535.154 445.232Z" fill="#8BD000"/>
<path d="M560.522 458.946L580.962 442.109L558.405 428.467L560.522 458.946Z" fill="#69A502"/>
<path d="M580.962 442.109L573.256 466.413L560.522 458.946L580.962 442.109Z" fill="#334F15"/>
<path d="M573.256 466.413L545.671 468.316L560.522 458.946L573.256 466.413Z" fill="#2F4917"/>
<path d="M545.671 468.316L535.154 445.232L560.522 458.946L545.671 468.316Z" fill="#619602"/>
<path d="M546.002 422.076L551.724 419.958L542.992 420.497L546.002 422.076Z" fill="#304212"/>
<path d="M546.002 422.077L540.413 431.59L543.455 439.237L535.154 445.232L542.992 420.497L546.002 422.077Z" fill="#334815"/>
<path d="M543.455 439.237L547.358 444.873L546.366 451.299L535.154 445.232L543.455 439.237Z" fill="#365916"/>
<path d="M546.366 451.299L552.452 464.044L545.671 468.316L535.154 445.232L546.366 451.299Z" fill="#354D15"/>
<path d="M556.619 461.423L555.66 456.325L560.522 458.946L556.619 461.423Z" fill="#375615"/>
<path d="M555.66 456.325L557.711 454.746L560.357 456.756L560.522 458.946L555.66 456.325Z" fill="#406615"/>
<path d="M560.357 456.756L562.01 457.725L560.522 458.945L560.357 456.756Z" fill="#406C15"/>
<path d="M504.493 454.243L512.795 433.062L501.152 430.764L504.493 454.243Z" fill="#92D907"/>
<path d="M512.795 433.062L521.262 417.338L501.152 430.764L512.795 433.062Z" fill="#9DE118"/>
<path d="M512.795 433.062L536.874 432.523L521.262 417.338L512.795 433.062Z" fill="#90D704"/>
<path d="M536.873 432.523L539.222 429.939L521.262 417.338L536.873 432.523Z" fill="#548A0A"/>
<path d="M504.493 454.243L525.826 456.11L512.795 433.062L504.493 454.243Z" fill="#83C002"/>
<path d="M525.826 456.109L536.874 432.523L512.795 433.062L525.826 456.109Z" fill="#7CBE00"/>
<path d="M525.826 456.109L543.257 453.345L536.873 432.523L525.826 456.109Z" fill="#375A17"/>
<path d="M536.874 432.523L543.257 453.345L539.222 429.938L536.874 432.523Z" fill="#305013"/>
<path d="M504.493 454.243L522.188 466.7L525.826 456.109L504.493 454.243Z" fill="#354C15"/>
<path d="M522.188 466.7L543.257 453.345L525.826 456.11L522.188 466.7Z" fill="#2F4415"/>
<path d="M442.213 520.622L425.609 483.394L418.663 483.573L434.506 525.684L442.213 520.622Z" fill="#8E5548"/>
<path d="M418.663 483.573L415.687 444.694L421.21 446.884L425.609 483.394L418.663 483.573Z" fill="#8E5548"/>
<path d="M421.21 446.883L422.467 446.309L427.362 482.281L425.609 483.394L421.21 446.883Z" fill="#31152D"/>
<path d="M425.609 483.394L442.213 520.622L448.629 524.32L427.362 482.281L425.609 483.394Z" fill="#2F112C"/>
<path d="M415.687 444.694L414.595 426.457L419.06 423.333L421.21 446.884L415.422 444.694H415.687Z" fill="#532C36"/>
<path d="M421.21 446.884L422.467 446.309L420.152 423.333H419.06L421.21 446.884Z" fill="#402031"/>
<path d="M421.078 432.308L423.459 421.107L427.362 418.846L422.169 443.078L421.078 432.308Z" fill="#412337"/>
<path d="M417.969 474.419L406.69 456.11L405.599 451.874L406.723 450.043L422.103 473.809L417.969 474.419Z" fill="#412337"/>
<path d="M422.103 473.809L417.175 464.116L407.815 449.54L406.723 450.043L422.103 473.809Z" fill="#321228"/>
<path d="M405.599 451.873L403.68 447.888L406.723 450.042L405.599 451.873Z" fill="#93584C"/>
<path d="M404.904 453.346L396.503 446.955L398.256 444.119L403.68 447.889L405.599 451.874L404.904 453.346Z" fill="#4E2934"/>
<path d="M406.723 450.043L403.68 447.889L398.256 444.119L398.653 443.042L407.881 449.54L406.723 450.043Z" fill="#16011C"/>
<path d="M373.317 455.571L392.633 456.253L387.573 446.309L373.317 455.571Z" fill="#3D5D15"/>
<path d="M369.547 436.042L373.318 455.572L387.573 446.309L369.547 436.042Z" fill="#75AF01"/>
<path d="M369.547 436.042L364.09 440.278L373.318 455.572L369.547 436.042Z" fill="#7DBC00"/>
<path d="M369.547 436.041L387.573 446.309L387.11 424.589L369.547 436.041Z" fill="#89C901"/>
<path d="M364.09 440.278L369.547 436.042L372.226 421.538L363.924 440.278H364.09Z" fill="#92D600"/>
<path d="M387.573 446.309L392.633 456.253L401.034 438.231L387.573 446.309Z" fill="#3C5015"/>
<path d="M387.11 424.589L387.573 446.309L401.034 438.231L387.11 424.589Z" fill="#476B14"/>
<path d="M372.226 421.538L369.547 436.042L387.11 424.59L372.226 421.538Z" fill="#92D600"/>
<path d="M387.11 424.589L401.034 438.231L391.873 422.794L387.11 424.589Z" fill="#364A16"/>
<path d="M391.873 422.795L372.226 421.538L387.11 424.59L391.873 422.795Z" fill="#73AC01"/>
<path d="M388.565 424.015L397.793 432.739L391.873 422.794L388.565 424.015Z" fill="#23180E"/>
<path d="M391.873 422.794L385.225 423.046L388.565 424.015L391.873 422.794Z" fill="#221F0E"/>
<path d="M441.353 409.332L456.964 398.741L439.6 398.957L441.353 409.332Z" fill="#385615"/>
<path d="M450.945 377.525L439.6 398.957L456.964 398.742L450.945 377.525Z" fill="#3A6213"/>
<path d="M450.945 377.525L456.964 398.741L454.417 376.34L450.945 377.525Z" fill="#385813"/>
<path d="M450.945 377.525L437.483 364.457L454.417 376.34L450.945 377.525Z" fill="#578A08"/>
<path d="M450.945 377.525L439.6 398.957L435.697 378.135L450.945 377.525Z" fill="#80C100"/>
<path d="M450.945 377.525L435.697 378.135L434.837 367.15L437.483 364.457L450.945 377.525Z" fill="#90D306"/>
<path d="M445.653 387.541L445.95 378.997L445.189 377.74L435.697 378.135L439.6 398.957L445.653 387.541Z" fill="#344E15"/>
<path d="M445.19 377.74L436.755 365.175L434.837 367.15L435.697 378.135L445.19 377.74Z" fill="#334B17"/>
<path d="M384.497 386.679L369.845 366.647L376.46 357.708L384.497 386.679Z" fill="#76B000"/>
<path d="M376.46 357.708L384.497 386.679L406.558 373.073L376.46 357.708Z" fill="#689F01"/>
<path d="M376.46 357.708L406.558 373.073L402.986 338.107L376.46 357.708Z" fill="#85C700"/>
<path d="M402.986 338.107L406.558 373.073L427.561 357.17L402.986 338.107Z" fill="#4E7713"/>
<path d="M402.986 338.106L427.561 357.169L411.685 334.911L402.986 338.106Z" fill="#4D7A10"/>
<path d="M369.845 366.647L380.495 334.911L376.46 357.708L369.845 366.647Z" fill="#8DD000"/>
<path d="M380.495 334.911L376.46 357.708L402.986 338.106L380.495 334.911Z" fill="#95D903"/>
<path d="M380.362 334.911C380.362 334.911 402.82 337.711 402.854 338.106C405.809 337.23 408.714 336.163 411.552 334.911H380.362Z" fill="#7ABF00"/>
<path d="M382.049 419.671L409.965 429.292L382.049 399.926V419.671Z" fill="#588311"/>
<path d="M409.965 429.292L420.78 393.931L382.049 399.926L409.965 429.292Z" fill="#6BA300"/>
<path d="M420.78 393.931L409.965 429.292L441.948 410.409L420.78 393.931Z" fill="#416515"/>
<path d="M382.049 399.926L375.17 379.176L382.049 419.671V399.926Z" fill="#7FBC04"/>
<path d="M382.049 399.926L420.78 393.931L398.355 362.339L382.049 399.926Z" fill="#93D706"/>
<path d="M382.049 399.926L375.17 379.176L398.355 362.339L382.049 399.926Z" fill="#96DA05"/>
<path d="M398.355 362.339L420.78 393.931L435.697 368.478L398.355 362.339Z" fill="#96DA05"/>
<path d="M427.66 382.228L418.564 365.678L435.697 368.478L427.66 382.228Z" fill="#374919"/>
<path d="M435.697 368.478L420.78 393.931L441.948 410.409L435.697 368.478Z" fill="#3B5A17"/>
<path d="M427.23 339.507L438.641 357.169L437.913 347.153L427.23 339.507Z" fill="#4C7013"/>
<path d="M438.641 357.17L456.137 354.693L437.913 347.154L438.641 357.17Z" fill="#354617"/>
<path d="M437.913 347.153L456.137 354.692L455.145 334.229L437.913 347.153Z" fill="#4D7A0F"/>
<path d="M437.913 347.153L436.59 323.531L427.23 339.507L437.913 347.153Z" fill="#8DD300"/>
<path d="M437.913 347.153L455.145 334.229L436.59 323.531L437.913 347.153Z" fill="#8ACD01"/>
<path d="M436.59 323.531L455.145 334.23L454.351 319.403L436.59 323.531Z" fill="#80C301"/>
<path d="M455.145 334.23L466.159 337.568L454.351 319.403L455.145 334.23Z" fill="#477017"/>
<path d="M455.145 334.229L456.137 354.692L466.159 337.568L455.145 334.229Z" fill="#3C6015"/>
<path d="M425.907 342.163L412.611 351.138L419.424 351.425L425.907 342.163Z" fill="#98DD12"/>
<path d="M412.611 351.138L413.801 366.432L419.424 351.425L412.611 351.138Z" fill="#98DC0C"/>
<path d="M419.424 351.425L435.962 351.569L425.907 342.163L419.424 351.425Z" fill="#8CCF00"/>
<path d="M413.801 366.432L428.321 366.934L419.424 351.426L413.801 366.432Z" fill="#88C600"/>
<path d="M428.321 366.934L435.962 351.569L419.424 351.426L428.321 366.934Z" fill="#80C000"/>
<path d="M435.962 351.569L438.938 350.779L425.907 342.163L435.962 351.569Z" fill="#5B8C0B"/>
<path d="M435.962 351.569L439.997 366.647L438.938 350.78L435.962 351.569Z" fill="#365117"/>
<path d="M435.962 351.569L428.321 366.934L439.997 366.647L435.962 351.569Z" fill="#3C5C16"/>
<path d="M413.801 366.432L427.561 375.73L428.321 366.934L413.801 366.432Z" fill="#466615"/>
<path d="M427.561 375.73L439.997 366.647L428.321 366.934L427.561 375.73Z" fill="#3F5B16"/>
<path d="M405.599 451.874L404.904 453.345L406.624 455.93L405.599 451.874Z" fill="#441928"/>
<path d="M509.587 518.54V520.873L489.973 526.545L467.978 526.868L456.435 530.458L460.999 534.3H472.609L477.107 532.576H478.761L474.825 536.346L476.71 537.243L499.862 531.212L505.717 532.612L520.766 531.464L532.177 514.914V513.37L509.587 518.54ZM483.623 533.366L485.739 530.853L488.22 530.387L490.171 529.525L495.397 530.746L483.623 533.366Z" fill="#345819"/>
<path d="M577.357 519.509L584.865 520.622L607.356 519.007L612.979 515.417L607.422 513.909L633.882 509.493L636.76 504.826C636.76 504.826 624.125 504.108 624.191 503.929C624.257 503.749 624.191 501.164 624.191 501.164L606.265 500.267L585.626 503.641L584.931 506.801L575.935 507.16L582.881 503.929L575.935 502.564L564.722 503.175L574.843 516.314L584.005 514.16L592.638 513.011L599.253 513.981L584.071 515.309L577.357 519.509Z" fill="#385F16"/>
<path d="M370.738 514.985L369.481 527.55L377.353 529.381L370.738 514.985Z" fill="#7BB902"/>
<path d="M370.738 514.985L377.353 529.381L387.639 530.099L395.246 515.703L370.738 514.985Z" fill="#8ACD02"/>
<path d="M395.246 515.703L387.639 530.099L402.953 528.34L395.246 515.703Z" fill="#477417"/>
<path d="M395.246 515.704L402.953 528.34L410.196 526.258L412.247 511.755L395.246 515.704Z" fill="#325018"/>
<path d="M412.247 511.755L411.42 524.14L410.196 526.258L412.247 511.755Z" fill="#2D4119"/>
<path d="M395.246 515.704L389.855 497.359L412.247 511.755L395.246 515.704Z" fill="#6AA606"/>
<path d="M389.855 497.359L373.615 510.283L370.738 514.986L395.246 515.704L389.855 497.359Z" fill="#91D400"/>
<path d="M402.953 528.34L410.196 526.258C410.196 526.258 411.42 524.284 411.42 524.14C411.42 523.996 411.684 520.299 411.684 520.299L422.566 523.35L411.585 526.653L402.953 528.34Z" fill="#2D4719"/>
<path d="M456.567 503.749L457.427 514.16L458.651 514.662L461.892 505.723L456.567 503.749Z" fill="#96D910"/>
<path d="M461.892 505.723L477.57 505.938L472.741 515.129L458.651 514.662L461.892 505.723Z" fill="#79B901"/>
<path d="M477.57 505.938L472.741 515.129L481.307 511.718L477.57 505.938Z" fill="#315217"/>
<path d="M477.57 505.939L481.307 511.719L481.407 502.959L477.57 505.939Z" fill="#324D19"/>
<path d="M456.567 503.749L461.892 505.723L468.772 495.348L456.567 503.749Z" fill="#99DF12"/>
<path d="M461.892 505.723L477.57 505.939L468.772 495.348L461.892 505.723Z" fill="#8FD401"/>
<path d="M468.772 495.348L477.57 505.939L481.407 502.959L468.772 495.348Z" fill="#588914"/>
<path d="M481.34 510.282L488.22 510.534L484.747 513.298L472.741 515.129L481.307 511.718L481.34 510.282Z" fill="#2E4918"/>
<path d="M421.574 533.689L422.632 558.029L430.008 538.105L421.574 533.689Z" fill="#95DA0C"/>
<path d="M421.574 533.69L430.008 538.105L441.617 519.904L421.574 533.69Z" fill="#9DE319"/>
<path d="M430.008 538.105L455.906 536.849L444.561 560.184L422.632 558.03L430.008 538.105Z" fill="#7DBE00"/>
<path d="M455.906 536.849L444.561 560.184L463.678 556.558L455.906 536.849Z" fill="#345519"/>
<path d="M441.617 519.904L455.906 536.849L430.008 538.105L441.617 519.904Z" fill="#90D404"/>
<path d="M441.617 519.904L455.906 536.849L462.289 531.859L441.617 519.904Z" fill="#578A11"/>
<path d="M462.289 531.858L463.678 556.557L455.906 536.848L462.289 531.858Z" fill="#314F19"/>
<path d="M466.986 556.63L463.182 548.121L462.918 543.275L474.329 544.352L466.986 556.63Z" fill="#8DCE01"/>
<path d="M466.986 556.629L463.579 554.691L463.182 548.121L466.986 556.629Z" fill="#170B06"/>
<path d="M466.986 556.629C467.251 556.629 481.473 555.552 481.473 555.552L474.329 544.351L466.986 556.629Z" fill="#5A8E12"/>
<path d="M481.473 555.552L484.813 541.839L474.329 544.352L481.473 555.552Z" fill="#41671A"/>
<path d="M484.813 541.839L484.317 553.075L481.473 555.552L484.813 541.839Z" fill="#283213"/>
<path d="M472.543 533.617L474.329 544.351L484.813 541.838L472.543 533.617Z" fill="#73B100"/>
<path d="M472.542 533.617L462.885 542.341L462.918 543.274L474.329 544.351L472.542 533.617Z" fill="#96DD0A"/>
<path d="M444.561 560.184L466.986 556.63L463.579 554.691L463.678 556.558L444.561 560.184Z" fill="#2B4617"/>
<path d="M466.986 556.63L468.077 554.763L469.103 550.491L465.861 543.562L462.918 543.275L463.182 548.121L466.986 556.63Z" fill="#335119"/>
<path d="M465.861 543.562L465.332 540.115L462.885 542.341L462.918 543.274L465.861 543.562Z" fill="#334B19"/>
<path d="M519.443 523.027L520.237 534.264L522.453 535.197L526.587 525.684L519.443 523.027Z" fill="#95DB10"/>
<path d="M522.453 535.197L539.321 535.915L526.587 525.684L522.453 535.197Z" fill="#7FC201"/>
<path d="M526.587 525.684L539.321 535.915L544.613 524.894L526.587 525.684Z" fill="#7BBD00"/>
<path d="M544.613 524.894L539.321 535.915L548.02 533.725L544.613 524.894Z" fill="#314D18"/>
<path d="M544.613 524.894L547.921 533.725C547.921 533.725 547.722 521.77 547.722 521.698C547.722 521.627 544.613 524.894 544.613 524.894Z" fill="#2E4619"/>
<path d="M519.443 523.027L526.587 525.684L533.996 513.083L519.443 523.027Z" fill="#9BE41A"/>
<path d="M526.587 525.684L544.613 524.894L533.996 513.083L526.587 525.684Z" fill="#93D605"/>
<path d="M533.996 513.083L544.613 524.894L547.821 521.699L533.864 513.083H533.996Z" fill="#578A12"/>
<path d="M535.187 511.647V513.908L544.646 519.76L546.035 515.775L535.187 511.647Z" fill="#94D707"/>
<path d="M546.035 515.775L553.775 529.561L547.954 529.166L547.821 521.699L544.646 519.76L546.035 515.775Z" fill="#78B200"/>
<path d="M553.775 529.561L564.888 529.454L572.197 514.591L546.035 515.776L553.775 529.561Z" fill="#7ABA01"/>
<path d="M572.197 514.591L564.888 529.453L576.993 526.689L572.197 514.591Z" fill="#33541A"/>
<path d="M572.197 514.59L576.993 526.689L576.1 510.354L572.197 514.59Z" fill="#2E4B16"/>
<path d="M576.1 510.354L556.487 497.717L572.198 514.59L576.1 510.354Z" fill="#578A11"/>
<path d="M556.487 497.717L546.035 515.775L572.197 514.59L556.487 497.717Z" fill="#92D907"/>
<path d="M556.487 497.717L546.035 515.775L535.187 511.646L556.487 497.717Z" fill="#9BE316"/>
<path d="M539.321 535.915L552.154 533.761L554.767 530.386L553.775 529.561L547.954 529.166L548.02 533.725L539.321 535.915Z" fill="#324B1B"/>
<path d="M576.696 521.088L585.791 521.914L581.955 526.761L564.888 529.453L576.993 526.689L576.696 521.088Z" fill="#315217"/>
<path d="M661.103 482.281L664.973 503.103L674.465 484.973L661.103 482.281Z" fill="#95DB07"/>
<path d="M674.465 484.973L686.571 504.252L664.973 503.103L674.465 484.973Z" fill="#77B700"/>
<path d="M674.465 484.973L686.571 504.252L696.063 484.076L674.465 484.973Z" fill="#74B301"/>
<path d="M696.063 484.076L698.941 501.667L686.571 504.252L696.063 484.076Z" fill="#314C18"/>
<path d="M696.063 484.075L680.485 469.321L674.465 484.973L696.063 484.075Z" fill="#8FD301"/>
<path d="M680.485 469.321L674.465 484.973L661.103 482.28L680.485 469.321Z" fill="#9CE10F"/>
<path d="M696.063 484.075L695.236 479.947L680.485 469.321L696.063 484.075Z" fill="#5A9011"/>
<path d="M698.081 496.317L706.747 496.748L707.706 499.979L698.941 501.667L698.081 496.317Z" fill="#2E4F1A"/>
<path d="M740.516 513.801L739.788 531.104L747.296 535.664L740.516 513.801Z" fill="#74B304"/>
<path d="M740.516 513.801L747.297 535.664L759.137 516.134L740.516 513.801Z" fill="#96DA0A"/>
<path d="M759.137 516.134L747.297 535.664L770.284 535.556L759.137 516.134Z" fill="#6FAD01"/>
<path d="M759.137 516.134L770.284 535.556L777.362 513.836L759.137 516.134Z" fill="#5E940C"/>
<path d="M740.516 513.801L759.137 516.134L758.674 499.943L740.516 513.801Z" fill="#9FE518"/>
<path d="M758.674 499.943L759.137 516.134L777.362 513.837L758.674 499.943Z" fill="#86CB00"/>
<path d="M777.362 513.836L776.502 531.284L770.284 535.556L777.362 513.836Z" fill="#2E3F16"/>
<path d="M776.733 526.689L780.504 526.725L787.417 530.781L770.284 535.556L776.502 531.284L776.733 526.689Z" fill="#304F1A"/>
<path d="M801.97 528.843L803.226 559.538L814.935 535.556L801.97 528.843Z" fill="#8CD100"/>
<path d="M803.226 559.537L829.389 563.953L814.935 535.556L803.226 559.537Z" fill="#82C500"/>
<path d="M829.389 563.953L835.904 564.061L851.45 536.059L814.935 535.556L829.389 563.953Z" fill="#8ED101"/>
<path d="M851.45 536.059L835.904 564.061L858.859 560.291L851.45 536.059Z" fill="#466F1A"/>
<path d="M858.859 560.291L859.222 529.633L851.45 536.059L858.859 560.291Z" fill="url(#paint25_linear)"/>
<path d="M832.002 511.36L801.97 528.843L814.935 535.556L832.002 511.36Z" fill="#9CE216"/>
<path d="M832.002 511.36L814.935 535.556L851.45 536.059L832.002 511.36Z" fill="#9ADF12"/>
<path d="M832.001 511.36L851.45 536.059L859.222 529.633L832.001 511.36Z" fill="#639E09"/>
<path d="M854.46 526.402L866.069 519.868L876.752 533.474L859.189 533.223L859.222 529.633L854.46 526.402Z" fill="#95D706"/>
<path d="M859.189 533.223L859.123 536.956L864.415 546.685L869.31 546.757L876.752 533.474L859.189 533.223Z" fill="#83C500"/>
<path d="M859.123 536.957L859.024 545.788L864.415 546.685L859.123 536.957Z" fill="#7CBB00"/>
<path d="M876.752 533.474L869.31 546.757L880.258 544.819L876.752 533.474Z" fill="#41641A"/>
<path d="M876.752 533.474L880.258 544.818C880.258 544.531 880.655 529.919 880.655 529.919L876.752 533.474Z" fill="#2F4719"/>
<path d="M866.069 519.868L876.752 533.474L880.655 529.92L866.069 519.868Z" fill="#669F09"/>
<path d="M858.991 549.665L871.361 551.926L864.779 558.496L858.859 560.291L858.991 549.665Z" fill="#2F4B18"/>
<path d="M880.324 540.008L886.509 540.941L882.871 544.316L880.258 544.818L880.324 540.008Z" fill="#2F4718"/>
<path d="M923.619 525.684L923.983 535.018L925.769 537.208L923.619 525.684Z" fill="#548715"/>
<path d="M925.769 537.208L930.797 538.464L936.585 528.556L923.619 525.684L925.769 537.208Z" fill="#91D709"/>
<path d="M930.797 538.464L940.851 539.218L936.585 528.556L930.797 538.464Z" fill="#7AB901"/>
<path d="M940.851 539.218L948.293 538.715L953.023 528.268L936.585 528.556L940.851 539.218Z" fill="#77B600"/>
<path d="M953.023 528.268L953.321 537.028L948.293 538.715L953.023 528.268Z" fill="#304A17"/>
<path d="M939.694 515.883L936.585 528.556L953.023 528.268L939.694 515.883Z" fill="#8ED101"/>
<path d="M939.694 515.883L923.619 525.684L936.585 528.556L939.694 515.883Z" fill="#98DD0F"/>
<path d="M939.694 515.883L953.023 528.268L950.212 524.14L939.694 515.883Z" fill="#528611"/>
<path d="M953.189 533.402H954.71L956.827 536.633L948.293 538.787L953.321 537.028L953.189 533.402Z" fill="#2F4519"/>
<path d="M684.586 455.679V467.849L680.154 466.7V454.386L684.586 455.679Z" fill="#FFFEFE"/>
<path d="M693.45 455.679H684.586V467.849H693.45V455.679Z" fill="#EAEDEA"/>
<path d="M693.45 455.679L697.023 454.386V466.736L693.45 467.849V455.679Z" fill="#91BBB9"/>
<path d="M697.023 454.386L693.45 455.679H684.586L680.154 454.386L684.586 453.022H692.624L697.023 454.386Z" fill="#F9F9FA"/>
<path d="M686.505 454.925L687.795 321.556H685.744L684.222 454.279L686.505 454.925Z" fill="#FFFEFE"/>
<path d="M686.505 454.925H690.97L691.301 321.808L687.795 321.556L686.505 454.925Z" fill="url(#paint26_linear)"/>
<path d="M690.97 454.925L693.02 454.35L692.987 321.771L691.301 321.807L690.97 454.925Z" fill="url(#paint27_linear)"/>
<path d="M682.469 313.371L607.323 331.106L604.512 336.096L683.693 320.515L682.469 313.371Z" fill="#F5F6F7"/>
<path d="M695.336 309.637L719.943 227.462L717.43 221.898L689.018 307.196L695.336 309.637Z" fill="#F8F9F8"/>
<path d="M691.797 323.495L741.145 385.997H746.503L696.692 318.936L691.797 323.495Z" fill="#F8F9F8"/>
<path d="M693.649 321.736L693.682 324.105L692.921 324.895L691.764 323.459L693.649 321.736Z" fill="#BCC9C7"/>
<path d="M685.612 332.685L687.762 327.265L687.795 321.556H685.744L685.612 332.685Z" fill="#C3CED4"/>
<path d="M687.762 327.264L691.268 326.546L691.301 321.808L687.795 321.556L687.762 327.264Z" fill="#ABBEB8"/>
<path d="M704.299 329.203L704.464 332.865L702.017 336.455L691.764 323.459L696.692 318.936L704.299 329.203Z" fill="#B3C8C9"/>
<path d="M684.421 313.371L685.479 319.51L690.904 321.592L695.27 317.535L694.211 311.396L688.787 309.314L684.421 313.371Z" fill="#F5F6F7"/>
<path d="M688.39 306.945L688.787 309.314L684.421 313.371L682.337 312.581L688.39 306.945Z" fill="#E3EAEF"/>
<path d="M694.211 311.397L695.898 309.817L688.39 306.945L688.787 309.314L694.211 311.397Z" fill="#FAFBFB"/>
<path d="M697.353 318.325L695.27 317.536L694.211 311.397L695.898 309.817L697.353 318.325Z" fill="#F9FAF9"/>
<path d="M697.353 318.325L691.301 323.926L690.904 321.592L695.27 317.535L697.353 318.325Z" fill="#C2CEC7"/>
<path d="M691.301 323.926L683.793 321.054L685.479 319.51L690.904 321.592L691.301 323.926Z" fill="#A6C1A5"/>
<path d="M683.793 321.054L685.479 319.51L684.421 313.371L682.337 312.582L683.793 321.054Z" fill="#BACBD5"/>
<path d="M727.948 361.046L730.726 372.822L739.689 384.13L737.705 374.15L727.948 361.046Z" fill="#B7CBCE"/>
<path d="M697.023 466.736L702.116 465.156L703.737 462.392L697.023 463.505V466.736Z" fill="#325112"/>
<path d="M700.826 467.418L737.242 445.268L745.18 449.217L753.779 448.14L758.509 445.77V443.006H785.267L781.298 439.739L728.774 444.227L725.004 446.416L710.881 450.042L709.789 451.909L718.323 449.576L718.455 450.437L706.945 456.863L700.826 467.418Z" fill="#3D6617"/>
<path d="M633.188 473.629V493.015L640.266 491.184V471.547L633.188 473.629Z" fill="#91BBB9"/>
<path d="M633.221 473.628H619.098V493.014H633.221V473.628Z" fill="#EAEDEA"/>
<path d="M619.098 473.629L613.409 471.547V491.22L619.098 493.015V473.629Z" fill="#FFFEFE"/>
<path d="M613.409 471.547L619.098 473.629H633.188L640.266 471.547L633.188 469.393H620.421L613.409 471.547Z" fill="#F9F9FA"/>
<path d="M630.145 472.408L628.094 260.095H631.336L633.816 471.403L630.145 472.408Z" fill="url(#paint28_linear)"/>
<path d="M630.145 472.408H623.034L622.538 260.49L628.094 260.095L630.145 472.408Z" fill="url(#paint29_linear)"/>
<path d="M623.034 472.408L619.792 471.511L619.826 260.455L622.538 260.49L623.034 472.408Z" fill="#FFFEFE"/>
<path d="M622.538 281.456L626.937 276.071L628.26 277.507L628.094 260.095L622.538 260.49V281.456Z" fill="#BEC9CD"/>
<path d="M622.538 281.456L619.826 296.713L619.792 282.461L622.538 267.993V281.456Z" fill="#C5CFDA"/>
<path d="M622.538 266.737L619.792 263.686L619.826 260.455L622.538 260.49V266.737Z" fill="#B9C6D1"/>
<path d="M633.485 247.064L631.799 256.829L623.166 260.131L616.22 253.669L617.907 243.905L626.54 240.602L633.485 247.064Z" fill="#F5F6F7"/>
<path d="M627.168 236.868L626.54 240.602L633.485 247.064L636.793 245.771L627.168 236.868Z" fill="#E3EAEF"/>
<path d="M617.907 243.905L615.228 241.427L627.168 236.868L626.54 240.602L617.907 243.905Z" fill="#FAFBFB"/>
<path d="M612.913 254.926L616.22 253.669L617.907 243.905L615.228 241.427L612.913 254.926Z" fill="#F9FAF9"/>
<path d="M612.913 254.926L622.538 263.865L623.166 260.131L616.22 253.669L612.913 254.926Z" fill="#C2CEC7"/>
<path d="M622.538 263.865L634.478 259.306L631.799 256.829L623.166 260.131L622.538 263.865Z" fill="#A6C1A5"/>
<path d="M634.478 259.306L631.799 256.828L633.485 247.064L636.793 245.771L634.478 259.306Z" fill="#BACBD5"/>
<path d="M636.561 247.064L756.227 275.317L760.659 283.215L634.61 258.444L636.561 247.064Z" fill="#F5F6F7"/>
<path d="M636.165 249.433L641.655 254.244L643.904 260.275L634.61 258.444L636.165 249.433Z" fill="#BCC9D9"/>
<path d="M616.088 241.104L576.927 110.285L580.896 101.417L626.143 237.263L616.088 241.104Z" fill="#F8F9F8"/>
<path d="M621.744 263.147L543.158 362.698H534.657L613.938 255.895L621.744 263.147Z" fill="#F8F9F8"/>
<path d="M618.767 260.383V264.188L619.958 265.409L621.777 263.147L618.767 260.383Z" fill="#BCC9C7"/>
<path d="M633.188 493.015L652.008 489.03L651.081 488.168L694.211 480.306L695.236 477.147L640.266 486.804V491.184L633.188 493.015Z" fill="#315114"/>
<path d="M640.266 477.578L697.585 473.054L698.147 472.085L640.266 476.572V477.578Z" fill="#3D6716"/>
</g>
<defs>
<radialGradient id="paint0_radial" cx="0" cy="0" r="1" gradientUnits="userSpaceOnUse" gradientTransform="translate(663.915 524.656) rotate(0.781489) scale(379.706 412.126)">
<stop stop-color="#85C900"/>
<stop offset="0.41" stop-color="#83C500"/>
<stop offset="0.8" stop-color="#7CBA00"/>
<stop offset="1" stop-color="#77B100"/>
</radialGradient>
<linearGradient id="paint1_linear" x1="303.238" y1="575.707" x2="392.278" y2="576.527" gradientUnits="userSpaceOnUse">
<stop stop-color="#86C400"/>
<stop offset="0.15" stop-color="#88C600"/>
<stop offset="1" stop-color="#8DCD00"/>
</linearGradient>
<radialGradient id="paint2_radial" cx="0" cy="0" r="1" gradientUnits="userSpaceOnUse" gradientTransform="translate(449.21 618.809) rotate(0.781486) scale(41.4437 44.982)">
<stop stop-color="#9BE21C"/>
<stop offset="1" stop-color="#9DE61F"/>
</radialGradient>
<linearGradient id="paint3_linear" x1="701.54" y1="582.292" x2="683.308" y2="617.652" gradientUnits="userSpaceOnUse">
<stop stop-color="#A4E81C"/>
<stop offset="0.12" stop-color="#A3E71C"/>
<stop offset="1" stop-color="#A0E61B"/>
</linearGradient>
<linearGradient id="paint4_linear" x1="703.129" y1="567.804" x2="699.453" y2="598.33" gradientUnits="userSpaceOnUse">
<stop stop-color="#98DD13"/>
<stop offset="0.19" stop-color="#9ADD13"/>
<stop offset="1" stop-color="#9DDE12"/>
</linearGradient>
<linearGradient id="paint5_linear" x1="794.436" y1="577.376" x2="792.423" y2="604.982" gradientUnits="userSpaceOnUse">
<stop stop-color="#95D80A"/>
<stop offset="1" stop-color="#95D70B"/>
</linearGradient>
<linearGradient id="paint6_linear" x1="378.552" y1="587.116" x2="366.689" y2="726.053" gradientUnits="userSpaceOnUse">
<stop stop-color="#7D4747"/>
<stop offset="0.23" stop-color="#894F4C"/>
<stop offset="0.57" stop-color="#935750"/>
<stop offset="0.99" stop-color="#965951"/>
</linearGradient>
<linearGradient id="paint7_linear" x1="371.176" y1="655.217" x2="351.896" y2="675.466" gradientUnits="userSpaceOnUse">
<stop stop-color="#572D3A"/>
<stop offset="0.04" stop-color="#592E3B"/>
<stop offset="0.38" stop-color="#613340"/>
<stop offset="1" stop-color="#633541"/>
</linearGradient>
<linearGradient id="paint8_linear" x1="596.381" y1="596.948" x2="563.472" y2="704.921" gradientUnits="userSpaceOnUse">
<stop stop-color="#744346"/>
<stop offset="0.53" stop-color="#814C4B"/>
<stop offset="1" stop-color="#864F4D"/>
</linearGradient>
<linearGradient id="paint9_linear" x1="662.609" y1="664.591" x2="507.573" y2="687.329" gradientUnits="userSpaceOnUse">
<stop stop-color="#64343F"/>
<stop offset="0.31" stop-color="#683842"/>
<stop offset="1" stop-color="#6D3C46"/>
</linearGradient>
<linearGradient id="paint10_linear" x1="499.27" y1="732.687" x2="663.018" y2="764.407" gradientUnits="userSpaceOnUse">
<stop stop-color="#7E494B"/>
<stop offset="0.99" stop-color="#804A4E"/>
</linearGradient>
<linearGradient id="paint11_linear" x1="658.552" y1="609.507" x2="702.934" y2="700.629" gradientUnits="userSpaceOnUse">
<stop stop-color="#9C5C54"/>
<stop offset="1" stop-color="#A66358"/>
</linearGradient>
<linearGradient id="paint12_linear" x1="701.783" y1="606.098" x2="729.027" y2="689.275" gradientUnits="userSpaceOnUse">
<stop stop-color="#B46F5F"/>
<stop offset="0.03" stop-color="#B57060"/>
<stop offset="0.6" stop-color="#C8806D"/>
<stop offset="1" stop-color="#CF8672"/>
</linearGradient>
<linearGradient id="paint13_linear" x1="756.544" y1="604.323" x2="766.007" y2="689.38" gradientUnits="userSpaceOnUse">
<stop stop-color="#844D4C"/>
<stop offset="0.15" stop-color="#8B5250"/>
<stop offset="0.65" stop-color="#9E5F59"/>
<stop offset="1" stop-color="#A5645D"/>
</linearGradient>
<linearGradient id="paint14_linear" x1="749.849" y1="605.795" x2="826.464" y2="638.404" gradientUnits="userSpaceOnUse">
<stop stop-color="#8D524F"/>
<stop offset="0.4" stop-color="#925651"/>
<stop offset="0.86" stop-color="#9F6057"/>
<stop offset="1" stop-color="#A5645A"/>
</linearGradient>
<linearGradient id="paint15_linear" x1="823.303" y1="646.697" x2="865.479" y2="682.272" gradientUnits="userSpaceOnUse">
<stop stop-color="#58303F"/>
<stop offset="1" stop-color="#5C3140"/>
</linearGradient>
<linearGradient id="paint16_linear" x1="836.906" y1="678.188" x2="997.154" y2="640.319" gradientUnits="userSpaceOnUse">
<stop stop-color="#562E3E"/>
<stop offset="0.04" stop-color="#562E3E"/>
<stop offset="1" stop-color="#5A333E"/>
</linearGradient>
<linearGradient id="paint17_linear" x1="927.148" y1="591.455" x2="929.779" y2="697.349" gradientUnits="userSpaceOnUse">
<stop stop-color="#663841"/>
<stop offset="0.15" stop-color="#683942"/>
<stop offset="1" stop-color="#6C3C44"/>
</linearGradient>
<linearGradient id="paint18_linear" x1="624.635" y1="754.405" x2="644.692" y2="790.75" gradientUnits="userSpaceOnUse">
<stop stop-color="#564C61"/>
<stop offset="0.58" stop-color="#544A5F"/>
<stop offset="0.79" stop-color="#4F435A"/>
<stop offset="0.94" stop-color="#443850"/>
<stop offset="1" stop-color="#3E304A"/>
</linearGradient>
<linearGradient id="paint19_linear" x1="695.008" y1="727.595" x2="683.409" y2="782.999" gradientUnits="userSpaceOnUse">
<stop stop-color="#584F63"/>
<stop offset="0.63" stop-color="#564D61"/>
<stop offset="0.98" stop-color="#4F455A"/>
<stop offset="1" stop-color="#4F445A"/>
</linearGradient>
<linearGradient id="paint20_linear" x1="700.739" y1="726.616" x2="691.195" y2="783.558" gradientUnits="userSpaceOnUse">
<stop stop-color="#6F6772"/>
<stop offset="0.5" stop-color="#6D6570"/>
<stop offset="0.78" stop-color="#665D6A"/>
<stop offset="1" stop-color="#5A4F60"/>
</linearGradient>
<linearGradient id="paint21_linear" x1="728.588" y1="766.448" x2="721.334" y2="789.906" gradientUnits="userSpaceOnUse">
<stop stop-color="#636071"/>
<stop offset="0.53" stop-color="#615E6F"/>
<stop offset="0.83" stop-color="#5C5667"/>
<stop offset="1" stop-color="#564D5F"/>
</linearGradient>
<linearGradient id="paint22_linear" x1="16662.7" y1="5609.47" x2="16569.1" y2="6115.16" gradientUnits="userSpaceOnUse">
<stop stop-color="#A4E81C"/>
<stop offset="0.12" stop-color="#A3E71C"/>
<stop offset="1" stop-color="#A0E61B"/>
</linearGradient>
<linearGradient id="paint23_linear" x1="4485.47" y1="5833.24" x2="5728.66" y2="5960.55" gradientUnits="userSpaceOnUse">
<stop stop-color="#86C400"/>
<stop offset="0.15" stop-color="#88C600"/>
<stop offset="1" stop-color="#8DCD00"/>
</linearGradient>
<linearGradient id="paint24_linear" x1="3288.16" y1="4359.4" x2="4160.67" y2="4445.27" gradientUnits="userSpaceOnUse">
<stop stop-color="#86C400"/>
<stop offset="0.15" stop-color="#88C600"/>
<stop offset="1" stop-color="#8DCD00"/>
</linearGradient>
<linearGradient id="paint25_linear" x1="856.979" y1="531.56" x2="865.491" y2="557.171" gradientUnits="userSpaceOnUse">
<stop stop-color="#2D4517"/>
<stop offset="0.27" stop-color="#304A17"/>
<stop offset="0.99" stop-color="#324C17"/>
</linearGradient>
<linearGradient id="paint26_linear" x1="691.267" y1="388.223" x2="686.505" y2="388.223" gradientUnits="userSpaceOnUse">
<stop stop-color="#F2F2F3"/>
<stop offset="0.24" stop-color="#EDEEED"/>
<stop offset="0.49" stop-color="#ECEDED"/>
<stop offset="1" stop-color="#ECEDEC"/>
</linearGradient>
<linearGradient id="paint27_linear" x1="690.97" y1="388.366" x2="693.02" y2="388.366" gradientUnits="userSpaceOnUse">
<stop stop-color="#C6D2DA"/>
<stop offset="0.24" stop-color="#9FC0C7"/>
<stop offset="0.49" stop-color="#A4BFCA"/>
<stop offset="1" stop-color="#A4B6C0"/>
</linearGradient>
<linearGradient id="paint28_linear" x1="1714.69" y1="21920.2" x2="1724.59" y2="21920.2" gradientUnits="userSpaceOnUse">
<stop stop-color="#C6D2DA"/>
<stop offset="0.24" stop-color="#9FC0C7"/>
<stop offset="0.49" stop-color="#A4BFCA"/>
<stop offset="1" stop-color="#A4B6C0"/>
</linearGradient>
<linearGradient id="paint29_linear" x1="2054.37" y1="21920.2" x2="2071.87" y2="21920.2" gradientUnits="userSpaceOnUse">
<stop stop-color="#F2F2F3"/>
<stop offset="0.24" stop-color="#EDEEED"/>
<stop offset="0.49" stop-color="#ECEDED"/>
<stop offset="1" stop-color="#ECEDEC"/>
</linearGradient>
<clipPath id="clip0">
<rect width="1323" height="1077" fill="white"/>
</clipPath>
</defs>
</svg>
