<svg width="57" height="57" viewBox="0 0 57 57" fill="none" xmlns="http://www.w3.org/2000/svg">
<path d="M46.515 30.1573C45.1606 31.6701 43.5185 32.898 41.6844 33.7694C39.8504 34.6408 37.8612 35.1382 35.8329 35.2326C33.6266 35.3486 31.544 36.2879 29.9967 37.8649L25.6241 42.2375C25.4058 42.4664 25.1445 42.6501 24.8551 42.7778C24.5658 42.9056 24.2541 42.975 23.9379 42.9821C23.6216 42.9892 23.3071 42.9339 23.0123 42.8192C22.7175 42.7046 22.4482 42.5329 22.2199 42.314L14.2939 34.388C14.0664 34.1491 13.8882 33.8677 13.7696 33.5599C13.651 33.2521 13.5943 32.9239 13.6028 32.5942C13.6112 32.2644 13.6847 31.9396 13.8189 31.6383C13.9531 31.3369 14.1454 31.065 14.3849 30.8382L18.692 26.5311C20.2702 24.9787 21.2094 22.8912 21.3243 20.6803C21.5053 16.8606 23.1124 13.2476 25.828 10.5552C31.7552 4.62801 41.2104 4.50786 46.7553 10.3805C51.8015 15.7252 51.7104 24.4304 46.515 30.1573Z" fill="#FFC300" stroke="black" stroke-miterlimit="10"/>
<path d="M14.9092 35.3673L21.1386 41.5967L16.9225 45.8128C16.6232 46.1121 16.2679 46.3495 15.8769 46.5115C15.4858 46.6735 15.0667 46.7568 14.6434 46.7568C14.2201 46.7568 13.801 46.6735 13.4099 46.5115C13.0189 46.3495 12.6636 46.1121 12.3643 45.8128L10.6968 44.1453C10.3975 43.846 10.16 43.4907 9.99807 43.0996C9.83608 42.7086 9.75271 42.2894 9.75271 41.8661C9.75271 41.4429 9.83608 41.0237 9.99807 40.6327C10.16 40.2416 10.3975 39.8863 10.6968 39.587L14.9128 35.371L14.9092 35.3673Z" fill="#997500" stroke="black" stroke-miterlimit="10"/>
</svg>
