<svg xmlns="http://www.w3.org/2000/svg" xmlns:xlink="http://www.w3.org/1999/xlink" viewBox="0 0 1053.72 1166.11"><defs><style>.cls-1{fill:#3b2d47;}.cls-2{fill:#362746;}.cls-3{fill:#47445b;}.cls-4{fill:#94564d;}.cls-5{fill:#706a73;}.cls-6{fill:#5d5665;}.cls-7{fill:#4a445b;}.cls-8{fill:#434258;}.cls-9{fill:#525067;}.cls-10{fill:#5e5b6b;}.cls-11{fill:#312c4d;}.cls-12{fill:#858283;}.cls-13{fill:#9a989a;}.cls-14{fill:#46405b;}.cls-15{fill:#655b6b;}.cls-16{fill:#3d314a;}.cls-17{fill:#857d83;}.cls-18{fill:#857f82;}.cls-19{fill:#635c62;}.cls-20{fill:#4a4154;}.cls-21{fill:#291b3d;}.cls-22{fill:#332a48;}.cls-23{fill:#433b52;}.cls-24{fill:#90898c;}.cls-25{fill:#827b81;}.cls-26{fill:#4c445b;}.cls-27{fill:#a56358;}.cls-28{fill:#ad6759;}.cls-29{fill:#492339;}.cls-30{fill:#532e3d;}.cls-31{fill:#9d5f54;}.cls-32{fill:#4a2835;}.cls-33{fill:#6ba507;}.cls-34{fill:#9c5e53;}.cls-35{fill:#a3665a;}.cls-36{fill:#724240;}.cls-37{fill:#6eab01;}.cls-38{fill:#9f6155;}.cls-39{fill:#56303b;}.cls-40{fill:#7cbb00;}.cls-41{fill:#8d544c;}.cls-42{fill:#462a33;}.cls-43{fill:#6c4142;}.cls-44{fill:#8cd200;}.cls-45{fill:#304817;}.cls-46{fill:url(#Gradient_bez_nazwy_4);}.cls-47{fill:#7fbb00;}.cls-48{fill:url(#Gradient_bez_nazwy_25);}.cls-49{fill:#94d402;}.cls-50{fill:url(#Gradient_bez_nazwy_3);}.cls-51{fill:#6ea507;}.cls-52{fill:#71ab04;}.cls-53{fill:#80c200;}.cls-54{fill:url(#Gradient_bez_nazwy_23);}.cls-55{fill:url(#Gradient_bez_nazwy_5);}.cls-56{fill:url(#Gradient_bez_nazwy_6);}.cls-57{fill:#80c100;}.cls-58{fill:#87c901;}.cls-59{fill:#98de13;}.cls-60{fill:#7cb901;}.cls-61{fill:#4a701b;}.cls-62{fill:#486b1a;}.cls-63{fill:#71ac00;}.cls-64{fill:#864c4a;}.cls-65{fill:url(#Gradient_bez_nazwy_7);}.cls-66{fill:url(#Gradient_bez_nazwy_8);}.cls-67{fill:#693841;}.cls-68{fill:#592f3c;}.cls-69{fill:#9e5d56;}.cls-70{fill:url(#Gradient_bez_nazwy_9);}.cls-71{fill:url(#Gradient_bez_nazwy_10);}.cls-72{fill:url(#Gradient_bez_nazwy_11);}.cls-73{fill:url(#Gradient_bez_nazwy_12);}.cls-74{fill:url(#Gradient_bez_nazwy_13);}.cls-75{fill:url(#Gradient_bez_nazwy_14);}.cls-76{fill:url(#Gradient_bez_nazwy_15);}.cls-77{fill:url(#Gradient_bez_nazwy_16);}.cls-78{fill:#6b3a42;}.cls-79{fill:#794448;}.cls-80{fill:#61333e;}.cls-81{fill:#63373f;}.cls-82{fill:#673945;}.cls-83{fill:#5f333e;}.cls-84{fill:#64343e;}.cls-85{fill:url(#Gradient_bez_nazwy_17);}.cls-86{fill:url(#Gradient_bez_nazwy_18);}.cls-87{fill:#5a303e;}.cls-88{fill:#5a5362;}.cls-89{fill:#605566;}.cls-90{fill:url(#Gradient_bez_nazwy_19);}.cls-91{fill:url(#Gradient_bez_nazwy_20);}.cls-92{fill:url(#Gradient_bez_nazwy_21);}.cls-93{fill:url(#Gradient_bez_nazwy_22);}.cls-94{fill:#554d61;}.cls-95{fill:#613541;}.cls-96{fill:#93d61d;}.cls-97{fill:url(#Gradient_bez_nazwy_23-2);}.cls-98{fill:url(#Gradient_bez_nazwy_25-2);}.cls-99{fill:url(#Gradient_bez_nazwy_25-3);}.cls-100{fill:#77b500;}.cls-101{fill:#b16958;}.cls-102{fill:#ae6655;}.cls-103{fill:#3d182e;}.cls-104{fill:#b76e5b;}.cls-105{fill:#331022;}.cls-106{fill:#b86d5c;}.cls-107{fill:#220720;}.cls-108{fill:#8bcd01;}.cls-109{fill:#87c800;}.cls-110{fill:#8cd300;}.cls-111{fill:#8dcf01;}.cls-112{fill:#86c900;}.cls-113{fill:#588809;}.cls-114{fill:#5d8d08;}.cls-115{fill:#456218;}.cls-116{fill:#bb7160;}.cls-117{fill:#94554c;}.cls-118{fill:#300c2b;}.cls-119{fill:#4e7913;}.cls-120{fill:#8bca00;}.cls-121{fill:#97dc09;}.cls-122{fill:#70aa00;}.cls-123{fill:#344615;}.cls-124{fill:#405c1a;}.cls-125{fill:#75b601;}.cls-126{fill:#8ed200;}.cls-127{fill:#95d900;}.cls-128{fill:#81c200;}.cls-129{fill:#669e00;}.cls-130{fill:#94d702;}.cls-131{fill:#97dc0b;}.cls-132{fill:#69a200;}.cls-133{fill:#83c600;}.cls-134{fill:#85c500;}.cls-135{fill:#8bce00;}.cls-136{fill:#88cd00;}.cls-137{fill:#406817;}.cls-138{fill:#385016;}.cls-139{fill:#2e3114;}.cls-140{fill:#98da09;}.cls-141{fill:#96da0c;}.cls-142{fill:#83c400;}.cls-143{fill:#477013;}.cls-144{fill:#416114;}.cls-145{fill:#426814;}.cls-146{fill:#71ac02;}.cls-147{fill:#5c9106;}.cls-148{fill:#88cb00;}.cls-149{fill:#6ba001;}.cls-150{fill:#3b5115;}.cls-151{fill:#895349;}.cls-152{fill:#6e4042;}.cls-153{fill:#81c300;}.cls-154{fill:#365c15;}.cls-155{fill:#37192f;}.cls-156{fill:#432338;}.cls-157{fill:#3b6a13;}.cls-158{fill:#548715;}.cls-159{fill:#91d709;}.cls-160{fill:#7ab901;}.cls-161{fill:#77b600;}.cls-162{fill:#304a17;}.cls-163{fill:#8ed101;}.cls-164{fill:#98dd0f;}.cls-165{fill:#528611;}.cls-166{fill:#2f4519;}.cls-167{fill:#94564b;}.cls-168{fill:#985c4d;}.cls-169{fill:#985c4e;}.cls-170{fill:#4f2935;}.cls-171{fill:#94d800;}.cls-172{fill:#79b100;}.cls-173{fill:#9bdf0d;}.cls-174{fill:#89ce00;}.cls-175{fill:#92d300;}.cls-176{fill:#6fa600;}.cls-177{fill:#68a201;}.cls-178{fill:#3d5714;}.cls-179{fill:#9b5d4f;}.cls-180{fill:#8e5548;}.cls-181{fill:#31152d;}.cls-182{fill:#2f112c;}.cls-183{fill:#532c36;}.cls-184{fill:#402031;}.cls-185{fill:#412337;}.cls-186{fill:#321228;}.cls-187{fill:#93584c;}.cls-188{fill:#4e2934;}.cls-189{fill:#16011c;}.cls-190{fill:#3d5d15;}.cls-191{fill:#75af01;}.cls-192{fill:#7dbc00;}.cls-193{fill:#89c901;}.cls-194{fill:#92d600;}.cls-195{fill:#3c5015;}.cls-196{fill:#476b14;}.cls-197{fill:#364a16;}.cls-198{fill:#73ac01;}.cls-199{fill:#23180e;}.cls-200{fill:#221f0e;}.cls-201{fill:#385615;}.cls-202{fill:#3a6213;}.cls-203{fill:#385813;}.cls-204{fill:#578a08;}.cls-205{fill:#90d306;}.cls-206{fill:#344e15;}.cls-207{fill:#334b17;}.cls-208{fill:#76b000;}.cls-209{fill:#689f01;}.cls-210{fill:#85c700;}.cls-211{fill:#4e7713;}.cls-212{fill:#4d7a10;}.cls-213{fill:#8dd000;}.cls-214{fill:#95d903;}.cls-215{fill:#7abf00;}.cls-216{fill:#588311;}.cls-217{fill:#6ba300;}.cls-218{fill:#416515;}.cls-219{fill:#7fbc04;}.cls-220{fill:#93d706;}.cls-221{fill:#96da05;}.cls-222{fill:#374919;}.cls-223{fill:#3b5a17;}.cls-224{fill:#4c7013;}.cls-225{fill:#354617;}.cls-226{fill:#4d7a0f;}.cls-227{fill:#8dd300;}.cls-228{fill:#8acd01;}.cls-229{fill:#80c301;}.cls-230{fill:#477017;}.cls-231{fill:#3c6015;}.cls-232{fill:#98dd12;}.cls-233{fill:#98dc0c;}.cls-234{fill:#8ccf00;}.cls-235{fill:#88c600;}.cls-236{fill:#80c000;}.cls-237{fill:#5b8c0b;}.cls-238{fill:#365117;}.cls-239{fill:#3c5c16;}.cls-240{fill:#466615;}.cls-241{fill:#3f5b16;}.cls-242{fill:#441928;}.cls-243{fill:#95da0c;}.cls-244{fill:#9de319;}.cls-245{fill:#7dbe00;}.cls-246{fill:#345519;}.cls-247{fill:#90d404;}.cls-248{fill:#578a11;}.cls-249{fill:#314f19;}.cls-250{fill:#8dce01;}.cls-251{fill:#170b06;}.cls-252{fill:#5a8e12;}.cls-253{fill:#41671a;}.cls-254{fill:#283213;}.cls-255{fill:#73b100;}.cls-256{fill:#96dd0a;}.cls-257{fill:#2b4617;}.cls-258{fill:#335119;}.cls-259{fill:#334b19;}.cls-260{fill:#345819;}.cls-261{fill:#422334;}.cls-262{fill:#462434;}.cls-263{fill:#2f132b;}.cls-264{fill:#2b1027;}.cls-265{fill:#35132a;}.cls-266{fill:#91d501;}.cls-267{fill:#89cd00;}.cls-268{fill:#548709;}.cls-269{fill:#7ebe02;}.cls-270{fill:#7aba00;}.cls-271{fill:#3a5e17;}.cls-272{fill:#2c3815;}.cls-273{fill:#354816;}.cls-274{fill:#334d16;}.cls-275{fill:#364b16;}.cls-276{fill:#85cb00;}.cls-277{fill:#92d400;}.cls-278{fill:#8acc00;}.cls-279{fill:#619800;}.cls-280{fill:#3b5a19;}.cls-281{fill:#476e17;}.cls-282{fill:#2d3f15;}.cls-283{fill:#8bcc00;}.cls-284{fill:#6ba800;}.cls-285{fill:#8bd000;}.cls-286{fill:#69a502;}.cls-287{fill:#334f15;}.cls-288{fill:#2f4917;}.cls-289{fill:#619602;}.cls-290{fill:#304212;}.cls-291{fill:#334815;}.cls-292{fill:#365916;}.cls-293{fill:#354d15;}.cls-294{fill:#375615;}.cls-295{fill:#406615;}.cls-296{fill:#406c15;}.cls-297{fill:#92d907;}.cls-298{fill:#9de118;}.cls-299{fill:#90d704;}.cls-300{fill:#548a0a;}.cls-301{fill:#83c002;}.cls-302{fill:#7cbe00;}.cls-303{fill:#375a17;}.cls-304{fill:#305013;}.cls-305{fill:#354c15;}.cls-306{fill:#2f4415;}.cls-307{fill:#385f16;}.cls-308{fill:#95db10;}.cls-309{fill:#7fc201;}.cls-310{fill:#7bbd00;}.cls-311{fill:#314d18;}.cls-312{fill:#2e4619;}.cls-313{fill:#9be41a;}.cls-314{fill:#93d605;}.cls-315{fill:#578a12;}.cls-316{fill:#94d707;}.cls-317{fill:#78b200;}.cls-318{fill:#7aba01;}.cls-319{fill:#33541a;}.cls-320{fill:#2e4b16;}.cls-321{fill:#9be316;}.cls-322{fill:#324b1b;}.cls-323{fill:#315217;}.cls-324{fill:#7bb902;}.cls-325{fill:#8acd02;}.cls-326{fill:#477417;}.cls-327{fill:#325018;}.cls-328{fill:#2d4119;}.cls-329{fill:#6aa606;}.cls-330{fill:#91d400;}.cls-331{fill:#2d4719;}.cls-332{fill:#8fd401;}.cls-333{fill:#96d910;}.cls-334{fill:#79b901;}.cls-335{fill:#324d19;}.cls-336{fill:#99df12;}.cls-337{fill:#588914;}.cls-338{fill:#2e4918;}.cls-339{fill:#95db07;}.cls-340{fill:#77b700;}.cls-341{fill:#74b301;}.cls-342{fill:#314c18;}.cls-343{fill:#8fd301;}.cls-344{fill:#9ce10f;}.cls-345{fill:#5a9011;}.cls-346{fill:#2e4f1a;}.cls-347{fill:#74b304;}.cls-348{fill:#96da0a;}.cls-349{fill:#6fad01;}.cls-350{fill:#5e940c;}.cls-351{fill:#9fe518;}.cls-352{fill:#86cb00;}.cls-353{fill:#2e3f16;}.cls-354{fill:#304f1a;}.cls-355{fill:#8cd100;}.cls-356{fill:#82c500;}.cls-357{fill:#466f1a;}.cls-358{fill:url(#Gradient_bez_nazwy_26);}.cls-359{fill:#9ce216;}.cls-360{fill:#9adf12;}.cls-361{fill:#639e09;}.cls-362{fill:#2f4b18;}.cls-363{fill:#fffefe;}.cls-364{fill:#eaedea;}.cls-365{fill:#91bbb9;}.cls-366{fill:#f9f9fa;}.cls-367{fill:url(#Gradient_bez_nazwy_30);}.cls-368{fill:url(#Gradient_bez_nazwy_29);}.cls-369{fill:#f5f6f7;}.cls-370{fill:#f8f9f8;}.cls-371{fill:#bcc9c7;}.cls-372{fill:#c3ced4;}.cls-373{fill:#abbeb8;}.cls-374{fill:#e3eaef;}.cls-375{fill:#fafbfb;}.cls-376{fill:#f9faf9;}.cls-377{fill:#c2cec7;}.cls-378{fill:#a6c1a5;}.cls-379{fill:#bacbd5;}.cls-380{fill:url(#Gradient_bez_nazwy_29-2);}.cls-381{fill:url(#Gradient_bez_nazwy_30-2);}.cls-382{fill:#bec9cd;}.cls-383{fill:#c5cfda;}.cls-384{fill:#b9c6d1;}.cls-385{fill:#bcc9d9;}</style><radialGradient id="Gradient_bez_nazwy_4" cx="-12.27" cy="944.65" r="1.37" gradientTransform="matrix(379.67, 5.18, 5.62, -412.09, -131.67, 389920.48)" gradientUnits="userSpaceOnUse"><stop offset="0" stop-color="#85c900"/><stop offset="0.41" stop-color="#83c500"/><stop offset="0.8" stop-color="#7cba00"/><stop offset="1" stop-color="#77b100"/></radialGradient><linearGradient id="Gradient_bez_nazwy_25" x1="24.39" y1="158.77" x2="146.35" y2="157.65" gradientTransform="matrix(1, 0, 0, -1, 0, 810.22)" gradientUnits="userSpaceOnUse"><stop offset="0" stop-color="#86c400"/><stop offset="0.15" stop-color="#88c600"/><stop offset="1" stop-color="#8dcd00"/></linearGradient><radialGradient id="Gradient_bez_nazwy_3" cx="-16.99" cy="940.04" r="1.37" gradientTransform="matrix(41.44, 0.57, 0.61, -44.98, 351.75, 42999.73)" gradientUnits="userSpaceOnUse"><stop offset="0" stop-color="#9be21c"/><stop offset="1" stop-color="#9de61f"/></radialGradient><linearGradient id="Gradient_bez_nazwy_23" x1="569.77" y1="151.4" x2="544.78" y2="102.93" gradientTransform="matrix(1, 0, 0, -1, 0, 810.22)" gradientUnits="userSpaceOnUse"><stop offset="0" stop-color="#a4e81c"/><stop offset="0.12" stop-color="#a3e71c"/><stop offset="1" stop-color="#a0e61b"/></linearGradient><linearGradient id="Gradient_bez_nazwy_5" x1="571.19" y1="171.12" x2="566.15" y2="129.28" gradientTransform="matrix(1, 0, 0, -1, 0, 810.22)" gradientUnits="userSpaceOnUse"><stop offset="0" stop-color="#98dd13"/><stop offset="0.19" stop-color="#9add13"/><stop offset="1" stop-color="#9dde12"/></linearGradient><linearGradient id="Gradient_bez_nazwy_6" x1="695.97" y1="157.96" x2="693.21" y2="120.13" gradientTransform="matrix(1, 0, 0, -1, 0, 810.22)" gradientUnits="userSpaceOnUse"><stop offset="0" stop-color="#95d80a"/><stop offset="1" stop-color="#95d70b"/></linearGradient><linearGradient id="Gradient_bez_nazwy_7" x1="126.38" y1="144.6" x2="110.12" y2="-45.84" gradientTransform="matrix(1, 0, 0, -1, 0, 810.22)" gradientUnits="userSpaceOnUse"><stop offset="0" stop-color="#7d4747"/><stop offset="0.23" stop-color="#894f4c"/><stop offset="0.57" stop-color="#935750"/><stop offset="0.99" stop-color="#965951"/></linearGradient><linearGradient id="Gradient_bez_nazwy_8" x1="116.84" y1="51.79" x2="90.41" y2="24.04" gradientTransform="matrix(1, 0, 0, -1, 0, 810.22)" gradientUnits="userSpaceOnUse"><stop offset="0" stop-color="#572d3a"/><stop offset="0.04" stop-color="#592e3b"/><stop offset="0.38" stop-color="#613340"/><stop offset="1" stop-color="#633541"/></linearGradient><linearGradient id="Gradient_bez_nazwy_9" x1="427.99" y1="130.47" x2="382.88" y2="-17.53" gradientTransform="matrix(1, 0, 0, -1, 0, 810.22)" gradientUnits="userSpaceOnUse"><stop offset="0" stop-color="#744346"/><stop offset="0.53" stop-color="#814c4b"/><stop offset="1" stop-color="#864f4d"/></linearGradient><linearGradient id="Gradient_bez_nazwy_10" x1="517.28" y1="36.26" x2="304.77" y2="5.09" gradientTransform="matrix(1, 0, 0, -1, 0, 810.22)" gradientUnits="userSpaceOnUse"><stop offset="0" stop-color="#64343f"/><stop offset="0.31" stop-color="#683842"/><stop offset="1" stop-color="#6d3c46"/></linearGradient><linearGradient id="Gradient_bez_nazwy_11" x1="291.59" y1="-62.79" x2="516.04" y2="-106.26" gradientTransform="matrix(1, 0, 0, -1, 0, 810.22)" gradientUnits="userSpaceOnUse"><stop offset="0" stop-color="#7e494b"/><stop offset="0.99" stop-color="#804a4e"/></linearGradient><linearGradient id="Gradient_bez_nazwy_12" x1="500.69" y1="108.57" x2="561.52" y2="-16.33" gradientTransform="matrix(1, 0, 0, -1, 0, 810.22)" gradientUnits="userSpaceOnUse"><stop offset="0" stop-color="#9c5c54"/><stop offset="1" stop-color="#a66358"/></linearGradient><linearGradient id="Gradient_bez_nazwy_13" x1="568.04" y1="117.61" x2="605.39" y2="3.6" gradientTransform="matrix(1, 0, 0, -1, 0, 810.22)" gradientUnits="userSpaceOnUse"><stop offset="0" stop-color="#b46f5f"/><stop offset="0.03" stop-color="#b57060"/><stop offset="0.6" stop-color="#c8806d"/><stop offset="1" stop-color="#cf8672"/></linearGradient><linearGradient id="Gradient_bez_nazwy_14" x1="641.17" y1="120.34" x2="654.14" y2="3.75" gradientTransform="matrix(1, 0, 0, -1, 0, 810.22)" gradientUnits="userSpaceOnUse"><stop offset="0" stop-color="#844d4c"/><stop offset="0.15" stop-color="#8b5250"/><stop offset="0.65" stop-color="#9e5f59"/><stop offset="1" stop-color="#a5645d"/></linearGradient><linearGradient id="Gradient_bez_nazwy_15" x1="632.43" y1="109.2" x2="737.45" y2="64.5" gradientTransform="matrix(1, 0, 0, -1, 0, 810.22)" gradientUnits="userSpaceOnUse"><stop offset="0" stop-color="#8d524f"/><stop offset="0.4" stop-color="#925651"/><stop offset="0.86" stop-color="#9f6057"/><stop offset="1" stop-color="#a5645a"/></linearGradient><linearGradient id="Gradient_bez_nazwy_16" x1="733.82" y1="58.78" x2="791.63" y2="10.02" gradientTransform="matrix(1, 0, 0, -1, 0, 810.22)" gradientUnits="userSpaceOnUse"><stop offset="0" stop-color="#58303f"/><stop offset="1" stop-color="#5c3140"/></linearGradient><linearGradient id="Gradient_bez_nazwy_17" x1="754.74" y1="24.49" x2="974.39" y2="76.4" gradientTransform="matrix(1, 0, 0, -1, 0, 810.22)" gradientUnits="userSpaceOnUse"><stop offset="0" stop-color="#562e3e"/><stop offset="0.04" stop-color="#562e3e"/><stop offset="1" stop-color="#5a333e"/></linearGradient><linearGradient id="Gradient_bez_nazwy_18" x1="876.96" y1="138.48" x2="880.57" y2="-6.67" gradientTransform="matrix(1, 0, 0, -1, 0, 810.22)" gradientUnits="userSpaceOnUse"><stop offset="0" stop-color="#663841"/><stop offset="0.15" stop-color="#683942"/><stop offset="1" stop-color="#6c3c44"/></linearGradient><linearGradient id="Gradient_bez_nazwy_19" x1="460.61" y1="-87.19" x2="488.1" y2="-137.01" gradientTransform="matrix(1, 0, 0, -1, 0, 810.22)" gradientUnits="userSpaceOnUse"><stop offset="0" stop-color="#564c61"/><stop offset="0.58" stop-color="#544a5f"/><stop offset="0.79" stop-color="#4f435a"/><stop offset="0.94" stop-color="#443850"/><stop offset="1" stop-color="#3e304a"/></linearGradient><linearGradient id="Gradient_bez_nazwy_20" x1="560.51" y1="-47.88" x2="544.62" y2="-123.82" gradientTransform="matrix(1, 0, 0, -1, 0, 810.22)" gradientUnits="userSpaceOnUse"><stop offset="0" stop-color="#584f63"/><stop offset="0.63" stop-color="#564d61"/><stop offset="0.98" stop-color="#4f455a"/><stop offset="1" stop-color="#4f445a"/></linearGradient><linearGradient id="Gradient_bez_nazwy_21" x1="568.13" y1="-46.53" x2="555.05" y2="-124.58" gradientTransform="matrix(1, 0, 0, -1, 0, 810.22)" gradientUnits="userSpaceOnUse"><stop offset="0" stop-color="#6f6772"/><stop offset="0.5" stop-color="#6d6570"/><stop offset="0.78" stop-color="#665d6a"/><stop offset="1" stop-color="#5a4f60"/></linearGradient><linearGradient id="Gradient_bez_nazwy_22" x1="605.8" y1="-100.82" x2="595.86" y2="-132.97" gradientTransform="matrix(1, 0, 0, -1, 0, 810.22)" gradientUnits="userSpaceOnUse"><stop offset="0" stop-color="#636071"/><stop offset="0.53" stop-color="#615e6f"/><stop offset="0.83" stop-color="#5c5667"/><stop offset="1" stop-color="#564d5f"/></linearGradient><linearGradient id="Gradient_bez_nazwy_23-2" x1="64.96" y1="-2596.6" x2="-63.34" y2="-3289.73" xlink:href="#Gradient_bez_nazwy_23"/><linearGradient id="Gradient_bez_nazwy_25-2" x1="6426.03" y1="-511.81" x2="8130.04" y2="-686.31" xlink:href="#Gradient_bez_nazwy_25"/><linearGradient id="Gradient_bez_nazwy_25-3" x1="4581.11" y1="-297.63" x2="5777.04" y2="-415.33" xlink:href="#Gradient_bez_nazwy_25"/><linearGradient id="Gradient_bez_nazwy_26" x1="780.44" y1="219.66" x2="792.11" y2="184.55" gradientTransform="matrix(1, 0, 0, -1, 0, 810.22)" gradientUnits="userSpaceOnUse"><stop offset="0" stop-color="#2d4517"/><stop offset="0.27" stop-color="#304a17"/><stop offset="0.99" stop-color="#324c17"/></linearGradient><linearGradient id="Gradient_bez_nazwy_30" x1="556.26" y1="417.08" x2="549.73" y2="417.08" gradientTransform="matrix(1, 0, 0, -1, 0, 810.22)" gradientUnits="userSpaceOnUse"><stop offset="0" stop-color="#f2f2f3"/><stop offset="0.24" stop-color="#edeeed"/><stop offset="0.49" stop-color="#eceded"/><stop offset="1" stop-color="#ecedec"/></linearGradient><linearGradient id="Gradient_bez_nazwy_29" x1="555.85" y1="416.94" x2="558.66" y2="416.94" gradientTransform="matrix(1, 0, 0, -1, 0, 810.22)" gradientUnits="userSpaceOnUse"><stop offset="0" stop-color="#c6d2da"/><stop offset="0.24" stop-color="#9fc0c7"/><stop offset="0.49" stop-color="#a4bfca"/><stop offset="1" stop-color="#a4b6c0"/></linearGradient><linearGradient id="Gradient_bez_nazwy_29-2" x1="1959.04" y1="447.22" x2="1972.61" y2="447.22" xlink:href="#Gradient_bez_nazwy_29"/><linearGradient id="Gradient_bez_nazwy_30-2" x1="2424.63" y1="447.22" x2="2448.61" y2="447.22" xlink:href="#Gradient_bez_nazwy_30"/></defs><g id="Warstwa_2" data-name="Warstwa 2"><g id="Warstwa_1-2" data-name="Warstwa 1"><g id="Land3"><g id="LandStones"><g id="LandStone_2"><path class="cls-1" d="M678.44,936.22l13-6.21-12.51,20.72Z"/><path class="cls-2" d="M678.44,936.22l-4.4,11,4.9,3.54Z"/><path class="cls-3" d="M691.45,930l6.3,22-18.81-1.23Z"/></g><g id="LandStone_3"><path class="cls-4" d="M362.59,1010.47l-94.66,37.4,97.65,51.81Z"/><path class="cls-5" d="M267.93,1047.87l17.41,28.64,80.24,23.17Z"/><path class="cls-6" d="M285.34,1076.51l61.56,37.54,18.68-14.37Z"/></g><g id="LandStone_7"><path class="cls-7" d="M334.93,958.8l-2.22,25.05,9-3.1Z"/><path class="cls-8" d="M341.74,980.75l8.93-12.5-15.74-9.45Z"/></g><g id="LandStone_4"><path class="cls-9" d="M453.67,997.53,444.78,1040l27.66-25.39Z"/><path class="cls-10" d="M472.44,1014.6l15.73,16.93-34.05,30.56-9.25-22.39Z"/><path class="cls-11" d="M453.67,997.53l18.77,17.07,15.73,16.93-4-22.59Z"/></g><g id="LandStone_6"><path class="cls-12" d="M404.93,1151.64l3.18,7.43,21.26-43.69Z"/><path class="cls-13" d="M429.37,1115.38l-3.4,36.9-17.86,6.79Z"/><path class="cls-14" d="M429.37,1115.38l19.54,46.2-4.17,4.53L426,1152.28Z"/><path class="cls-15" d="M426,1152.28l18.77,13.83-36.63-7Z"/><path class="cls-16" d="M420.3,1128.81l-.09,9.84-7.25,1.09Z"/></g><g id="LandStone_5"><path class="cls-17" d="M612,993.74l3.36,28.24,2,3.4,3.13-11.32Z"/><path class="cls-18" d="M612,993.74l8.44,20.32,17.4-.74Z"/><path class="cls-19" d="M637.86,1013.32l3-5L612,993.74Z"/><path class="cls-20" d="M637.86,1013.32l-17.13,10.93-3.4,1.13,3.13-11.32Z"/><path class="cls-21" d="M625,1000.28l-3.31.79L612,993.74Z"/><path class="cls-22" d="M612,993.74l9.66,7.33-6.26.89Z"/><path class="cls-23" d="M612,993.74l2.9,24.26.5-16Z"/></g><g id="LandStone_1"><path class="cls-24" d="M666.65,1056.28l34.91,33.9-4.85-81.68Z"/><path class="cls-25" d="M696.71,1008.5l4.85,81.68,14-30.4Z"/><path class="cls-26" d="M701.56,1090.18l54.9-38.18,22.26-31.84-63.15,39.62Z"/><path class="cls-27" d="M715.57,1059.78l63.15-39.62-21-65Z"/><path class="cls-28" d="M715.57,1059.78l-18.86-51.28,61-53.34Z"/><path class="cls-29" d="M711,996l31.1-2.06,15.6-38.73Z"/><path class="cls-30" d="M757.73,955.16l-15.6,38.73L774,1005.6Z"/></g></g><g id="DirtRifts"><g id="DirtRift_2"><path class="cls-31" d="M46.38,511.76l-8.52,40L111.25,562l4.9-23.42Z"/><path class="cls-32" d="M111.25,562l83.51-9.35-78.61-14.07Z"/><path class="cls-33" d="M46.38,511.76l69.77,26.86,78.61,14.07L179.44,535l-79.11-20.86Z"/></g><g id="DirtRift_3"><path class="cls-34" d="M227.76,478.93,220.65,528l21.67-14Z"/><path class="cls-35" d="M220.65,528,232,541.28,242.32,514Z"/><path class="cls-36" d="M232,541.28l70.86-.15L242.32,514Z"/><path class="cls-37" d="M227.76,478.93,242.32,514l60.56,27.11,38.81-16.58-43.52-30.81Z"/></g><g id="DirtRift_1"><path class="cls-38" d="M555,602.3l-2.85,23.07,79,11.42,2.76-16.68Z"/><path class="cls-39" d="M633.87,620.11l-2.76,16.68,68.46-13.38Z"/><path class="cls-40" d="M699.57,623.41l-57.49-17.92-65.15-9.59L555,602.3l78.88,17.81Z"/></g><g id="DirtRift_4"><path class="cls-41" d="M560.3,519.33,564,511l85.73,17.91Z"/><path class="cls-42" d="M649.74,528.88l71.86-30.71-21.31,23Z"/><path class="cls-43" d="M721.6,498.17l9.11,20.23-30.42,2.8Z"/><path class="cls-44" d="M564,511l85.73,17.91,71.86-30.71-41.94-34.44-92.93,7.92Z"/><path class="cls-45" d="M729.4,515.49l3.53,1.73-2.22,1.18Z"/></g></g><g id="Land"><path class="cls-46" d="M.14,549.45l7.29,41.33,15.15,45.07,121,12.6,52.41,13.19,4.58-1.77,66,3.89,106.22-12.6,134.69-19.83L631,651.55l128.71,7.33,62.7-3.24,50.27-12.16,66.92,4.87,57.84-3.24,34-33-53.23-29.92,41.9-16.48-28.43-15.8L936,542l-41.21-6.69-83.6-13-42.8-23.12-87.4-6L575.62,490.3l-74.9.25L354,486.17l-96.84,13.92-83,5.46L81,510.92l-33.86,5.76Z"/><path class="cls-47" d="M7.44,590.78l15.14,45.07,1.36,20.48L7,602.44Z"/><path class="cls-48" d="M23.94,656.33l120.32,11.81-.73-19.69L22.58,635.85Z"/><path class="cls-49" d="M143.53,648.45l52.41,13.19L225.59,714l.68,23.57-82-69.43Z"/><path class="cls-50" d="M200.52,659.87l-4.58,1.77L225.59,714l40.89-50.24Z"/><path class="cls-51" d="M225.59,714l.68,23.57,145.39-67-105.18-6.84Z"/><path class="cls-51" d="M266.48,663.76l105.18,6.84,1-19.44Z"/><path class="cls-52" d="M372.7,651.16l134.55,45.42-135.59-26Z"/><path class="cls-53" d="M372.7,651.16l134.69-19.83-.14,65.25Z"/><path class="cls-54" d="M507.39,631.33l-.14,65.25,122.41-5.42Z"/><path class="cls-55" d="M507.39,631.33l122.27,59.83L631,651.55Z"/><path class="cls-56" d="M631,651.55l-1.31,39.61L759,679.85l.68-21Z"/><path class="cls-57" d="M759.68,658.88l-.68,21,121-7.68-57.62-16.53Z"/><path class="cls-58" d="M822.38,655.64,880,672.17l-7.35-28.69Z"/><path class="cls-59" d="M872.65,643.48,880,672.17l59.57-23.82Z"/><path class="cls-60" d="M880,672.17l116.87-6.94.54-20.12-57.84,3.24Z"/><path class="cls-61" d="M997.41,645.11l-.54,20.12L1027.24,630l4.18-17.81Z"/><path class="cls-62" d="M1031.42,612.14,1027.24,630l26.48-5.36Z"/><path class="cls-63" d="M1053.72,624.59l-22.3-12.45-53.23-29.92,41.9-16.48Z"/><path class="cls-64" d="M144.26,668.14l74.53,124.24,7.48-54.81Z"/><path class="cls-65" d="M23.94,656.33l120.32,11.81,74.53,124.24-8.35,67.42Z"/><path class="cls-66" d="M23.94,656.33,79,735.55l36.36,68.55,44.38,50.43,50.68,5.27Z"/><path class="cls-67" d="M226.27,737.57l-7.48,54.81,82,27.81Z"/><path class="cls-68" d="M300.8,820.19,371.66,670.6l-145.39,67Z"/><path class="cls-69" d="M218.79,792.38l-8.35,67.42L364.18,953,300.8,820.19Z"/><path class="cls-70" d="M371.66,670.6,300.8,820.19,507.25,696.58Z"/><path class="cls-71" d="M507.25,696.58,523.08,852,300.8,820.19Z"/><path class="cls-72" d="M300.8,820.19,364.18,953l158.9-101Z"/><path class="cls-73" d="M507.25,696.58,523.08,852l79.24-46Z"/><path class="cls-74" d="M507.25,696.58,602.32,806l27.34-114.8Z"/><path class="cls-75" d="M602.32,806,706,807.39,629.66,691.16Z"/><path class="cls-76" d="M629.66,691.16,706,807.39l53-127.54Z"/><path class="cls-77" d="M759,679.85,706,807.39l30.06,38.78,25.25-17Z"/><path class="cls-78" d="M523.08,852l28.28,8,51-54Z"/><path class="cls-79" d="M551.37,860l37.08,48.72L602.32,806Z"/><path class="cls-80" d="M588.45,908.71,706,807.39,602.32,806Z"/><path class="cls-81" d="M706,807.39,588.45,908.71l147.61-62.54Z"/><path class="cls-82" d="M588.45,908.71l32.69,11.17,114.92-73.71Z"/><path class="cls-83" d="M621.14,919.88l-22.49,28.34L736.06,846.17Z"/><path class="cls-84" d="M761.31,829.14l-25.25,17-67,49.75,233.43-81.84Z"/><path class="cls-85" d="M760.81,829.44,996.87,665.23,902.53,814.08Z"/><path class="cls-86" d="M759,679.85l1.81,149.59L996.87,665.23,880,672.17Z"/><path class="cls-87" d="M996.87,665.23,1027.24,630l26.48-5.36L902.53,814.08Z"/><path class="cls-88" d="M159.76,854.53l96.34,53.24,21.71-7.18L210.44,859.8Z"/><path class="cls-89" d="M364.18,953l56.48,30.7L523.08,852Z"/><path class="cls-90" d="M523.08,852l-7,69.48-95.43,62.2Z"/><path class="cls-91" d="M523.08,852l-7,69.48,65.42,21.31Z"/><path class="cls-92" d="M523.08,852l58.43,90.79,17.14,5.46-10.2-39.51L551.36,860Z"/><path class="cls-93" d="M588.45,908.71l10.2,39.51,22.49-28.34Z"/><path class="cls-94" d="M669.1,895.92l-14.19,10.52,102.59-2.11,145-90.25Z"/><path class="cls-95" d="M371.66,670.6,364.4,782.1l24.08,50.63-21.27,32.63L300.8,820.19Z"/><path class="cls-52" d="M424.11,673.4H405.34l1.41,2.71h-3.59l1.86-3.45H394.51l2.58-4.92-23.48-.34s.72,1.37,1.76,3.49l1.86,3.54c1.45,3.5,3.22,7.09,4.54,10.83.36.93.72,1.92,1,2.85.68,3.2,1.27,5.86,1.81,9.16,4.9-6.5,5.62-15,8.12-22.2,2.35,4.63,5.35,7.93,7.7,12.55a54.59,54.59,0,0,1,1.95-9.84c1.18,1.33,1.14,3.94,2.95,5.26a23.34,23.34,0,0,1,1.86-5.85,71.6,71.6,0,0,1,7,19.09,27.78,27.78,0,0,1,2.4-8.71c.32-.79.72-1.57,1.09-2.36.77-1.53,1.49-3.05,2.13-4.58,1.81,2,1.13,5.91,4.17,7.29,0-2,2.45-3.25,2.67-5.47.37-.64.73-1.28,1.05-1.92l1.81-3.29H422Z"/><path class="cls-52" d="M438.66,691.66c.55-1.78,3-3,3.76-6l1.5-2.65,1.59-2.91h-12L435,683c1.23,1.78,1.18,3.74,2.54,5.61Z"/><path class="cls-52" d="M452,706.27c3.36-5.66,8.25-9.55,11-15.2a23.17,23.17,0,0,0,1.13-2.42l1.82-3.29c.45-.79.68-1.28.68-1.28l-18.77-.25.68,1.33a27.8,27.8,0,0,1,1.59,3.35,13.53,13.53,0,0,1,.81,2.65,15.63,15.63,0,0,1,0,2.56,34.8,34.8,0,0,0,0,10.78A9.67,9.67,0,0,0,452,706.27Z"/><path class="cls-52" d="M467,686.64l.68,1.33,1.68,3.29a32.86,32.86,0,0,1,4,17.47c3.68-5.21,6.17-11.76,9.84-17.17l.55-1Z"/><path class="cls-60" d="M899,689.74c6.57-5.27,6.07-13.78,8.57-21H893.64c3,6,7.71,11.91,5.63,19.39C899,689.15,899,689.74,899,689.74Z"/><path class="cls-60" d="M933.45,663.07c-2.9.83-5.31-.5-8.62-.35H908.24l3.36,6.55c.59,1.08,1.13,2.16,1.63,3.15l1.81,3.49.77-1.62c.5-.89,1.14-2.12,1.82-3.3.81-2.17,2-2.81,2.67-4.92,2.36,5.26,5.31,9.25,7.66,14.51,4.9-3.19,4.94-9.84,6.85-14.76,1.72,4.58,5.94,7.29,6.48,12.55A38.35,38.35,0,0,1,943.83,664l1.81-3.34H931.82Z"/><path class="cls-60" d="M976.74,659.33H966.41l.45-.84-21.58-.29,3.36,6.44,1,1.87c2.58,4.33,4.53,9.84,6.71,14.22,1.27-2.61,3.08-4.53,4.3-7.13a65.22,65.22,0,0,0,4.54,11.22c4.3-5.22,5-12.4,7.66-18.46.68-1.32,1.36-2.51,1.9-3.54C976,660.66,976.74,659.33,976.74,659.33Z"/><path class="cls-57" d="M773.42,693.87c1.58-5.26-1.36-11.22,2.22-15.55l1.49-2.9.64-1.08H761.4l.59,1.13c.36.73.91,1.72,1.54,2.9a76.17,76.17,0,0,0,8.66,14A10.12,10.12,0,0,1,773.42,693.87Z"/><path class="cls-57" d="M861.73,668.72l-21.17-.29,2.9-5.32-23.8-.34,2.81,5.41H813l3.63-6.59-23.8-.34,1.63,3.15-18.54-.3L785,681.42l.9,1.72c.82,1.18.77,2.46,2,3.79.63-3.25,3.67-4.92,4.89-8.46a15,15,0,0,1,3.42,5.74,15.84,15.84,0,0,1,.66,6.81,25,25,0,0,0,8.57-7.78,41.09,41.09,0,0,1-.68,8.51c5.49-5.8,6.17-13.68,7.48-21.74l.5-1.14,1.86,3.5c4.17,7.77,4,17.61,9.66,25.24.49,1,1,2,1.54,2.95,2.45-5.21.72-11.12,2-17a19.87,19.87,0,0,0,1,2.9,30.18,30.18,0,0,0,2,2.41,18.33,18.33,0,0,1,5.3-12,20,20,0,0,0,1.23-2.11c.63-1.08,1.13-2,1.49-2.71l.59-1,1.59,3.15A80.92,80.92,0,0,0,847,693c3.09-5.85,8-11,11-17.07.36-.64.68-1.28,1-1.87Z"/><path class="cls-96" d="M757.82,665.53c-5.49,0-10.93-.25-16.28-.25H734l2.13,4.18H721s.37.64.82,1.58l1.86,3.54a11,11,0,0,0,3.17,4.92H719l.59-.64H709.31a3.76,3.76,0,0,1,.49-1.92,3.5,3.5,0,0,1,1.37-1.33H689.36l1.95-3.54-23.8-.29,6.8,13.18H671c-6.43-.49-11.92,2.71-18.54,2,1.23-1.28,1.23-3.89,2.45-5.21a68.91,68.91,0,0,0-11.65-.84H631.38l6.89,13.34c.36.68.73,1.37,1,2.06,1.55,1.77,2.09,4.92,3.9,7.09a27.84,27.84,0,0,0,8-13.68c2.9,10.53,10.7,17.86,13.6,28.39,4.31-9.15,1.45-21,7.76-29.28l1.9-3.44,4.53,9.15,9.07-16.58,4.53,8.26,1,1.92a104.51,104.51,0,0,0,5.93,12.06c1.27-1.92,3.09-2.56,3.09-5.17a21.89,21.89,0,0,1,3.88,8.36,22.71,22.71,0,0,1,.15,9.36,14.23,14.23,0,0,0,2.4-2.32,16.32,16.32,0,0,0,1.77-2.7,48.61,48.61,0,0,0,4-19.09A209,209,0,0,1,723,709.67a25.87,25.87,0,0,0,5.21-8.61c.32-.74.59-1.53.91-2.32.68-2.7,1.9-4,2.54-6.64a7.71,7.71,0,0,0,1.72,5.26c3.08-5.16,1.95-11.76,5.62-16.28a28.24,28.24,0,0,0,4.53,12.5,96.42,96.42,0,0,1,13.6-26.23A10.64,10.64,0,0,1,757.82,665.53Z"/><path class="cls-97" d="M620.5,688.56H603.82l1.9-3.45,1.91-3.49H570.72l3.63,7H559.21l2.9-5.31H548.92l1.31-2.36-23.8-.35,3.17,6.15H516l2.72,5.22c.28.59.64,1.23,1,1.92,3.44,8.22,4.53,17.42,11.74,22.78,0-6.59-1-13.82,3.22-19.68a45.87,45.87,0,0,0,5.35,9.25c.63-3.3,2.49-5.21,3.08-8.51.22-.64.45-1.28.63-1.92s.46-1.33.64-2c1.86,3.69,3.94,7.43,5.53,11.47.32.78.59,1.62.86,2.46a8.64,8.64,0,0,0,1.86,5.21,5.26,5.26,0,0,1,.59-3,24.79,24.79,0,0,0,.63-3.2A37.2,37.2,0,0,1,556.53,694l1-1.87,1-1.72,1.72,3.29,1.77,3.4a57.48,57.48,0,0,1,10.43,25.39c2.49-6.54,0-13.78,2.68-20.57.49-.93,1-1.87,1.58-2.75a27.58,27.58,0,0,0,1.5-2.86,37.21,37.21,0,0,0,2,4.33l1.13,2c.95,2.26,2.72,4.23,2.72,6.84,4.26-4.53,3.72-11.07,5.62-16.29a62.44,62.44,0,0,1,3.31,6,19.42,19.42,0,0,1,.86,2.11c.55,1.13.5,3.1,1.09,4.43a54.06,54.06,0,0,1,5.58-10.43c1,6.2,2.39,12.35,4,18.4A32.44,32.44,0,0,1,618.14,694a24.57,24.57,0,0,0,1.91-3Z"/><path class="cls-98" d="M89.94,652.09l-26.47-.34h-2a47,47,0,0,1-5.31,0c.64-.64.64-1.28,1.23-2-6.62,0-13.87,0-20.22-.44H33.41l1.86,3.54c3.27,7.23,11.06,11.27,12.79,19.19,5.48-4.53,6.16-12.4,7.48-18.94,4.12,7.28,9.06,13.92,10.24,22.34l1.09,3.24a31.89,31.89,0,0,0,8.11,14c2.54-9.15.82-19,7.44-26.92.63-1.08,1.09-2,1.45-2.61l.54-1,.82,1.62c.5.94,1.18,2.22,1.81,3.5s2.72,2.66,2.68,4.92L90.4,671c2.08-3.89,8.43-15.4,8.43-15.4H88Z"/><path class="cls-99" d="M143.08,656.47a41.39,41.39,0,0,1-17.55-.39c.59.64.59,1.33,1.18,2a38.4,38.4,0,0,1-10.7-.45h-3.49l1.59,3.06h-3.54l.68-1.28c.46-.74,1-1.78,1.54-2.76l2.23-4.08-17.82-.25,3.26,6.35,1.09,2.11a29.71,29.71,0,0,0,5.71,9.85c0-.64.64-2,.64-2.61a33.91,33.91,0,0,1,4,15.79,22.23,22.23,0,0,0,3.81-7.57c.27-.89.55-1.83.77-2.71a9.69,9.69,0,0,0,1.63-5.36,37.57,37.57,0,0,1,3.54,7.23c1.9-4.58,7.93-4.92,8.61-11a21.3,21.3,0,0,1,5.77,8.57,23,23,0,0,1,1.26,10.52c7.3-6.45,3.22-17,5.21-25.29A12.11,12.11,0,0,1,143.08,656.47Z"/><path class="cls-49" d="M195.76,710.55c2.81,3.55,3.35,8.17,6,11.76l1.72,3c3.45,6.11,7,12.41,3.72,19.69,9.06-4.48,7.48-16.93,10.83-25.44.64-1.28,1.27-2.46,1.86-3.55l3-5.51-21.45-.29h-3C196.75,710.36,195.76,710.55,195.76,710.55Z"/><path class="cls-49" d="M201.74,695.05h-9.07l2.91-5.21-19.45-.3,7.7-14-23.8-.35,4.54,9.15,1.08,2.12c2.32,3.79,3.5,8.41,5.85,12.35-.59-2,1.86-3.25,1.86-5.21,3.54,8.61,10.11,15.25,10,25a6.08,6.08,0,0,0,1.72-2.9,7.18,7.18,0,0,0,.77-3c3,2.65.5,7.87,3.49,10.53,3.72-5.86,3.81-13,7.43-19l1.09-2Z"/><path class="cls-51" d="M277.5,708.09l-17.41-.24,2.63,4.92H247.8l5.31,10.33q1.33,2.4,2.44,4.92c.77,2.41,1.95,4.38,2.54,6.4a116.68,116.68,0,0,1,8-14.76,29.35,29.35,0,0,1,2,5.21,38.13,38.13,0,0,0,2.08,5.36c.68-7.87,7.39-11.71,9.07-18.25.59,2,2.4,3.35,2.36,5.31-.73,11.76-.28,25.54,10.51,31.59-10.69-13.23.32-28.83,7.44-40.15.54-1.08,1-2.16,1.63-3.2s1.14-2,1.72-2.95l2.72-4.92-34-.49Z"/><path class="cls-51" d="M321,711.29a87.39,87.39,0,0,1,11.38-23.52,51.1,51.1,0,0,1-5.8-.3H310.36l2.77,5.37a65.59,65.59,0,0,1,3.35,8.07c.5,1.33,1,2.7,1.59,4a39.71,39.71,0,0,0,1.91,4.13C320.52,710.36,321,711.29,321,711.29Z"/><path class="cls-51" d="M357.28,676.2H349.4c0-.68.59-.64.59-1.32H328.36l2.77,5.31c.77,1.58,1.67,3.3,2.54,4.92,2.14,4.42,4.48,8.73,7,12.89a70.92,70.92,0,0,1,7.44-18.89,17.28,17.28,0,0,0,4.53,8.56,18.76,18.76,0,0,1,3.54-9.5Z"/><path class="cls-100" d="M.14,549.45,0,561.9l7,40.54.46-11.66Z"/></g><g id="TreeWithStone_2"><path class="cls-101" d="M735.92,504.62,754,443.26l10.61,4.38-16,59.29Z"/><path class="cls-102" d="M754,443.26l10.61,4.38,11.61-32.33-8.8-4Z"/><path class="cls-103" d="M758.09,433.57l9.93-15,6.17,2.41,2-5.66-8.8-4Z"/><path class="cls-104" d="M763,453.44l8.12-12.69v-5L768,438.19l-3.4,9.45Z"/><path class="cls-105" d="M771.15,440.75l1,1-11.57,20.77,2.45-9.11Z"/><path class="cls-106" d="M771.15,440.75l21.49-17.12-1.77-4.33-19.72,16.43Z"/><path class="cls-107" d="M772.15,441.78,792.64,425v-1.37l-21.49,17.12Z"/><path class="cls-108" d="M762.67,318.12l29,8.76-9.07-46.64Z"/><path class="cls-109" d="M762.67,318.12l13.56-37.88h6.39Z"/><path class="cls-110" d="M782.62,280.24l9.07,46.64,34.45-34.34Z"/><path class="cls-111" d="M826.14,292.54,814.67,265l-32,15.26Z"/><path class="cls-112" d="M782.62,280.24h-6.39L814.67,265Z"/><path class="cls-113" d="M814.67,265l11.47,27.56,17.54,5.26Z"/><path class="cls-114" d="M831.76,337l-5.62-44.43-34.45,34.34Z"/><path class="cls-115" d="M762.67,318.12l21.17,32.09h7.35l.5-23.33Z"/><path class="cls-115" d="M791.19,350.21,831.76,337l-40.07-10.09Z"/><path class="cls-116" d="M797.53,348.14l4.54,4.58,12.6-22.64-5.58-3.2Z"/><path class="cls-117" d="M793.77,335.74l-.18,10.73,4.53.19.37-12.05Z"/><path class="cls-118" d="M793.72,337.22l4.58,3.29.19-5.9-4.72,1.13Z"/><path class="cls-119" d="M798,310.6l9,24.85,14.1-5.22Z"/><path class="cls-120" d="M821.11,330.23l3.31-33.81L798,310.6Z"/><path class="cls-121" d="M824.42,296.42l-14.87-15.05L798,310.6Z"/><path class="cls-122" d="M821.11,330.23l27.11-16.93-23.8-16.88Z"/><path class="cls-123" d="M807,335.45l29.74,2.11-15.64-7.33Z"/><path class="cls-124" d="M821.11,330.23l15.64,7.33,11.47-24.26Z"/><path class="cls-125" d="M824.42,296.42l23.8,16.88-7.8-30.21Z"/><path class="cls-126" d="M809.55,281.37l14.87,15.05,16-13.33Z"/><path class="cls-127" d="M726.22,319l15.32,29.28,29.2-24.36-7.3-4.57Z"/><path class="cls-128" d="M770.74,323.88l8.57,9.7,3.31,11.95-18.54,14.86-22.54-12.15Z"/><path class="cls-129" d="M743,387.85l21-27.46-22.54-12.15Z"/><path class="cls-130" d="M788.06,339.14,753.69,364l10.39,2.31Z"/><path class="cls-131" d="M764.08,366.35h44.24l-20.26-27.21Z"/><path class="cls-132" d="M808.32,366.35,823,364.13l-34.91-25Z"/><path class="cls-133" d="M753.69,364l-1.9,28.83,7.89,13.34,4.4-39.86Z"/><path class="cls-134" d="M764.08,366.35l20.76,41.83-25.16-2Z"/><path class="cls-135" d="M764.08,366.35l20.76,41.83,23.48-41.83Z"/><path class="cls-136" d="M784.84,408.18l32.46-3.75-9-38.08Z"/><path class="cls-137" d="M823,364.13l-5.67,40.3-9-38.08Z"/><path class="cls-138" d="M759.68,406.21,757.09,410l27.75,18.65V408.17Z"/><path class="cls-139" d="M784.84,408.17v20.47l15.32-9.74-11.29-11.17Z"/><path class="cls-140" d="M781.58,396.86l32.5-30.51-5.76,49.21Z"/><path class="cls-141" d="M808.32,415.56l44.3-20.33-38.54-28.88Z"/><path class="cls-142" d="M852.62,395.23l-1-30.36-37.54,1.48Z"/><path class="cls-143" d="M852.62,395.23l15.45,15.4-16.45-45.76Z"/><path class="cls-144" d="M852.62,395.23l-10.3,47.19,25.75-31.79Z"/><path class="cls-144" d="M852.62,395.23l-44.3,20.32,34,26.87Z"/><path class="cls-145" d="M808.32,415.56l-9.43,26.57,43.43.29Z"/><path class="cls-146" d="M808.32,415.55l-9.43,26.58-17.31-45.27Z"/><path class="cls-147" d="M755.6,369.79l5.8,37.5-25.07-26.52Z"/><path class="cls-148" d="M736.33,380.77l-19.72-19.24,39,8.26Z"/><path class="cls-149" d="M736.33,380.77l-9.07,41.67,34.14-15.15Z"/><path class="cls-150" d="M727.26,422.44l12.15,13.29,22-28.44Z"/><g id="SubStone"><path class="cls-45" d="M959.38,553.24l5.17,1.37-3.81,4.19Z"/><path class="cls-151" d="M849.76,561.06l56.67,6.15L902,551Z"/><path class="cls-152" d="M906.43,567.21l54.31-8.41-7.48-30.86L902,551Z"/><path class="cls-153" d="M953.26,527.94,911,530.11l-52.5,15.65-8.75,15.3L902,551Z"/><path class="cls-154" d="M814.67,588.62,835,584.24l40.8,1V584l-35.77-1,17.23-3.6,18.13,3.06,37.27,9,5,2.56,6.16-1.33L944,590.29l5.76-4.92.91-6-36.27-3.34,7.34-4.92-5.17-1.82L927,567.51l7.57,2.26,28.6-2.26,2.13-5.66-9.06-2.31-38,5.9,4.54,1.52-7.3,1.73H909l-4.26-1-.37-.73-54.4-6,3.45-6.05-24.85.69-13.87,8.66,9.07,3-25.35,2.86-6.39,5.7,15.87,9.06,4.53-3.1,20.86-.84-23.44,5.32Z"/><path class="cls-155" d="M849.76,561.06l39.49-7.58,1.72,8,9.34,3.4v-9.6l-3.86-3.14L902,551l2.22,8.12.09,7.87Z"/><path class="cls-156" d="M904.25,559.14l.09-2.85,14.24,9.25,37.63-6-2.27-3.5,1.18-9.4L945,531.68,902,551Z"/><path class="cls-157" d="M849.76,561.06l39.49-7.58.68-1.28,6.52-.09L902,551,945,531.68l-12.42.94-29.83,7-17,9-11.66-.44L853.21,555Z"/><path class="cls-158" d="M874.74,581.53l.5,12.79,2.45,3Z"/><path class="cls-159" d="M877.69,597.33l6.89,1.72,7.93-13.58-17.77-3.94Z"/><path class="cls-160" d="M884.58,599.05l13.78,1-5.85-14.61Z"/><path class="cls-161" d="M898.36,600.08l10.2-.69L915,585.07l-22.53.4Z"/><path class="cls-162" d="M915,585.07l.41,12-6.89,2.31Z"/><path class="cls-163" d="M896.77,568.1l-4.26,17.37,22.53-.4Z"/><path class="cls-164" d="M896.77,568.1l-22,13.43,17.77,3.94Z"/><path class="cls-165" d="M896.77,568.1l18.27,17-3.85-5.66Z"/><path class="cls-166" d="M915.27,592.11h2.08l2.91,4.43-11.7,3,6.89-2.41Z"/></g><path class="cls-167" d="M729.4,576.91V559.14h15.05v10.09Z"/><path class="cls-168" d="M729.4,559.14l6.52-54.52,12.65,2.31-4.12,52.21Z"/><path class="cls-169" d="M735,464.52s-10.15-35.38-10.47-35a30.74,30.74,0,0,0,5.21-.84l10.93,34.45Z"/><path class="cls-170" d="M727.72,439.67l6.16,2.11-4.08-12.89-5.3.59Z"/><path class="cls-171" d="M741.54,348.24l-35.08,21.55L726.22,319Z"/><path class="cls-172" d="M741.54,348.24l1.5,39.61-33.37-13.68-3.21-4.38Z"/><path class="cls-173" d="M716.61,361.53l-17.18,32,36.9-12.79Z"/><path class="cls-174" d="M699.43,393.56l-3.4-3.35,20.58-28.68Z"/><path class="cls-175" d="M699.43,393.56l27.83,28.88,9.07-41.67Z"/><path class="cls-176" d="M699.43,393.56l3.17,34.54,24.67-5.66Z"/><path class="cls-177" d="M696,390.21l3.4,3.35,3.17,34.54Z"/><path class="cls-178" d="M702.6,428.1l36.81,7.63-12.15-13.29Z"/><path class="cls-179" d="M745.08,493.45l-6.12.89-4-29.82,5.67-1.23Z"/></g><g id="TreeWithStone_1"><path class="cls-180" d="M214.89,574.59l-22.76-51-9.52.24,21.71,57.72Z"/><path class="cls-180" d="M182.61,523.81l-4.08-53.29,7.57,3,6,50.05Z"/><path class="cls-181" d="M186.1,473.52l1.72-.79L194.53,522l-2.4,1.53Z"/><path class="cls-182" d="M192.13,523.57l22.76,51,8.79,5.07L194.53,522Z"/><path class="cls-183" d="M178.53,470.52l-1.5-25,6.12-4.28,2.95,32.28-7.93-3Z"/><path class="cls-184" d="M186.1,473.52l1.72-.79-3.17-31.49h-1.5Z"/><path class="cls-185" d="M185.92,453.54l3.26-15.35,5.35-3.1-7.12,33.22Z"/><path class="cls-185" d="M181.66,511.26,166.2,486.17l-1.5-5.81,1.54-2.51,21.08,32.58Z"/><path class="cls-186" d="M187.32,510.43l-6.75-13.29-12.83-20-1.5.69Z"/><path class="cls-187" d="M164.7,480.36l-2.63-5.46,4.17,3Z"/><path class="cls-188" d="M163.75,482.38l-11.51-8.76,2.4-3.89,7.43,5.17,2.63,5.46Z"/><path class="cls-189" d="M166.24,477.85l-4.17-3-7.43-5.17.54-1.47,12.65,8.9Z"/><path class="cls-190" d="M120.45,485.43l26.48.93L140,472.73Z"/><path class="cls-191" d="M115.29,458.66l5.17,26.77L140,472.73Z"/><path class="cls-192" d="M115.29,458.66l-7.48,5.81,12.65,21Z"/><path class="cls-193" d="M115.29,458.66,140,472.73,139.36,443Z"/><path class="cls-194" d="M107.81,464.47l7.48-5.81L119,438.78l-11.38,25.69Z"/><path class="cls-195" d="M140,472.73l6.94,13.63,11.52-24.7Z"/><path class="cls-196" d="M139.36,443l.63,29.77,18.46-11.07Z"/><path class="cls-194" d="M119,438.78l-3.67,19.88L139.36,443Z"/><path class="cls-197" d="M139.36,443l19.09,18.7L145.89,440.5Z"/><path class="cls-198" d="M145.89,440.5,119,438.78l20.4,4.18Z"/><path class="cls-199" d="M141.35,442.18,154,454.13l-8.11-13.63Z"/><path class="cls-200" d="M145.89,440.5l-9.11.35,4.57,1.33Z"/><path class="cls-201" d="M213.71,422.05l21.4-14.52-23.8.3Z"/><path class="cls-202" d="M226.86,378.45l-15.55,29.38,23.8-.29Z"/><path class="cls-203" d="M226.86,378.45l8.25,29.08-3.49-30.7Z"/><path class="cls-204" d="M226.86,378.45l-18.45-17.91,23.21,16.29Z"/><path class="cls-57" d="M226.86,378.45l-15.55,29.38L206,379.29Z"/><path class="cls-205" d="M226.86,378.45l-20.9.84-1.18-15.06,3.63-3.69Z"/><path class="cls-206" d="M219.6,392.18l.41-11.71-1-1.72-13,.54,5.35,28.54Z"/><path class="cls-207" d="M219,378.75l-11.56-17.22-2.63,2.7L206,379.29Z"/><path class="cls-208" d="M135.78,391,115.7,363.54l9.06-12.25Z"/><path class="cls-209" d="M124.76,351.29l11,39.71L166,372.35Z"/><path class="cls-210" d="M124.76,351.29,166,372.35l-4.9-47.93Z"/><path class="cls-211" d="M161.12,324.42l4.9,47.93,28.79-21.8Z"/><path class="cls-212" d="M161.12,324.42l33.69,26.13L173,320Z"/><path class="cls-213" d="M115.7,363.54,130.29,320l-5.53,31.25Z"/><path class="cls-214" d="M130.29,320l-5.53,31.25,36.36-26.87Z"/><path class="cls-215" d="M130.11,320s30.78,3.84,30.83,4.38A99.05,99.05,0,0,0,172.86,320Z"/><path class="cls-216" d="M132.42,436.22l38.27,13.19-38.27-40.25Z"/><path class="cls-217" d="M170.69,449.41l14.82-48.47-53.09,8.22Z"/><path class="cls-218" d="M185.51,400.94l-14.82,48.47,43.84-25.88Z"/><path class="cls-219" d="M132.42,409.16,123,380.72l9.43,55.5Z"/><path class="cls-220" d="M132.42,409.16l53.09-8.22-30.74-43.3Z"/><path class="cls-221" d="M132.42,409.16,123,380.72l31.78-23.08Z"/><path class="cls-221" d="M154.77,357.64l30.74,43.3L206,366.05Z"/><path class="cls-222" d="M194.94,384.9l-12.47-22.68L206,366.05Z"/><path class="cls-223" d="M206,366.05l-20.45,34.89,29,22.59Z"/><path class="cls-224" d="M194.35,326.34,210,350.55l-1-13.73Z"/><path class="cls-225" d="M210,350.55l24-3.39-25-10.34Z"/><path class="cls-226" d="M209,336.82l25,10.34-1.36-28.05Z"/><path class="cls-227" d="M209,336.82l-1.81-32.37-12.83,21.89Z"/><path class="cls-228" d="M209,336.82l23.62-17.71-25.43-14.66Z"/><path class="cls-229" d="M207.18,304.45l25.43,14.66-1.08-20.32Z"/><path class="cls-230" d="M232.61,319.11l15.1,4.58-16.18-24.9Z"/><path class="cls-231" d="M232.61,319.11,234,347.16l13.74-23.47Z"/><path class="cls-232" d="M192.54,330l-18.23,12.31,9.34.39Z"/><path class="cls-233" d="M174.31,342.29l1.63,21,7.71-20.57Z"/><path class="cls-234" d="M183.65,342.68l22.67.2L192.54,330Z"/><path class="cls-235" d="M175.94,363.25l19.91.69-12.2-21.26Z"/><path class="cls-236" d="M195.85,363.94l10.47-21.06-22.67-.2Z"/><path class="cls-237" d="M206.32,342.88l4.08-1.09L192.54,330Z"/><path class="cls-238" d="M206.32,342.88l5.53,20.66-1.45-21.75Z"/><path class="cls-239" d="M206.32,342.88l-10.47,21.06,16-.4Z"/><path class="cls-240" d="M175.94,363.25,194.81,376l1-12.05Z"/><path class="cls-241" d="M194.81,376l17-12.45-16,.4Z"/><path class="cls-242" d="M164.7,480.36l-.95,2,2.36,3.54Z"/><path class="cls-243" d="M186.6,592.5l1.45,33.37,10.11-27.31Z"/><path class="cls-244" d="M186.6,592.5l11.56,6.06,15.91-24.95Z"/><path class="cls-245" d="M198.16,598.56l35.5-1.73-15.55,32-30.06-3Z"/><path class="cls-246" d="M233.66,596.83l-15.55,32,26.2-5Z"/><path class="cls-247" d="M214.07,573.61l19.59,23.22-35.5,1.73Z"/><path class="cls-248" d="M214.07,573.61l19.59,23.22,8.75-6.84Z"/><path class="cls-249" d="M242.41,590l1.9,33.86-10.65-27Z"/><path class="cls-250" d="M248.84,624l-5.21-11.67-.36-6.64,15.64,1.48Z"/><path class="cls-251" d="M248.84,624l-4.67-2.66-.54-9Z"/><path class="cls-252" d="M248.84,624c.37,0,19.86-1.48,19.86-1.48l-9.79-15.35Z"/><path class="cls-253" d="M268.7,622.47l4.58-18.8-14.37,3.45Z"/><path class="cls-254" d="M273.28,603.67l-.68,15.41-3.9,3.39Z"/><path class="cls-255" d="M256.46,592.4l2.45,14.72,14.37-3.45Z"/><path class="cls-256" d="M256.46,592.4l-13.24,12,.05,1.28,15.64,1.48Z"/><path class="cls-257" d="M218.11,628.82,248.84,624l-4.67-2.66.14,2.56Z"/><path class="cls-258" d="M248.84,624l1.5-2.56,1.41-5.86L247.3,606l-4-.4.36,6.64Z"/><path class="cls-259" d="M247.3,606l-.72-4.73-3.36,3.05.05,1.28Z"/><path class="cls-260" d="M307.24,571.74v3.2l-26.89,7.77-30.15.44-15.82,4.92,6.26,5.27h15.91l6.17-2.36H265l-5.39,5.17,2.58,1.22,31.74-8.26,8,1.92,20.63-1.58,15.64-22.68v-2.12Zm-35.59,20.32,2.9-3.44L278,588l2.67-1.18,7.17,1.67Z"/></g><g id="TreeWithStone_3"><path class="cls-261" d="M338.79,572.38,336.43,542l10.38-2.81,2.95,21.9Z"/><path class="cls-262" d="M346.81,539.21l-8.61-49.79-9.34,4.82L336.43,542Z"/><path class="cls-263" d="M349.76,561.11l2.58-.69-3.12-20.76-2.41-.45Z"/><path class="cls-264" d="M346.81,539.21l2.41.45-9.57-49.6-1.45-.64Z"/><path class="cls-265" d="M346.54,525.68l9.34-29.28L352.34,488l-8.84,22Z"/><path class="cls-266" d="M305,405.86l3.13,28.54,10.79-26.82Z"/><path class="cls-221" d="M305,405.86l13.92,1.72,10.56-18.4Z"/><path class="cls-267" d="M318.93,407.58l29.83-.49-19.27-17.91Z"/><path class="cls-268" d="M348.76,407.09l2.77-2.9-22-15Z"/><path class="cls-269" d="M318.93,407.58,308.14,434.4l27.47,1.08Z"/><path class="cls-270" d="M335.61,435.48l13.15-28.39-29.83.49Z"/><path class="cls-271" d="M335.61,435.48,355.06,433l-6.3-25.93Z"/><path class="cls-272" d="M335.61,435.48l-1.76,6.75,3.81,3.1L355.06,433Z"/><path class="cls-273" d="M333.85,442.23l-17.77-2.42-7.94-5.41,27.47,1.08Z"/><path class="cls-274" d="M348.76,407.09l6.3,25.93-3.53-28.83Z"/><path class="cls-275" d="M297.76,418.61l-.5,18.2,12.06,3.4Z"/><path class="cls-210" d="M297.26,436.81l-20.85-13.73,21.35-4.47Z"/><path class="cls-276" d="M276.41,423.08l-.59-4,21.94-.49Z"/><path class="cls-277" d="M275.82,419.1l-11.88,19.24,11.88,11.07.59-26.33Z"/><path class="cls-278" d="M276.41,423.08l-.59,26.33,21.44-12.6Z"/><path class="cls-279" d="M263.94,438.34l11.88,22V449.41Z"/><path class="cls-280" d="M275.82,460.33l21.44-.59-21.44-10.33Z"/><path class="cls-281" d="M275.82,449.41l21.44,10.33V436.81Z"/><path class="cls-282" d="M297.26,436.81v22.93l12.06-19.53Z"/><path class="cls-283" d="M353,437.35l21.13,10.93,15.6-13.19Z"/><path class="cls-284" d="M374.15,448.28,405.07,467l-15.32-31.89Z"/><path class="cls-284" d="M374.15,448.28l-31.87,23L353,437.35Z"/><path class="cls-285" d="M342.28,471.26l34.77,18.8-2.9-41.78Z"/><path class="cls-286" d="M377.05,490.06l28-23.08-30.92-18.7Z"/><path class="cls-287" d="M405.07,467l-10.56,33.31-17.46-10.23Z"/><path class="cls-288" d="M394.51,500.29,356.7,502.9l20.35-12.84Z"/><path class="cls-289" d="M356.7,502.9l-14.42-31.64,34.77,18.8Z"/><path class="cls-290" d="M357.15,439.52l7.84-2.9-12,.73Z"/><path class="cls-291" d="M357.15,439.52l-7.66,13L353.66,463l-11.38,8.22L353,437.35Z"/><path class="cls-292" d="M353.66,463l5.35,7.73-1.36,8.8-15.37-8.31Z"/><path class="cls-293" d="M357.65,479.57,366,497l-9.29,5.86-14.42-31.64Z"/><path class="cls-294" d="M371.7,493.45l-1.31-7,6.66,3.6Z"/><path class="cls-295" d="M370.39,486.46l2.81-2.16,3.63,2.75.22,3Z"/><path class="cls-296" d="M376.83,487.05l2.26,1.33-2,1.67Z"/><path class="cls-297" d="M300.25,483.61l11.38-29-16-3.15Z"/><path class="cls-298" d="M311.63,454.58,323.24,433l-27.57,18.41Z"/><path class="cls-299" d="M311.63,454.58l33-.74L323.24,433Z"/><path class="cls-300" d="M344.64,453.84l3.22-3.54L323.24,433Z"/><path class="cls-301" d="M300.25,483.61l29.24,2.56-17.86-31.59Z"/><path class="cls-302" d="M329.49,486.17l15.15-32.33-33,.74Z"/><path class="cls-303" d="M329.49,486.17l23.9-3.79-8.75-28.54Z"/><path class="cls-304" d="M344.64,453.84l8.75,28.54-5.53-32.09Z"/><path class="cls-305" d="M300.25,483.61l24.26,17.07,5-14.51Z"/><path class="cls-306" d="M324.51,500.68l28.88-18.3-23.9,3.79Z"/><path class="cls-307" d="M400.13,573.07l10.29,1.52,30.83-2.21,7.7-4.92-7.61-2.07,36.26-6,3.95-6.4s-17.32-1-17.23-1.23,0-3.79,0-3.79l-24.57-1.23-28.29,4.63-.95,4.33-12.33.49,9.52-4.43-9.52-1.87-15.37.84,13.87,18,12.56-3,11.83-1.58,9.07,1.33-20.81,1.82Z"/><path class="cls-308" d="M320.75,577.89l1.08,15.4,3,1.28,5.67-13Z"/><path class="cls-309" d="M324.87,594.57l23.12,1-17.45-14Z"/><path class="cls-310" d="M330.54,581.53l17.45,14,7.26-15.1Z"/><path class="cls-311" d="M355.25,580.45,348,595.55l11.93-3Z"/><path class="cls-312" d="M355.25,580.45l4.53,12.1s-.27-16.38-.27-16.48S355.25,580.45,355.25,580.45Z"/><path class="cls-313" d="M320.75,577.89l9.79,3.64,10.15-17.27Z"/><path class="cls-314" d="M330.54,581.53l24.71-1.08-14.56-16.19Z"/><path class="cls-315" d="M340.69,564.26l14.56,16.19,4.39-4.38-19.13-11.81Z"/><path class="cls-316" d="M342.33,562.29v3.1l13,8,1.9-5.46Z"/><path class="cls-317" d="M357.19,568l10.61,18.9-8-.55-.18-10.23-4.35-2.66Z"/><path class="cls-318" d="M367.8,586.85,383,586.7l10-20.37L357.19,568Z"/><path class="cls-319" d="M393.05,566.33,383,586.7l16.59-3.79Z"/><path class="cls-320" d="M393.05,566.32l6.58,16.59-1.23-22.39Z"/><path class="cls-248" d="M398.4,560.52,371.52,543.2l21.54,23.12Z"/><path class="cls-297" d="M371.52,543.2,357.19,568l35.86-1.63Z"/><path class="cls-321" d="M371.52,543.2,357.19,568l-14.86-5.66Z"/><path class="cls-322" d="M348,595.55l17.59-2.95,3.58-4.62-1.36-1.13-8-.55.1,6.25Z"/><path class="cls-323" d="M399.22,575.23l12.47,1.13L406.43,583,383,586.7l16.59-3.79Z"/></g><g id="Stones"><g id="Stone_4"><path class="cls-324" d="M116.92,566.87l-1.72,17.22L126,586.6Z"/><path class="cls-325" d="M116.92,566.87,126,586.6l14.1,1,10.42-19.73Z"/><path class="cls-326" d="M150.51,567.85l-10.42,19.73,21-2.41Z"/><path class="cls-327" d="M150.51,567.85l10.57,17.32,9.92-2.85,2.81-19.88Z"/><path class="cls-328" d="M173.81,562.44l-1.13,17L171,582.32Z"/><path class="cls-329" d="M150.51,567.85l-7.39-25.14,30.69,19.73Z"/><path class="cls-330" d="M143.12,542.71l-22.26,17.71-3.94,6.45,33.59,1Z"/><path class="cls-331" d="M161.08,585.17l9.92-2.85s1.68-2.71,1.68-2.91.36-5.26.36-5.26L188,578.33l-15.05,4.53Z"/></g><g id="Stone_3"><path class="cls-332" d="M240.49,559.65,262,560l-12.06-14.52Z"/><path class="cls-333" d="M233.19,557l1.18,14.27,1.68.69,4.44-12.26Z"/><path class="cls-334" d="M240.49,559.65,262,560l-6.62,12.6-19.31-.64Z"/><path class="cls-323" d="M262,560l-6.62,12.6,11.74-4.68Z"/><path class="cls-335" d="M262,560l5.12,7.92.14-12Z"/><path class="cls-336" d="M233.19,557l7.3,2.7,9.43-14.22Z"/><path class="cls-337" d="M249.92,545.43,262,560l5.26-4.08Z"/><path class="cls-338" d="M267.15,565.9l9.43.35L271.82,570l-16.46,2.51,11.74-4.68Z"/></g><g id="Stone_5"><path class="cls-339" d="M514.92,522l5.3,28.54,13-24.85Z"/><path class="cls-340" d="M533.23,525.73l16.59,26.42-29.6-1.57Z"/><path class="cls-341" d="M533.23,525.73l16.59,26.42,13-27.65Z"/><path class="cls-342" d="M562.83,524.5l3.95,24.11-17,3.54Z"/><path class="cls-343" d="M562.83,524.5l-21.35-20.22-8.25,21.45Z"/><path class="cls-344" d="M541.48,504.28l-8.25,21.45L514.92,522Z"/><path class="cls-345" d="M562.83,524.5l-1.13-5.66-20.22-14.56Z"/><path class="cls-346" d="M565.6,541.28l11.88.59,1.31,4.43-12,2.31Z"/></g><g id="Stone_2"><path class="cls-347" d="M623.76,565.24l-1,23.72,10.29,6.25Z"/><path class="cls-348" d="M623.76,565.24l9.3,30,16.23-26.77Z"/><path class="cls-349" d="M649.29,568.44l-16.23,26.77,31.51-.15Z"/><path class="cls-350" d="M649.29,568.44l15.28,26.62,9.7-29.77Z"/><path class="cls-351" d="M623.76,565.24l25.53,3.2-.64-22.19Z"/><path class="cls-352" d="M648.65,546.25l.64,22.19,25-3.15Z"/><path class="cls-353" d="M674.27,565.29l-1.18,23.92-8.52,5.85Z"/><path class="cls-354" d="M673.41,582.91l5.16.05,9.48,5.56-23.48,6.54,8.52-5.85Z"/></g><g id="Stone_1"><path class="cls-355" d="M708,585.86l1.72,42.07,16-32.87Z"/><path class="cls-356" d="M709.72,627.93,745.58,634l-19.81-38.93Z"/><path class="cls-163" d="M745.58,634l8.93.14,21.31-38.38-50.05-.69Z"/><path class="cls-357" d="M775.82,595.75l-21.31,38.38L786,629Z"/><path class="cls-358" d="M786,629l.5-42-10.65,8.81Z"/><path class="cls-359" d="M749.16,561.9l-41.16,24,17.77,9.2Z"/><path class="cls-360" d="M749.16,561.9l-23.39,33.16,50.05.69Z"/><path class="cls-361" d="M749.16,561.9l26.66,33.85,10.65-8.81Z"/><path class="cls-362" d="M786.15,614.4l17,3.1-9,9L786,629Z"/></g></g><g id="PowerWind_1"><path class="cls-363" d="M547.1,485.58v16.68L541,500.68V483.8Z"/><path class="cls-364" d="M559.25,485.58H547.1v16.68h12.15Z"/><path class="cls-365" d="M559.25,485.58l4.9-1.78v16.93l-4.9,1.53Z"/><path class="cls-366" d="M564.15,483.8l-4.9,1.78H547.1L541,483.8l6.07-1.86h11Z"/><path class="cls-363" d="M549.73,484.54l1.77-182.8h-2.81L546.6,483.66Z"/><path class="cls-367" d="M549.73,484.54h6.12l.46-182.46-4.81-.34Z"/><path class="cls-368" d="M555.85,484.54l2.81-.78,0-181.73-2.31.05Z"/><path class="cls-369" d="M544.2,290.52l-103,24.31-3.85,6.84,108.53-21.36Z"/><path class="cls-370" d="M561.84,285.4l33.73-112.63-3.45-7.63L553.18,282.06Z"/><path class="cls-370" d="M557,304.4l67.64,85.67H632L563.7,298.15Z"/><path class="cls-371" d="M559.52,302l.05,3.24-1,1.09-1.59-2Z"/><path class="cls-372" d="M548.51,317l3-7.43,0-7.82h-2.81Z"/><path class="cls-373" d="M551.46,309.56l4.8-1,0-6.5-4.81-.34Z"/><path class="cls-369" d="M546.88,290.52l1.45,8.41,7.43,2.86,6-5.56-1.45-8.42L552.86,285Z"/><path class="cls-374" d="M552.32,281.71l.54,3.25-6,5.56L544,289.44Z"/><path class="cls-375" d="M560.3,287.81l2.31-2.16-10.29-3.94.54,3.25Z"/><path class="cls-376" d="M564.6,297.31l-2.85-1.08-1.45-8.42,2.31-2.16Z"/><path class="cls-377" d="M564.6,297.31,556.31,305l-.55-3.2,6-5.56Z"/><path class="cls-378" d="M556.31,305,546,301.05l2.31-2.12,7.43,2.86Z"/><path class="cls-379" d="M546,301.05l2.31-2.12-1.45-8.41L544,289.44Z"/></g><g id="PowerWind_2"><path class="cls-365" d="M476.65,510.18v26.57l9.7-2.51V507.33Z"/><path class="cls-364" d="M476.7,510.18H457.34v26.57H476.7Z"/><path class="cls-363" d="M457.34,510.18l-7.8-2.85v27l7.8,2.46Z"/><path class="cls-366" d="M449.54,507.33l7.8,2.85h19.31l9.7-2.85-9.7-3h-17.5Z"/><path class="cls-380" d="M472.48,508.51l-2.81-291h4.44l3.4,289.63Z"/><path class="cls-381" d="M472.48,508.51h-9.75L462.06,218l7.61-.54Z"/><path class="cls-363" d="M462.73,508.51l-4.44-1.23,0-289.29,3.72,0Z"/><path class="cls-382" d="M462.06,246.77l6-7.38,1.82,2-.23-23.86-7.61.54Z"/><path class="cls-383" d="M462.06,246.77l-3.72,20.92,0-19.54,3.77-19.83Z"/><path class="cls-384" d="M462.06,226.6l-3.77-4.18,0-4.43,3.72,0Z"/><path class="cls-369" d="M477.06,199.63,474.75,213l-11.83,4.52-9.52-8.85,2.31-13.39,11.83-4.52Z"/><path class="cls-374" d="M468.4,185.66l-.86,5.12,9.52,8.85,4.53-1.77Z"/><path class="cls-375" d="M455.71,195.3,452,191.91l16.36-6.25-.86,5.12Z"/><path class="cls-376" d="M448.86,210.41l4.54-1.72,2.31-13.39L452,191.91Z"/><path class="cls-377" d="M448.86,210.41l13.2,12.25.86-5.12-9.52-8.85Z"/><path class="cls-378" d="M462.06,222.66l16.36-6.25L474.75,213l-11.83,4.52Z"/><path class="cls-379" d="M478.42,216.41,474.75,213l2.31-13.39,4.53-1.77Z"/><path class="cls-369" d="M481.28,199.63l164,38.73,6.07,10.83-172.77-34Z"/><path class="cls-385" d="M480.73,202.88l7.53,6.6,3.08,8.26-12.74-2.51Z"/><path class="cls-370" d="M453.21,191.47,399.54,12.16,405,0l62,186.2Z"/><path class="cls-370" d="M461,221.68,353.25,358.13H341.6L450.27,211.74Z"/><path class="cls-371" d="M456.89,217.89v5.22l1.63,1.67,2.49-3.1Z"/></g></g></g></g></svg>