<svg xmlns="http://www.w3.org/2000/svg" xmlns:xlink="http://www.w3.org/1999/xlink" viewBox="0 0 434.89 459.79"><defs><style>.cls-1{fill:#94564d;}.cls-2{fill:#706a73;}.cls-3{fill:#5d5665;}.cls-4{fill:#525067;}.cls-5{fill:#5e5b6b;}.cls-6{fill:#312c4d;}.cls-7{fill:#857d83;}.cls-8{fill:#857f82;}.cls-9{fill:#635c62;}.cls-10{fill:#4a4154;}.cls-11{fill:#291b3d;}.cls-12{fill:#332a48;}.cls-13{fill:#433b52;}.cls-14{fill:#9d5f54;}.cls-15{fill:#4a2835;}.cls-16{fill:#6ba507;}.cls-17{fill:#9c5e53;}.cls-18{fill:#a3665a;}.cls-19{fill:#724240;}.cls-20{fill:#6eab01;}.cls-21{fill:#9f6155;}.cls-22{fill:#56303b;}.cls-23{fill:#7cbb00;}.cls-24{fill:#8d544c;}.cls-25{fill:#462a33;}.cls-26{fill:#6c4142;}.cls-27{fill:#8cd200;}.cls-28{fill:#304817;}.cls-29{fill:url(#Gradient_bez_nazwy_4);}.cls-30{fill:#7fbb00;}.cls-31{fill:url(#Gradient_bez_nazwy_25);}.cls-32{fill:#94d402;}.cls-33{fill:url(#Gradient_bez_nazwy_3);}.cls-34{fill:#6ea507;}.cls-35{fill:#71ab04;}.cls-36{fill:#80c200;}.cls-37{fill:url(#Gradient_bez_nazwy_23);}.cls-38{fill:url(#Gradient_bez_nazwy_5);}.cls-39{fill:url(#Gradient_bez_nazwy_6);}.cls-40{fill:#80c100;}.cls-41{fill:#87c901;}.cls-42{fill:#98de13;}.cls-43{fill:#7cb901;}.cls-44{fill:#4a701b;}.cls-45{fill:#486b1a;}.cls-46{fill:#71ac00;}.cls-47{fill:#864c4a;}.cls-48{fill:url(#Gradient_bez_nazwy_7);}.cls-49{fill:url(#Gradient_bez_nazwy_8);}.cls-50{fill:#693841;}.cls-51{fill:#592f3c;}.cls-52{fill:#9e5d56;}.cls-53{fill:url(#Gradient_bez_nazwy_9);}.cls-54{fill:url(#Gradient_bez_nazwy_10);}.cls-55{fill:url(#Gradient_bez_nazwy_11);}.cls-56{fill:url(#Gradient_bez_nazwy_12);}.cls-57{fill:url(#Gradient_bez_nazwy_13);}.cls-58{fill:url(#Gradient_bez_nazwy_14);}.cls-59{fill:url(#Gradient_bez_nazwy_15);}.cls-60{fill:url(#Gradient_bez_nazwy_16);}.cls-61{fill:#6b3a42;}.cls-62{fill:#794448;}.cls-63{fill:#61333e;}.cls-64{fill:#63373f;}.cls-65{fill:#673945;}.cls-66{fill:#5f333e;}.cls-67{fill:#64343e;}.cls-68{fill:url(#Gradient_bez_nazwy_17);}.cls-69{fill:url(#Gradient_bez_nazwy_18);}.cls-70{fill:#5a303e;}.cls-71{fill:#5a5362;}.cls-72{fill:#605566;}.cls-73{fill:url(#Gradient_bez_nazwy_19);}.cls-74{fill:url(#Gradient_bez_nazwy_20);}.cls-75{fill:url(#Gradient_bez_nazwy_21);}.cls-76{fill:url(#Gradient_bez_nazwy_22);}.cls-77{fill:#554d61;}.cls-78{fill:#613541;}.cls-79{fill:#93d61d;}.cls-80{fill:url(#Gradient_bez_nazwy_23-2);}.cls-81{fill:url(#Gradient_bez_nazwy_25-2);}.cls-82{fill:url(#Gradient_bez_nazwy_25-3);}.cls-83{fill:#77b500;}.cls-84{fill:#b16958;}.cls-85{fill:#ae6655;}.cls-86{fill:#3d182e;}.cls-87{fill:#b76e5b;}.cls-88{fill:#331022;}.cls-89{fill:#b86d5c;}.cls-90{fill:#220720;}.cls-91{fill:#8bcd01;}.cls-92{fill:#87c800;}.cls-93{fill:#8cd300;}.cls-94{fill:#8dcf01;}.cls-95{fill:#86c900;}.cls-96{fill:#588809;}.cls-97{fill:#5d8d08;}.cls-98{fill:#456218;}.cls-99{fill:#bb7160;}.cls-100{fill:#94554c;}.cls-101{fill:#300c2b;}.cls-102{fill:#4e7913;}.cls-103{fill:#8bca00;}.cls-104{fill:#97dc09;}.cls-105{fill:#70aa00;}.cls-106{fill:#344615;}.cls-107{fill:#405c1a;}.cls-108{fill:#75b601;}.cls-109{fill:#8ed200;}.cls-110{fill:#95d900;}.cls-111{fill:#81c200;}.cls-112{fill:#669e00;}.cls-113{fill:#94d702;}.cls-114{fill:#97dc0b;}.cls-115{fill:#69a200;}.cls-116{fill:#83c600;}.cls-117{fill:#85c500;}.cls-118{fill:#8bce00;}.cls-119{fill:#88cd00;}.cls-120{fill:#406817;}.cls-121{fill:#385016;}.cls-122{fill:#2e3114;}.cls-123{fill:#98da09;}.cls-124{fill:#96da0c;}.cls-125{fill:#83c400;}.cls-126{fill:#477013;}.cls-127{fill:#416114;}.cls-128{fill:#426814;}.cls-129{fill:#71ac02;}.cls-130{fill:#5c9106;}.cls-131{fill:#88cb00;}.cls-132{fill:#6ba001;}.cls-133{fill:#3b5115;}.cls-134{fill:#895349;}.cls-135{fill:#6e4042;}.cls-136{fill:#81c300;}.cls-137{fill:#365c15;}.cls-138{fill:#37192f;}.cls-139{fill:#432338;}.cls-140{fill:#3b6a13;}.cls-141{fill:#548715;}.cls-142{fill:#91d709;}.cls-143{fill:#7ab901;}.cls-144{fill:#77b600;}.cls-145{fill:#304a17;}.cls-146{fill:#8ed101;}.cls-147{fill:#98dd0f;}.cls-148{fill:#528611;}.cls-149{fill:#2f4519;}.cls-150{fill:#94564b;}.cls-151{fill:#985c4d;}.cls-152{fill:#985c4e;}.cls-153{fill:#4f2935;}.cls-154{fill:#94d800;}.cls-155{fill:#79b100;}.cls-156{fill:#9bdf0d;}.cls-157{fill:#89ce00;}.cls-158{fill:#92d300;}.cls-159{fill:#6fa600;}.cls-160{fill:#68a201;}.cls-161{fill:#3d5714;}.cls-162{fill:#9b5d4f;}.cls-163{fill:#95da0c;}.cls-164{fill:#9de319;}.cls-165{fill:#345519;}.cls-166{fill:#90d404;}.cls-167{fill:#578a11;}.cls-168{fill:#314f19;}.cls-169{fill:#8dce01;}.cls-170{fill:#170b06;}.cls-171{fill:#5a8e12;}.cls-172{fill:#41671a;}.cls-173{fill:#283213;}.cls-174{fill:#73b100;}.cls-175{fill:#96dd0a;}.cls-176{fill:#2b4617;}.cls-177{fill:#335119;}.cls-178{fill:#334b19;}.cls-179{fill:#345819;}.cls-180{fill:#422334;}.cls-181{fill:#462434;}.cls-182{fill:#2f132b;}.cls-183{fill:#2b1027;}.cls-184{fill:#35132a;}.cls-185{fill:#91d501;}.cls-186{fill:#96da05;}.cls-187{fill:#89cd00;}.cls-188{fill:#548709;}.cls-189{fill:#7ebe02;}.cls-190{fill:#7aba00;}.cls-191{fill:#3a5e17;}.cls-192{fill:#2c3815;}.cls-193{fill:#354816;}.cls-194{fill:#334d16;}.cls-195{fill:#364b16;}.cls-196{fill:#85c700;}.cls-197{fill:#85cb00;}.cls-198{fill:#92d400;}.cls-199{fill:#8acc00;}.cls-200{fill:#619800;}.cls-201{fill:#3b5a19;}.cls-202{fill:#476e17;}.cls-203{fill:#2d3f15;}.cls-204{fill:#8bcc00;}.cls-205{fill:#6ba800;}.cls-206{fill:#8bd000;}.cls-207{fill:#69a502;}.cls-208{fill:#334f15;}.cls-209{fill:#2f4917;}.cls-210{fill:#619602;}.cls-211{fill:#304212;}.cls-212{fill:#334815;}.cls-213{fill:#365916;}.cls-214{fill:#354d15;}.cls-215{fill:#375615;}.cls-216{fill:#406615;}.cls-217{fill:#406c15;}.cls-218{fill:#92d907;}.cls-219{fill:#9de118;}.cls-220{fill:#90d704;}.cls-221{fill:#548a0a;}.cls-222{fill:#83c002;}.cls-223{fill:#7cbe00;}.cls-224{fill:#375a17;}.cls-225{fill:#305013;}.cls-226{fill:#354c15;}.cls-227{fill:#2f4415;}.cls-228{fill:#385f16;}.cls-229{fill:#95db10;}.cls-230{fill:#7fc201;}.cls-231{fill:#7bbd00;}.cls-232{fill:#314d18;}.cls-233{fill:#2e4619;}.cls-234{fill:#9be41a;}.cls-235{fill:#93d605;}.cls-236{fill:#578a12;}.cls-237{fill:#94d707;}.cls-238{fill:#78b200;}.cls-239{fill:#7aba01;}.cls-240{fill:#33541a;}.cls-241{fill:#2e4b16;}.cls-242{fill:#9be316;}.cls-243{fill:#324b1b;}.cls-244{fill:#315217;}.cls-245{fill:#8fd401;}.cls-246{fill:#96d910;}.cls-247{fill:#79b901;}.cls-248{fill:#324d19;}.cls-249{fill:#99df12;}.cls-250{fill:#588914;}.cls-251{fill:#2e4918;}.cls-252{fill:#95db07;}.cls-253{fill:#77b700;}.cls-254{fill:#74b301;}.cls-255{fill:#314c18;}.cls-256{fill:#8fd301;}.cls-257{fill:#9ce10f;}.cls-258{fill:#5a9011;}.cls-259{fill:#2e4f1a;}.cls-260{fill:#74b304;}.cls-261{fill:#96da0a;}.cls-262{fill:#6fad01;}.cls-263{fill:#5e940c;}.cls-264{fill:#9fe518;}.cls-265{fill:#86cb00;}.cls-266{fill:#2e3f16;}.cls-267{fill:#304f1a;}.cls-268{fill:#8cd100;}.cls-269{fill:#82c500;}.cls-270{fill:#466f1a;}.cls-271{fill:url(#Gradient_bez_nazwy_26);}.cls-272{fill:#9ce216;}.cls-273{fill:#9adf12;}.cls-274{fill:#639e09;}.cls-275{fill:#2f4b18;}.cls-276{fill:#91bbb9;}.cls-277{fill:#eaedea;}.cls-278{fill:#fffefe;}.cls-279{fill:#f9f9fa;}.cls-280{fill:url(#Gradient_bez_nazwy_29);}.cls-281{fill:url(#Gradient_bez_nazwy_30);}.cls-282{fill:#bec9cd;}.cls-283{fill:#c5cfda;}.cls-284{fill:#b9c6d1;}.cls-285{fill:#f5f6f7;}.cls-286{fill:#e3eaef;}.cls-287{fill:#fafbfb;}.cls-288{fill:#f9faf9;}.cls-289{fill:#c2cec7;}.cls-290{fill:#a6c1a5;}.cls-291{fill:#bacbd5;}.cls-292{fill:#bcc9d9;}.cls-293{fill:#f8f9f8;}.cls-294{fill:#bcc9c7;}</style><radialGradient id="Gradient_bez_nazwy_4" cx="-1307.85" cy="1034.82" r="0.57" gradientTransform="matrix(379.67, 5.18, 5.62, -412.09, 490949.41, 433448.39)" gradientUnits="userSpaceOnUse"><stop offset="0" stop-color="#85c900"/><stop offset="0.41" stop-color="#83c500"/><stop offset="0.8" stop-color="#7cba00"/><stop offset="1" stop-color="#77b100"/></radialGradient><linearGradient id="Gradient_bez_nazwy_25" x1="10.06" y1="719.55" x2="60.4" y2="719.09" gradientTransform="matrix(1, 0, 0, -1, 0, 988.42)" gradientUnits="userSpaceOnUse"><stop offset="0" stop-color="#86c400"/><stop offset="0.15" stop-color="#88c600"/><stop offset="1" stop-color="#8dcd00"/></linearGradient><radialGradient id="Gradient_bez_nazwy_3" cx="-1287.19" cy="1040.73" r="0.57" gradientTransform="matrix(41.44, 0.57, 0.61, -44.98, 52795.2, 47830.01)" gradientUnits="userSpaceOnUse"><stop offset="0" stop-color="#9be21c"/><stop offset="1" stop-color="#9de61f"/></radialGradient><linearGradient id="Gradient_bez_nazwy_23" x1="235.16" y1="716.51" x2="224.84" y2="696.5" gradientTransform="matrix(1, 0, 0, -1, 0, 988.42)" gradientUnits="userSpaceOnUse"><stop offset="0" stop-color="#a4e81c"/><stop offset="0.12" stop-color="#a3e71c"/><stop offset="1" stop-color="#a0e61b"/></linearGradient><linearGradient id="Gradient_bez_nazwy_5" x1="235.74" y1="724.65" x2="233.66" y2="707.38" gradientTransform="matrix(1, 0, 0, -1, 0, 988.42)" gradientUnits="userSpaceOnUse"><stop offset="0" stop-color="#98dd13"/><stop offset="0.19" stop-color="#9add13"/><stop offset="1" stop-color="#9dde12"/></linearGradient><linearGradient id="Gradient_bez_nazwy_6" x1="287.24" y1="719.22" x2="286.1" y2="703.6" gradientTransform="matrix(1, 0, 0, -1, 0, 988.42)" gradientUnits="userSpaceOnUse"><stop offset="0" stop-color="#95d80a"/><stop offset="1" stop-color="#95d70b"/></linearGradient><linearGradient id="Gradient_bez_nazwy_7" x1="52.16" y1="713.7" x2="45.45" y2="635.1" gradientTransform="matrix(1, 0, 0, -1, 0, 988.42)" gradientUnits="userSpaceOnUse"><stop offset="0" stop-color="#7d4747"/><stop offset="0.23" stop-color="#894f4c"/><stop offset="0.57" stop-color="#935750"/><stop offset="0.99" stop-color="#965951"/></linearGradient><linearGradient id="Gradient_bez_nazwy_8" x1="48.22" y1="675.4" x2="37.32" y2="663.94" gradientTransform="matrix(1, 0, 0, -1, 0, 988.42)" gradientUnits="userSpaceOnUse"><stop offset="0" stop-color="#572d3a"/><stop offset="0.04" stop-color="#592e3b"/><stop offset="0.38" stop-color="#613340"/><stop offset="1" stop-color="#633541"/></linearGradient><linearGradient id="Gradient_bez_nazwy_9" x1="176.64" y1="707.87" x2="158.02" y2="646.79" gradientTransform="matrix(1, 0, 0, -1, 0, 988.42)" gradientUnits="userSpaceOnUse"><stop offset="0" stop-color="#744346"/><stop offset="0.53" stop-color="#814c4b"/><stop offset="1" stop-color="#864f4d"/></linearGradient><linearGradient id="Gradient_bez_nazwy_10" x1="213.49" y1="668.99" x2="125.79" y2="656.12" gradientTransform="matrix(1, 0, 0, -1, 0, 988.42)" gradientUnits="userSpaceOnUse"><stop offset="0" stop-color="#64343f"/><stop offset="0.31" stop-color="#683842"/><stop offset="1" stop-color="#6d3c46"/></linearGradient><linearGradient id="Gradient_bez_nazwy_11" x1="120.35" y1="628.11" x2="212.98" y2="610.16" gradientTransform="matrix(1, 0, 0, -1, 0, 988.42)" gradientUnits="userSpaceOnUse"><stop offset="0" stop-color="#7e494b"/><stop offset="0.99" stop-color="#804a4e"/></linearGradient><linearGradient id="Gradient_bez_nazwy_12" x1="206.64" y1="698.83" x2="231.75" y2="647.28" gradientTransform="matrix(1, 0, 0, -1, 0, 988.42)" gradientUnits="userSpaceOnUse"><stop offset="0" stop-color="#9c5c54"/><stop offset="1" stop-color="#a66358"/></linearGradient><linearGradient id="Gradient_bez_nazwy_13" x1="234.44" y1="702.56" x2="249.86" y2="655.51" gradientTransform="matrix(1, 0, 0, -1, 0, 988.42)" gradientUnits="userSpaceOnUse"><stop offset="0" stop-color="#b46f5f"/><stop offset="0.03" stop-color="#b57060"/><stop offset="0.6" stop-color="#c8806d"/><stop offset="1" stop-color="#cf8672"/></linearGradient><linearGradient id="Gradient_bez_nazwy_14" x1="264.62" y1="703.69" x2="269.98" y2="655.57" gradientTransform="matrix(1, 0, 0, -1, 0, 988.42)" gradientUnits="userSpaceOnUse"><stop offset="0" stop-color="#844d4c"/><stop offset="0.15" stop-color="#8b5250"/><stop offset="0.65" stop-color="#9e5f59"/><stop offset="1" stop-color="#a5645d"/></linearGradient><linearGradient id="Gradient_bez_nazwy_15" x1="261.02" y1="699.09" x2="304.36" y2="680.64" gradientTransform="matrix(1, 0, 0, -1, 0, 988.42)" gradientUnits="userSpaceOnUse"><stop offset="0" stop-color="#8d524f"/><stop offset="0.4" stop-color="#925651"/><stop offset="0.86" stop-color="#9f6057"/><stop offset="1" stop-color="#a5645a"/></linearGradient><linearGradient id="Gradient_bez_nazwy_16" x1="302.87" y1="678.28" x2="326.72" y2="658.15" gradientTransform="matrix(1, 0, 0, -1, 0, 988.42)" gradientUnits="userSpaceOnUse"><stop offset="0" stop-color="#58303f"/><stop offset="1" stop-color="#5c3140"/></linearGradient><linearGradient id="Gradient_bez_nazwy_17" x1="311.5" y1="664.13" x2="402.15" y2="685.55" gradientTransform="matrix(1, 0, 0, -1, 0, 988.42)" gradientUnits="userSpaceOnUse"><stop offset="0" stop-color="#562e3e"/><stop offset="0.04" stop-color="#562e3e"/><stop offset="1" stop-color="#5a333e"/></linearGradient><linearGradient id="Gradient_bez_nazwy_18" x1="361.94" y1="711.17" x2="363.43" y2="651.27" gradientTransform="matrix(1, 0, 0, -1, 0, 988.42)" gradientUnits="userSpaceOnUse"><stop offset="0" stop-color="#663841"/><stop offset="0.15" stop-color="#683942"/><stop offset="1" stop-color="#6c3c44"/></linearGradient><linearGradient id="Gradient_bez_nazwy_19" x1="190.1" y1="618.04" x2="201.45" y2="597.47" gradientTransform="matrix(1, 0, 0, -1, 0, 988.42)" gradientUnits="userSpaceOnUse"><stop offset="0" stop-color="#564c61"/><stop offset="0.58" stop-color="#544a5f"/><stop offset="0.79" stop-color="#4f435a"/><stop offset="0.94" stop-color="#443850"/><stop offset="1" stop-color="#3e304a"/></linearGradient><linearGradient id="Gradient_bez_nazwy_20" x1="231.34" y1="634.26" x2="224.77" y2="602.92" gradientTransform="matrix(1, 0, 0, -1, 0, 988.42)" gradientUnits="userSpaceOnUse"><stop offset="0" stop-color="#584f63"/><stop offset="0.63" stop-color="#564d61"/><stop offset="0.98" stop-color="#4f455a"/><stop offset="1" stop-color="#4f445a"/></linearGradient><linearGradient id="Gradient_bez_nazwy_21" x1="234.48" y1="634.82" x2="229.08" y2="602.6" gradientTransform="matrix(1, 0, 0, -1, 0, 988.42)" gradientUnits="userSpaceOnUse"><stop offset="0" stop-color="#6f6772"/><stop offset="0.5" stop-color="#6d6570"/><stop offset="0.78" stop-color="#665d6a"/><stop offset="1" stop-color="#5a4f60"/></linearGradient><linearGradient id="Gradient_bez_nazwy_22" x1="250.03" y1="612.41" x2="245.92" y2="599.14" gradientTransform="matrix(1, 0, 0, -1, 0, 988.42)" gradientUnits="userSpaceOnUse"><stop offset="0" stop-color="#636071"/><stop offset="0.53" stop-color="#615e6f"/><stop offset="0.83" stop-color="#5c5667"/><stop offset="1" stop-color="#564d5f"/></linearGradient><linearGradient id="Gradient_bez_nazwy_23-2" x1="26.81" y1="-417.65" x2="-26.14" y2="-703.72" xlink:href="#Gradient_bez_nazwy_23"/><linearGradient id="Gradient_bez_nazwy_25-2" x1="2652.16" y1="442.79" x2="3355.44" y2="370.77" xlink:href="#Gradient_bez_nazwy_25"/><linearGradient id="Gradient_bez_nazwy_25-3" x1="1890.72" y1="531.18" x2="2384.31" y2="482.61" xlink:href="#Gradient_bez_nazwy_25"/><linearGradient id="Gradient_bez_nazwy_26" x1="322.11" y1="744.68" x2="326.92" y2="730.19" gradientTransform="matrix(1, 0, 0, -1, 0, 988.42)" gradientUnits="userSpaceOnUse"><stop offset="0" stop-color="#2d4517"/><stop offset="0.27" stop-color="#304a17"/><stop offset="0.99" stop-color="#324c17"/></linearGradient><linearGradient id="Gradient_bez_nazwy_29" x1="808.54" y1="838.6" x2="814.14" y2="838.6" gradientTransform="matrix(1, 0, 0, -1, 0, 988.42)" gradientUnits="userSpaceOnUse"><stop offset="0" stop-color="#c6d2da"/><stop offset="0.24" stop-color="#9fc0c7"/><stop offset="0.49" stop-color="#a4bfca"/><stop offset="1" stop-color="#a4b6c0"/></linearGradient><linearGradient id="Gradient_bez_nazwy_30" x1="1000.7" y1="838.6" x2="1010.6" y2="838.6" gradientTransform="matrix(1, 0, 0, -1, 0, 988.42)" gradientUnits="userSpaceOnUse"><stop offset="0" stop-color="#f2f2f3"/><stop offset="0.24" stop-color="#edeeed"/><stop offset="0.49" stop-color="#eceded"/><stop offset="1" stop-color="#ecedec"/></linearGradient></defs><g id="Warstwa_2" data-name="Warstwa 2"><g id="Warstwa_1-2" data-name="Warstwa 1"><g id="Land2"><g id="LandStones"><g id="LandStone_3"><path class="cls-1" d="M149.65,417l-39.07,15.44,40.3,21.38Z"/><path class="cls-2" d="M110.58,432.48l7.19,11.82,33.11,9.56Z"/><path class="cls-3" d="M117.77,444.3l25.4,15.49,7.71-5.93Z"/></g><g id="LandStone_4"><path class="cls-4" d="M187.24,411.7l-3.67,17.53L195,418.75Z"/><path class="cls-5" d="M195,418.75l6.5,7-14,12.62-3.82-9.24Z"/><path class="cls-6" d="M187.24,411.7l7.74,7.05,6.5,7-1.65-9.32Z"/></g><g id="LandStone_5"><path class="cls-7" d="M252.6,410.14,254,421.79l.8,1.41,1.3-4.68Z"/><path class="cls-8" d="M252.6,410.14l3.48,8.38,7.18-.3Z"/><path class="cls-9" d="M263.26,418.22l1.23-2.07-11.89-6Z"/><path class="cls-10" d="M263.26,418.22l-7.07,4.51-1.41.47,1.3-4.68Z"/><path class="cls-11" d="M258,412.84l-1.37.32-4-3Z"/><path class="cls-12" d="M252.6,410.14l4,3-2.58.37Z"/><path class="cls-13" d="M252.6,410.14l1.19,10,.21-6.62Z"/></g></g><g id="DirtRifts"><g id="DirtRift_2"><path class="cls-14" d="M19.14,211.21l-3.52,16.51L45.92,232l2-9.67Z"/><path class="cls-15" d="M45.92,232l34.46-3.86L47.94,222.3Z"/><path class="cls-16" d="M19.14,211.21l28.8,11.09,32.44,5.81-6.32-7.31-32.65-8.61Z"/></g><g id="DirtRift_3"><path class="cls-17" d="M94,197.67l-2.93,20.24,8.94-5.76Z"/><path class="cls-18" d="M91.07,217.91l4.69,5.49L100,212.15Z"/><path class="cls-19" d="M95.76,223.4l29.25-.06-25-11.19Z"/><path class="cls-20" d="M94,197.67l6,14.48,25,11.19,16-6.85-18-12.71Z"/></g><g id="DirtRift_1"><path class="cls-21" d="M229.06,248.58l-1.18,9.52,32.59,4.72,1.14-6.89Z"/><path class="cls-22" d="M261.61,255.93l-1.14,6.89,28.26-5.53Z"/><path class="cls-23" d="M288.73,257.29,265,249.9l-26.89-4-9.05,2.64,32.55,7.35Z"/></g><g id="DirtRift_4"><path class="cls-24" d="M231.25,214.34l1.53-3.45,35.38,7.39Z"/><path class="cls-25" d="M268.16,218.28l29.66-12.67-8.8,9.5Z"/><path class="cls-26" d="M297.82,205.61l3.76,8.34L289,215.11Z"/><path class="cls-27" d="M232.78,210.89l35.38,7.39,29.66-12.67-17.31-14.22-38.36,3.27Z"/><path class="cls-28" d="M301,212.76l1.46.71-.92.48Z"/></g></g><g id="Land"><path class="cls-29" d="M.06,226.77l3,17.06,6.25,18.6,49.92,5.2,21.63,5.44,1.89-.73L110,274l43.84-5.2,55.59-8.19,51,8.35,53.12,3,25.87-1.34,20.75-5,27.62,2,23.87-1.34,14-13.61-22-12.35,17.29-6.8L409.28,227l-23-3.27-17-2.76-34.5-5.34-17.66-9.55-36.08-2.47-43.48-1.22-30.91.1-60.55-1.81-40,5.75-34.24,2.25-38.47,2.22-14,2.37Z"/><path class="cls-30" d="M3.07,243.83l6.25,18.6.56,8.45-7-22.24Z"/><path class="cls-31" d="M9.88,270.88l49.66,4.87-.3-8.12-49.92-5.2Z"/><path class="cls-32" d="M59.24,267.63l21.63,5.44L93.1,294.68l.29,9.73L59.54,275.75Z"/><path class="cls-33" d="M82.76,272.34l-1.89.73L93.1,294.68,110,274Z"/><path class="cls-34" d="M93.1,294.68l.29,9.73,60-27.64L110,274Z"/><path class="cls-34" d="M110,274l43.41,2.82.43-8Z"/><path class="cls-35" d="M153.82,268.75l55.53,18.74-56-10.72Z"/><path class="cls-36" d="M153.82,268.75l55.59-8.19-.06,26.93Z"/><path class="cls-37" d="M209.41,260.56l-.06,26.93,50.52-2.23Z"/><path class="cls-38" d="M209.41,260.56l50.46,24.7.55-16.35Z"/><path class="cls-39" d="M260.42,268.91l-.55,16.35,53.39-4.67.28-8.65Z"/><path class="cls-40" d="M313.54,271.94l-.28,8.65,49.93-3.17-23.78-6.82Z"/><path class="cls-41" d="M339.41,270.6l23.78,6.82-3-11.84Z"/><path class="cls-42" d="M360.16,265.58l3,11.84,24.59-9.83Z"/><path class="cls-43" d="M363.19,277.42l48.24-2.86.22-8.31-23.87,1.34Z"/><path class="cls-44" d="M411.65,266.25l-.22,8.31L424,260l1.73-7.35Z"/><path class="cls-45" d="M425.69,252.64,424,260l10.93-2.21Z"/><path class="cls-46" d="M434.89,257.78l-9.2-5.14-22-12.35,17.29-6.8Z"/><path class="cls-47" d="M59.54,275.75,90.3,327l3.09-22.62Z"/><path class="cls-48" d="M9.88,270.88l49.66,4.87L90.3,327l-3.44,27.83Z"/><path class="cls-49" d="M9.88,270.88l22.73,32.7,15,28.29,18.32,20.81,20.92,2.18Z"/><path class="cls-50" d="M93.39,304.41,90.3,327l33.85,11.48Z"/><path class="cls-51" d="M124.15,338.51l29.24-61.74-60,27.64Z"/><path class="cls-52" d="M150.3,393.3l-26.15-54.79L90.3,327l-3.44,27.83"/><path class="cls-53" d="M153.39,276.77l-29.24,61.74,85.2-51Z"/><path class="cls-54" d="M209.35,287.49l6.53,64.14-91.73-13.12Z"/><path class="cls-55" d="M124.15,338.51,150.3,393.3l65.58-41.67Z"/><path class="cls-56" d="M209.35,287.49l6.53,64.14,32.71-19Z"/><path class="cls-57" d="M209.35,287.49l39.24,45.15,11.28-47.38Z"/><path class="cls-58" d="M248.59,332.64l42.79.59-31.51-48Z"/><path class="cls-59" d="M259.87,285.26l31.51,48,21.88-52.64Z"/><path class="cls-60" d="M313.26,280.59l-21.88,52.64,12.41,16,10.42-7Z"/><path class="cls-61" d="M215.88,351.63l11.68,3.31,21-22.3Z"/><path class="cls-62" d="M227.56,354.94,242.87,375l5.72-42.4Z"/><path class="cls-63" d="M242.87,375l48.51-41.81-42.79-.59Z"/><path class="cls-64" d="M291.38,333.23,242.87,375l60.92-25.81Z"/><path class="cls-65" d="M242.87,375l13.49,4.61,47.43-30.42Z"/><path class="cls-66" d="M256.36,379.65l-9.28,11.7,56.71-42.12Z"/><path class="cls-67" d="M314.21,342.2l-10.42,7-27.64,20.53L372.49,336Z"/><path class="cls-68" d="M314,342.33l97.43-67.77L372.49,336Z"/><path class="cls-69" d="M313.26,280.59l.74,61.74,97.43-67.77-48.24,2.86Z"/><path class="cls-70" d="M411.43,274.56,424,260l10.93-2.21L372.49,336Z"/><path class="cls-71" d="M65.94,352.68l39.76,22,9-3-27.8-16.83Z"/><path class="cls-72" d="M150.3,393.3,173.62,406l42.26-54.34Z"/><path class="cls-73" d="M215.88,351.63,213,380.3,173.62,406Z"/><path class="cls-74" d="M215.88,351.63,213,380.3l27,8.8Z"/><path class="cls-75" d="M215.88,351.63,240,389.1l7.08,2.25L242.87,375l-15.31-20.1Z"/><path class="cls-76" d="M242.87,375l4.21,16.31,9.28-11.7Z"/><path class="cls-77" d="M276.15,369.76l-5.85,4.35,42.34-.87L372.49,336Z"/><path class="cls-78" d="M153.39,276.77l-3,46,9.93,20.9-8.77,13.46-27.41-18.64Z"/><path class="cls-35" d="M175,277.93h-7.75l.58,1.11h-1.48l.77-1.42h-4.34l1.07-2-9.7-.14s.3.57.73,1.44l.77,1.46c.6,1.44,1.33,2.93,1.87,4.47.15.39.3.79.43,1.18.28,1.32.53,2.42.75,3.78,2-2.68,2.32-6.2,3.35-9.16,1,1.91,2.21,3.27,3.18,5.18a21.73,21.73,0,0,1,.81-4.07c.48.55.46,1.63,1.21,2.18a9.62,9.62,0,0,1,.77-2.42,29.35,29.35,0,0,1,2.9,7.88,11.34,11.34,0,0,1,1-3.59c.13-.33.3-.65.45-1,.32-.63.62-1.26.88-1.89.75.83.47,2.44,1.72,3,0-.81,1-1.34,1.11-2.26.15-.26.29-.52.43-.79l.74-1.36h-3.1Z"/><path class="cls-35" d="M181.05,285.46c.22-.73,1.23-1.26,1.55-2.48l.62-1.09.65-1.2h-5l.64,1.22c.5.73.48,1.54,1,2.31Z"/><path class="cls-35" d="M186.55,291.49c1.38-2.33,3.4-3.94,4.52-6.27a9.11,9.11,0,0,0,.47-1l.75-1.36a5.07,5.07,0,0,0,.28-.53l-7.75-.1.29.55a12.47,12.47,0,0,1,.65,1.38,5.85,5.85,0,0,1,.34,1.1,9.2,9.2,0,0,1,0,1.05,13.84,13.84,0,0,0,0,4.45A3.42,3.42,0,0,0,186.55,291.49Z"/><path class="cls-35" d="M192.76,283.39l.28.55.69,1.36a13.52,13.52,0,0,1,1.67,7.21c1.51-2.15,2.54-4.86,4.06-7.09l.22-.43Z"/><path class="cls-43" d="M371,284.67c2.72-2.17,2.51-5.69,3.54-8.65h-5.72c1.21,2.45,3.18,4.91,2.32,8C371.05,284.43,371,284.67,371,284.67Z"/><path class="cls-43" d="M385.25,273.66c-1.19.35-2.19-.2-3.55-.14h-6.85l1.39,2.7c.24.45.46.89.67,1.3l.75,1.44.32-.67c.2-.36.46-.87.74-1.36.34-.89.85-1.16,1.11-2,1,2.17,2.19,3.82,3.16,6,2-1.32,2-4.06,2.83-6.09.71,1.89,2.45,3,2.67,5.18a15.88,15.88,0,0,1,1.05-5.93l.75-1.38h-5.71Z"/><path class="cls-43" d="M403.12,272.12h-4.26l.18-.35-8.9-.12,1.38,2.66.39.77c1.07,1.79,1.88,4.07,2.77,5.87.53-1.07,1.28-1.87,1.78-2.94a26.69,26.69,0,0,0,1.87,4.63c1.78-2.15,2.06-5.12,3.16-7.62.29-.55.57-1,.79-1.46Z"/><path class="cls-40" d="M319.21,286.38c.65-2.18-.57-4.64.91-6.42l.62-1.2.26-.45h-6.75l.24.47c.15.3.37.71.64,1.2a30.87,30.87,0,0,0,3.57,5.79A3.93,3.93,0,0,1,319.21,286.38Z"/><path class="cls-40" d="M355.65,276l-8.73-.12,1.19-2.2-9.82-.14,1.16,2.23h-3.91l1.5-2.72-9.83-.14.68,1.3-7.66-.12,3.75,7.15.37.71c.34.48.32,1,.82,1.56.27-1.34,1.52-2,2-3.49a6.06,6.06,0,0,1,1.41,2.37,6.51,6.51,0,0,1,.28,2.81,10.31,10.31,0,0,0,3.53-3.21,16.47,16.47,0,0,1-.28,3.51c2.27-2.39,2.55-5.64,3.09-9l.21-.47.76,1.44c1.73,3.21,1.67,7.27,4,10.42.21.4.41.81.64,1.22,1-2.16.3-4.59.82-7a8.49,8.49,0,0,0,.41,1.2,9.7,9.7,0,0,0,.81,1,7.53,7.53,0,0,1,2.18-4.93,7.61,7.61,0,0,0,.51-.87c.26-.45.47-.84.62-1.12l.24-.43.66,1.3a33.51,33.51,0,0,0,2.5,7.76c1.28-2.42,3.3-4.55,4.55-7.05.15-.26.28-.53.43-.77Z"/><path class="cls-79" d="M312.77,274.68c-2.27,0-4.51-.1-6.72-.1H303l.87,1.72h-6.26s.15.27.33.65l.77,1.46a4.58,4.58,0,0,0,1.31,2h-3.24l.25-.26h-4.23a1.46,1.46,0,0,1,.2-.79,1.37,1.37,0,0,1,.57-.55h-9l.8-1.46-9.82-.12,2.8,5.44h-1.36c-2.66-.2-4.92,1.12-7.65.81.5-.53.5-1.6,1-2.15a28.76,28.76,0,0,0-4.81-.35h-4.91l2.85,5.51c.15.28.3.57.43.85.64.73.86,2,1.61,2.92a11.5,11.5,0,0,0,3.29-5.64c1.2,4.34,4.42,7.37,5.61,11.72,1.78-3.78.6-8.65,3.2-12.09l.79-1.42,1.87,3.78L284,279.8l1.87,3.41.4.79a41.68,41.68,0,0,0,2.45,5c.52-.79,1.27-1.05,1.27-2.13a9,9,0,0,1,1.6,3.45,9.47,9.47,0,0,1,.07,3.86,5.91,5.91,0,0,0,1-.95,7.69,7.69,0,0,0,.73-1.12A20,20,0,0,0,295,284.2a86.5,86.5,0,0,1,3.41,8.69,10.53,10.53,0,0,0,2.15-3.55c.13-.3.25-.63.38-.95.28-1.12.78-1.67,1-2.75a3.25,3.25,0,0,0,.71,2.18c1.28-2.14.81-4.86,2.33-6.73a11.45,11.45,0,0,0,1.87,5.16,39.6,39.6,0,0,1,5.61-10.82A4.89,4.89,0,0,1,312.77,274.68Z"/><path class="cls-80" d="M256.09,284.18h-6.88l.78-1.42.79-1.44H235.55l1.5,2.9H230.8L232,282h-5.44l.54-1-9.82-.14,1.31,2.54H213l1.12,2.15c.11.25.26.51.39.8,1.42,3.39,1.87,7.18,4.85,9.4,0-2.72-.43-5.71,1.33-8.13a19,19,0,0,0,2.2,3.82c.27-1.36,1-2.15,1.28-3.51.09-.26.18-.53.26-.79s.19-.55.26-.81c.77,1.52,1.63,3.06,2.28,4.73.13.32.25.67.36,1a3.65,3.65,0,0,0,.76,2.16,2.19,2.19,0,0,1,.25-1.26,12.31,12.31,0,0,0,.26-1.32,15.25,15.25,0,0,1,1.12-5.28l.41-.78.4-.71.71,1.36.73,1.41a23.67,23.67,0,0,1,4.3,10.48c1-2.71,0-5.69,1.11-8.49.2-.39.43-.78.65-1.14a13.12,13.12,0,0,0,.62-1.18,14.59,14.59,0,0,0,.84,1.79l.47.83c.39.93,1.12,1.75,1.12,2.82,1.76-1.87,1.53-4.57,2.32-6.72.5.8.95,1.63,1.37,2.48a8.31,8.31,0,0,1,.35.87c.23.47.21,1.28.45,1.83a22.53,22.53,0,0,1,2.3-4.31c.44,2.57,1,5.1,1.67,7.6a13.34,13.34,0,0,1,5.61-8.12,11.33,11.33,0,0,0,.79-1.24Z"/><path class="cls-81" d="M37.12,269.13,26.2,269h-.85a20,20,0,0,1-2.19,0c.27-.26.27-.53.51-.81-2.73,0-5.73,0-8.35-.18H13.79l.77,1.46c1.34,3,4.56,4.65,5.27,7.92,2.27-1.87,2.55-5.12,3.09-7.82,1.7,3,3.74,5.75,4.23,9.22l.45,1.34A13.11,13.11,0,0,0,31,285.91c1.05-3.78.33-7.84,3.07-11.11.26-.45.45-.81.59-1.08l.23-.4.34.67c.2.38.48.91.74,1.44s1.13,1.1,1.11,2l.28-.51c.86-1.6,3.48-6.35,3.48-6.35H36.3Z"/><path class="cls-82" d="M59.05,270.94a17.16,17.16,0,0,1-7.24-.16c.24.26.24.55.49.81a16.36,16.36,0,0,1-4.42-.18H46.44l.66,1.26H45.64l.28-.53c.18-.31.41-.73.63-1.14l.92-1.68-7.35-.11,1.34,2.62.45.88a12.3,12.3,0,0,0,2.36,4.06c0-.26.26-.81.26-1.08a14.13,14.13,0,0,1,1.67,6.52,9.31,9.31,0,0,0,1.57-3.13c.11-.36.22-.75.32-1.11a4,4,0,0,0,.67-2.22,15.62,15.62,0,0,1,1.46,3c.79-1.89,3.27-2,3.55-4.55a8.67,8.67,0,0,1,2.38,3.54,9.4,9.4,0,0,1,.52,4.34c3-2.66,1.33-7,2.16-10.44A5.08,5.08,0,0,1,59.05,270.94Z"/><path class="cls-32" d="M80.79,293.26c1.16,1.46,1.39,3.37,2.49,4.85l.71,1.24c1.42,2.52,2.88,5.12,1.54,8.13,3.74-1.85,3.08-7,4.47-10.5.26-.53.52-1,.77-1.47L92,293.24l-8.85-.12H81.92C81.2,293.18,80.79,293.26,80.79,293.26Z"/><path class="cls-32" d="M83.26,286.86H79.52l1.2-2.15-8-.12,3.18-5.79-9.82-.14,1.87,3.78.45.87c.95,1.56,1.44,3.47,2.41,5.1-.24-.82.77-1.34.77-2.16,1.46,3.56,4.17,6.3,4.12,10.34a2.52,2.52,0,0,0,.71-1.2,3,3,0,0,0,.32-1.22c1.23,1.1.2,3.25,1.44,4.35,1.53-2.42,1.57-5.38,3.06-7.86l.45-.83Z"/><path class="cls-34" d="M114.53,292.24l-7.19-.1,1.09,2h-6.16l2.19,4.27a21.31,21.31,0,0,1,1,2c.32,1,.81,1.81,1,2.64a48.3,48.3,0,0,1,3.31-6.09,11.42,11.42,0,0,1,.84,2.15,16.86,16.86,0,0,0,.86,2.21c.29-3.25,3-4.83,3.75-7.53.24.81,1,1.38,1,2.19-.3,4.86-.11,10.54,4.34,13-4.41-5.46.13-11.9,3.07-16.57.22-.45.43-.89.67-1.32s.47-.83.71-1.22l1.13-2-14.06-.2Z"/><path class="cls-34" d="M132.47,293.56a36,36,0,0,1,4.7-9.7,21.44,21.44,0,0,1-2.4-.13h-6.68l1.14,2.22a26.27,26.27,0,0,1,1.39,3.33c.21.55.43,1.12.65,1.66s.5,1.16.79,1.71S132.47,293.56,132.47,293.56Z"/><path class="cls-34" d="M147.46,279.08H144.2c0-.28.25-.26.25-.54h-8.93l1.14,2.19c.32.65.7,1.36,1.05,2,.89,1.83,1.85,3.6,2.9,5.32a29.42,29.42,0,0,1,3.07-7.8,7.12,7.12,0,0,0,1.87,3.54A7.74,7.74,0,0,1,147,279.9Z"/><path class="cls-83" d="M.06,226.77,0,231.91l2.88,16.73.19-4.81Z"/></g><g id="TreeWithStone_2"><path class="cls-84" d="M303.73,208.27l7.47-25.33,4.38,1.81L309,209.22Z"/><path class="cls-85" d="M311.2,182.94l4.38,1.81,4.78-13.34-3.62-1.67Z"/><path class="cls-86" d="M312.88,178.94l4.1-6.19,2.54,1,.84-2.33-3.62-1.67Z"/><path class="cls-87" d="M314.92,187.15l3.35-5.24v-2.07l-1.29,1-1.4,3.9Z"/><path class="cls-88" d="M318.27,181.91l.41.42-4.77,8.57,1-3.75Z"/><path class="cls-89" d="M318.27,181.91l8.87-7.07-.73-1.79-8.14,6.79Z"/><path class="cls-90" d="M318.68,182.33l8.46-6.92v-.57l-8.87,7.07Z"/><path class="cls-91" d="M314.77,131.3l12,3.61L323,115.66Z"/><path class="cls-92" d="M314.77,131.3l5.59-15.64H323Z"/><path class="cls-93" d="M323,115.66l3.75,19.25L341,120.74Z"/><path class="cls-94" d="M341,120.74l-4.74-11.38L323,115.66Z"/><path class="cls-95" d="M323,115.66h-2.64l15.87-6.3Z"/><path class="cls-96" d="M336.23,109.36,341,120.74l7.24,2.17Z"/><path class="cls-97" d="M343.29,139.08,341,120.74l-14.22,14.17Z"/><path class="cls-98" d="M314.77,131.3l8.74,13.24h3l.21-9.63Z"/><path class="cls-98" d="M326.54,144.54l16.75-5.46-16.54-4.17Z"/><path class="cls-99" d="M329.16,143.69l1.87,1.88,5.2-9.34-2.3-1.32Z"/><path class="cls-100" d="M327.61,138.57l-.08,4.43,1.87.08.15-5Z"/><path class="cls-101" d="M327.59,139.18l1.89,1.36.07-2.44-1.94.47Z"/><path class="cls-102" d="M329.35,128.19l3.72,10.26,5.82-2.16Z"/><path class="cls-103" d="M338.89,136.29l1.36-13.95-10.9,5.85Z"/><path class="cls-104" d="M340.25,122.34l-6.13-6.21-4.77,12.06Z"/><path class="cls-105" d="M338.89,136.29l11.19-7-9.83-7Z"/><path class="cls-106" d="M333.07,138.45l12.27.87-6.45-3Z"/><path class="cls-107" d="M338.89,136.29l6.45,3,4.74-10Z"/><path class="cls-108" d="M340.25,122.34l9.83,7-3.22-12.47Z"/><path class="cls-109" d="M334.12,116.13l6.13,6.21,6.61-5.5Z"/><path class="cls-110" d="M299.73,131.64l6.32,12.09,12.05-10.06-3-1.89Z"/><path class="cls-111" d="M318.1,133.67l3.54,4,1.36,4.94-7.65,6.13-9.3-5Z"/><path class="cls-112" d="M306.67,160.07l8.68-11.33-9.3-5Z"/><path class="cls-113" d="M325.25,140l-14.18,10.28,4.28.95Z"/><path class="cls-114" d="M315.35,151.2h18.26L325.25,140Z"/><path class="cls-115" d="M333.61,151.2l6.05-.91L325.25,140Z"/><path class="cls-116" d="M311.07,150.25l-.79,11.9,3.26,5.5,1.81-16.45Z"/><path class="cls-117" d="M315.35,151.2l8.57,17.26-10.38-.81Z"/><path class="cls-118" d="M315.35,151.2l8.57,17.26,9.69-17.26Z"/><path class="cls-119" d="M323.92,168.46l13.4-1.54-3.71-15.72Z"/><path class="cls-120" d="M339.66,150.29l-2.34,16.63-3.71-15.72Z"/><path class="cls-121" d="M313.54,167.65l-1.07,1.56,11.45,7.7v-8.45Z"/><path class="cls-122" d="M323.92,168.46v8.45l6.32-4-4.65-4.61Z"/><path class="cls-123" d="M322.57,163.79,336,151.2l-2.38,20.31Z"/><path class="cls-124" d="M333.61,171.51l18.28-8.39L336,151.2Z"/><path class="cls-125" d="M351.89,163.12l-.41-12.53L336,151.2Z"/><path class="cls-126" d="M351.89,163.12l6.38,6.36-6.79-18.89Z"/><path class="cls-127" d="M351.89,163.12l-4.24,19.48,10.62-13.12Z"/><path class="cls-127" d="M351.89,163.12l-18.28,8.39,14,11.09Z"/><path class="cls-128" d="M333.61,171.51l-3.89,11,17.93.12Z"/><path class="cls-129" d="M333.61,171.51l-3.89,11-7.15-18.69Z"/><path class="cls-130" d="M311.85,152.62l2.4,15.48L303.9,157.15Z"/><path class="cls-131" d="M303.9,157.15l-8.14-7.94,16.09,3.41Z"/><path class="cls-132" d="M303.9,157.15l-3.74,17.2,14.09-6.25Z"/><path class="cls-133" d="M300.16,174.35l5,5.49,9.08-11.74Z"/><g id="SubStone"><path class="cls-28" d="M396,228.33l2.13.57-1.57,1.73Z"/><path class="cls-134" d="M350.71,231.56l23.39,2.54-1.81-6.68Z"/><path class="cls-135" d="M374.1,234.1l22.42-3.47-3.09-12.74-21.14,9.53Z"/><path class="cls-136" d="M393.43,217.89l-17.44.9-21.66,6.46-3.62,6.31,21.58-4.14Z"/><path class="cls-137" d="M336.23,242.93l8.38-1.8,16.84.42v-.5l-14.76-.41,7.11-1.48,7.49,1.26,15.38,3.71,2.05,1.06,2.55-.55,8.34-1,2.38-2,.37-2.45-15-1.38,3-2-2.14-.76,4.29-.75,3.12.94,11.81-.94.88-2.33-3.74-1L379,233.37l1.87.63-3,.71h-2.68l-1.76-.43-.15-.3-22.45-2.46,1.42-2.5-10.25.29-5.73,3.57L340,234.1l-10.46,1.18-2.63,2.35,6.55,3.74,1.87-1.28,8.6-.34-9.67,2.19Z"/><path class="cls-138" d="M350.71,231.56l16.3-3.13.71,3.29,3.86,1.41v-4l-1.59-1.3,2.3-.45.91,3.35,0,3.25Z"/><path class="cls-139" d="M373.2,230.77l0-1.18,5.88,3.82,15.53-2.5-.94-1.44.49-3.88L390,219.44l-17.72,8Z"/><path class="cls-140" d="M350.71,231.56l16.3-3.13.28-.52,2.7,0,2.3-.45,17.72-8-5.13.38-12.31,2.89-7,3.71-4.81-.18-8.62,2.82Z"/><path class="cls-141" d="M361,240l.21,5.28,1,1.24Z"/><path class="cls-142" d="M362.24,246.53l2.84.71,3.28-5.6L361,240Z"/><path class="cls-143" d="M365.08,247.24l5.69.43-2.41-6Z"/><path class="cls-144" d="M370.77,247.67l4.21-.29,2.68-5.91-9.3.17Z"/><path class="cls-145" d="M377.66,241.47l.17,5-2.85.95Z"/><path class="cls-146" d="M370.12,234.47l-1.76,7.17,9.3-.17Z"/><path class="cls-147" d="M370.12,234.47,361,240l7.34,1.63Z"/><path class="cls-148" d="M370.12,234.47l7.54,7-1.59-2.33Z"/><path class="cls-149" d="M377.75,244.38h.86l1.2,1.82L375,247.42l2.85-1Z"/></g><path class="cls-150" d="M301,238.1v-7.33h6.21v4.16Z"/><path class="cls-151" d="M301,230.77l2.69-22.5,5.22.95-1.7,21.55Z"/><path class="cls-152" d="M303.34,191.72s-4.19-14.61-4.32-14.46a13.2,13.2,0,0,0,2.15-.35l4.51,14.22Z"/><path class="cls-153" d="M300.34,181.46l2.55.87L301.21,177l-2.19.25Z"/><path class="cls-154" d="M306.05,143.73l-14.48,8.89,8.16-21Z"/><path class="cls-155" d="M306.05,143.73l.62,16.34-13.77-5.64-1.33-1.81Z"/><path class="cls-156" d="M295.76,149.21l-7.09,13.22,15.23-5.28Z"/><path class="cls-157" d="M288.67,162.43l-1.4-1.38,8.49-11.84Z"/><path class="cls-158" d="M288.67,162.43l11.49,11.92,3.74-17.2Z"/><path class="cls-159" d="M288.67,162.43,290,176.69l10.18-2.34Z"/><path class="cls-160" d="M287.27,161.05l1.4,1.38L290,176.69Z"/><path class="cls-161" d="M290,176.69l15.19,3.15-5-5.49Z"/><path class="cls-162" d="M307.51,203.66,305,204l-1.65-12.3,2.34-.51Z"/></g><g id="TreeWithStone_1"><path class="cls-163" d="M81.78,247,77,244.54l.6,13.77"/><path class="cls-164" d="M77,244.54l4.77,2.5,6.57-10.3Z"/><path class="cls-165" d="M90,259.53l10.81-2-4.39-11.15"/><path class="cls-166" d="M81.78,247l6.57-10.3,8.09,9.59"/><path class="cls-167" d="M88.35,236.74l8.09,9.59,3.61-2.83Z"/><path class="cls-168" d="M100.05,243.5l.78,14-4.39-11.15Z"/><path class="cls-169" d="M102.7,257.52l-2.15-4.82L100.4,250l6.46.61Z"/><path class="cls-170" d="M102.7,257.52l-1.92-1.1-.23-3.72Z"/><path class="cls-171" d="M102.7,257.52c.15,0,8.2-.61,8.2-.61l-4-6.34Z"/><path class="cls-172" d="M110.9,256.91l1.89-7.76-5.93,1.42Z"/><path class="cls-173" d="M112.79,249.15l-.28,6.36-1.61,1.4Z"/><path class="cls-174" d="M105.85,244.5l1,6.07,5.93-1.42Z"/><path class="cls-175" d="M105.85,244.5l-5.47,4.93,0,.53,6.46.61Z"/><path class="cls-176" d="M90,259.53l12.68-2-1.92-1.1,0,1.06Z"/><path class="cls-177" d="M102.7,257.52l.62-1.06.58-2.42-1.83-3.92L100.4,250l.15,2.74Z"/><path class="cls-178" d="M102.07,250.12l-.3-2-1.39,1.26,0,.53Z"/><path class="cls-179" d="M126.8,236v1.32l-11.09,3.21-12.45.18-6.53,2,2.59,2.17h6.56l2.55-1h.93L107.14,246l1.06.51,13.1-3.41,3.31.79,8.52-.65,6.45-9.36V233Zm-14.69,8.39,1.2-1.43,1.41-.26,1.1-.49,3,.69Z"/></g><g id="TreeWithStone_3"><path class="cls-180" d="M139.83,236.23l-1-12.53,4.29-1.16,1.21,9Z"/><path class="cls-181" d="M143.14,222.54,139.58,202l-3.85,2,3.12,19.72Z"/><path class="cls-182" d="M144.35,231.58l1.07-.28-1.29-8.57-1-.19Z"/><path class="cls-183" d="M143.14,222.54l1,.19-3.95-20.47-.6-.27Z"/><path class="cls-184" d="M143,217l3.85-12.08-1.46-3.46-3.65,9.08Z"/><path class="cls-185" d="M125.89,167.51l1.29,11.78,4.45-11.07Z"/><path class="cls-186" d="M125.89,167.51l5.74.71,4.36-7.6Z"/><path class="cls-187" d="M131.63,168.22l12.31-.2-7.95-7.4Z"/><path class="cls-188" d="M143.94,168l1.14-1.2-9.09-6.2Z"/><path class="cls-189" d="M131.63,168.22l-4.45,11.07,11.34.44Z"/><path class="cls-190" d="M138.52,179.73,143.94,168l-12.31.2Z"/><path class="cls-191" d="M138.52,179.73l8-1-2.6-10.7Z"/><path class="cls-192" d="M138.52,179.73l-.73,2.79,1.57,1.28,7.18-5.08Z"/><path class="cls-193" d="M137.79,182.52l-7.34-1-3.27-2.23,11.34.44Z"/><path class="cls-194" d="M143.94,168l2.6,10.7-1.46-11.9Z"/><path class="cls-195" d="M122.89,172.77l-.2,7.51,5,1.4Z"/><path class="cls-196" d="M122.69,180.28l-8.61-5.66,8.81-1.85Z"/><path class="cls-197" d="M114.08,174.62l-.24-1.65,9-.2Z"/><path class="cls-198" d="M113.84,173l-4.91,7.94,4.91,4.57.24-10.86Z"/><path class="cls-199" d="M114.08,174.62l-.24,10.86,8.85-5.2Z"/><path class="cls-200" d="M108.93,180.91l4.91,9.08v-4.51Z"/><path class="cls-201" d="M113.84,190l8.85-.24-8.85-4.27Z"/><path class="cls-202" d="M113.84,185.48l8.85,4.27v-9.47Z"/><path class="cls-203" d="M122.69,180.28v9.47l5-8.07Z"/><path class="cls-204" d="M145.7,180.51l8.72,4.5,6.44-5.44Z"/><path class="cls-205" d="M154.42,185l12.76,7.72-6.32-13.16Z"/><path class="cls-205" d="M154.42,185l-13.15,9.49,4.43-14Z"/><path class="cls-206" d="M141.27,194.5l14.35,7.76L154.42,185Z"/><path class="cls-207" d="M155.62,202.26l11.56-9.53L154.42,185Z"/><path class="cls-208" d="M167.18,192.73l-4.36,13.75-7.2-4.22Z"/><path class="cls-209" d="M162.82,206.48l-15.6,1.08,8.4-5.3Z"/><path class="cls-210" d="M147.22,207.56l-5.95-13.06,14.35,7.76Z"/><path class="cls-211" d="M147.4,181.4l3.24-1.2-4.94.31Z"/><path class="cls-212" d="M147.4,181.4l-3.16,5.38,1.72,4.33-4.69,3.39,4.43-14Z"/><path class="cls-213" d="M146,191.11l2.21,3.19-.56,3.63-6.34-3.43Z"/><path class="cls-214" d="M147.61,197.93l3.44,7.21-3.83,2.42-5.95-13.06Z"/><path class="cls-215" d="M153.41,203.66l-.54-2.89,2.75,1.49Z"/><path class="cls-216" d="M152.87,200.77l1.16-.89,1.49,1.14.1,1.24Z"/><path class="cls-217" d="M155.52,201l.94.55-.84.69Z"/><path class="cls-218" d="M123.92,199.6l4.7-12-6.59-1.3Z"/><path class="cls-219" d="M128.62,187.61l4.79-8.89L122,186.31Z"/><path class="cls-220" d="M128.62,187.61l13.62-.3-8.83-8.59Z"/><path class="cls-221" d="M142.24,187.31l1.33-1.46-10.16-7.13Z"/><path class="cls-222" d="M123.92,199.6,136,200.65l-7.37-13Z"/><path class="cls-223" d="M136,200.65l6.25-13.34-13.62.3Z"/><path class="cls-224" d="M136,200.65l9.86-1.56-3.61-11.78Z"/><path class="cls-225" d="M142.24,187.31l3.61,11.78-2.28-13.24Z"/><path class="cls-226" d="M123.92,199.6l10,7,2.06-6Z"/><path class="cls-227" d="M133.93,206.64l11.92-7.55L136,200.65Z"/><path class="cls-228" d="M165.14,236.52l4.25.63,12.72-.92,3.18-2-3.14-.85,15-2.5,1.63-2.64s-7.15-.41-7.11-.51,0-1.56,0-1.56l-10.15-.51-11.67,1.91-.39,1.79-5.09.2,3.93-1.83-3.93-.77-6.35.35,5.73,7.43,5.18-1.22,4.89-.65,3.74.55-8.59.75Z"/><path class="cls-229" d="M132.38,238.51l.45,6.35,1.25.53,2.34-5.38Z"/><path class="cls-230" d="M134.08,245.39l9.54.41-7.2-5.79Z"/><path class="cls-231" d="M136.42,240l7.2,5.79,3-6.24Z"/><path class="cls-232" d="M146.62,239.56l-3,6.24,4.92-1.24Z"/><path class="cls-233" d="M146.62,239.56l1.87,5s-.11-6.76-.11-6.8S146.62,239.56,146.62,239.56Z"/><path class="cls-234" d="M132.38,238.51l4,1.5,4.19-7.13Z"/><path class="cls-235" d="M136.42,240l10.2-.45-6-6.68Z"/><path class="cls-236" d="M140.61,232.88l6,6.68,1.81-1.8-7.89-4.88Z"/><path class="cls-237" d="M141.29,232.07v1.28l5.35,3.31.78-2.26Z"/><path class="cls-238" d="M147.42,234.4l4.38,7.8-3.29-.22-.08-4.22-1.79-1.1Z"/><path class="cls-239" d="M151.8,242.2l6.29-.06,4.13-8.41-14.8.68Z"/><path class="cls-240" d="M162.22,233.73l-4.13,8.41,6.84-1.56Z"/><path class="cls-241" d="M162.22,233.73l2.71,6.85-.5-9.24Z"/><path class="cls-167" d="M164.43,231.34l-11.1-7.15,8.89,9.54Z"/><path class="cls-218" d="M153.33,224.19l-5.91,10.21,14.8-.67Z"/><path class="cls-242" d="M153.33,224.19l-5.91,10.21-6.13-2.33Z"/><path class="cls-243" d="M143.62,245.8l7.26-1.22,1.48-1.91-.56-.47-3.29-.22,0,2.58Z"/><path class="cls-244" d="M164.77,237.41l5.14.47-2.17,2.74-9.65,1.52,6.84-1.56Z"/></g><g id="Stones"><g id="Stone_3"><path class="cls-245" d="M99.26,231l8.87.12-5-6Z"/><path class="cls-246" d="M96.24,229.86l.49,5.89.69.29L99.26,231Z"/><path class="cls-247" d="M99.26,231l8.87.12-2.74,5.2-8-.26Z"/><path class="cls-244" d="M108.13,231.1l-2.74,5.2,4.85-1.93Z"/><path class="cls-248" d="M108.13,231.1l2.11,3.27.06-5Z"/><path class="cls-249" d="M96.24,229.86l3,1.12,3.89-5.87Z"/><path class="cls-250" d="M103.15,225.11l5,6,2.17-1.68Z"/><path class="cls-251" d="M110.26,233.56l3.89.14-2,1.57-6.8,1,4.85-1.93Z"/></g><g id="Stone_5"><path class="cls-252" d="M212.52,215.46l2.19,11.78L220.08,217Z"/><path class="cls-253" d="M220.08,217l6.84,10.91-12.21-.65Z"/><path class="cls-254" d="M220.08,217l6.84,10.91,5.37-11.42Z"/><path class="cls-255" d="M232.29,216.47l1.63,9.95-7,1.47Z"/><path class="cls-256" d="M232.29,216.47l-8.81-8.34-3.4,8.85Z"/><path class="cls-257" d="M223.48,208.13l-3.4,8.85-7.56-1.52Z"/><path class="cls-258" d="M232.29,216.47l-.46-2.33-8.35-6Z"/><path class="cls-259" d="M233.44,223.4l4.9.24.54,1.83-5,.95Z"/></g><g id="Stone_2"><path class="cls-260" d="M257.44,233.29l-.41,9.79,4.25,2.58Z"/><path class="cls-261" d="M257.44,233.29l3.84,12.37,6.69-11Z"/><path class="cls-262" d="M268,234.61l-6.69,11,13-.07Z"/><path class="cls-263" d="M268,234.61l6.31,11,4-12.28Z"/><path class="cls-264" d="M257.44,233.29,268,234.61l-.26-9.16Z"/><path class="cls-265" d="M267.71,225.45l.26,9.16,10.31-1.3Z"/><path class="cls-266" d="M278.28,233.31l-.48,9.87-3.52,2.41Z"/><path class="cls-267" d="M277.93,240.58l2.13,0,3.91,2.29-9.69,2.7,3.52-2.41Z"/></g><g id="Stone_1"><path class="cls-268" d="M292.21,241.8l.71,17.36,6.62-13.57Z"/><path class="cls-269" d="M292.92,259.16l14.8,2.5-8.18-16.07Z"/><path class="cls-146" d="M307.72,261.66l3.68.06,8.8-15.84-20.66-.29Z"/><path class="cls-270" d="M320.2,245.88l-8.8,15.84,13-2.13Z"/><path class="cls-271" d="M324.39,259.59l.2-17.35-4.39,3.64Z"/><path class="cls-272" d="M309.19,231.91l-17,9.89,7.33,3.79Z"/><path class="cls-273" d="M309.19,231.91l-9.65,13.68,20.66.29Z"/><path class="cls-274" d="M309.19,231.91l11,14,4.39-3.64Z"/><path class="cls-275" d="M324.46,253.58l7,1.28-3.72,3.71-3.35,1Z"/></g></g><g id="PowerWind_2"><path class="cls-276" d="M196.72,210.56v11l4-1V209.38Z"/><path class="cls-277" d="M196.74,210.56h-8v11h8Z"/><path class="cls-278" d="M188.75,210.56l-3.21-1.18v11.13l3.21,1Z"/><path class="cls-279" d="M185.54,209.38l3.21,1.18h8l4-1.18-4-1.21H189.5Z"/><path class="cls-280" d="M195,209.87l-1.16-120.1h1.84l1.4,119.53Z"/><path class="cls-281" d="M195,209.87h-4L190.7,90l3.14-.22Z"/><path class="cls-278" d="M191,209.87l-1.83-.51,0-119.39,1.53,0Z"/><path class="cls-282" d="M190.7,101.85l2.49-3,.75.82-.1-9.85L190.7,90Z"/><path class="cls-283" d="M190.7,101.85l-1.53,8.63,0-8.06,1.55-8.19Z"/><path class="cls-284" d="M190.7,93.52l-1.55-1.72,0-1.83,1.53,0Z"/><path class="cls-285" d="M196.89,82.39l-.95,5.53-4.88,1.87-3.93-3.66,1-5.52L193,78.74Z"/><path class="cls-286" d="M193.32,76.63,193,78.74l3.93,3.65,1.87-.73Z"/><path class="cls-287" d="M188.08,80.61l-1.52-1.41,6.76-2.57L193,78.74Z"/><path class="cls-288" d="M185.26,86.84l1.87-.71,1-5.52-1.52-1.41Z"/><path class="cls-289" d="M185.26,86.84l5.44,5.06.36-2.11-3.93-3.66Z"/><path class="cls-290" d="M190.7,91.9l6.75-2.58-1.51-1.4-4.88,1.87Z"/><path class="cls-291" d="M197.45,89.32l-1.51-1.4.95-5.53,1.87-.73Z"/><path class="cls-285" d="M198.63,82.39l67.7,16,2.51,4.46-71.31-14Z"/><path class="cls-292" d="M198.41,83.73l3.1,2.73,1.28,3.41-5.26-1Z"/><path class="cls-293" d="M187.05,79,164.9,5l2.24-5,25.6,76.85Z"/><path class="cls-293" d="M190.25,91.49l-44.46,56.32H141l44.84-60.42Z"/><path class="cls-294" d="M188.57,89.93v2.15l.67.69,1-1.28Z"/></g></g></g></g></svg>