<svg width="374" height="510" viewBox="0 0 374 510" fill="none" xmlns="http://www.w3.org/2000/svg">
<path d="M319.15 319.3C355.583 282.867 373.8 238.9 373.8 187.4C373.8 135.9 355.583 91.9334 319.15 55.5001C282.717 19.0668 238.75 0.850098 187.25 0.850098C135.75 0.850098 91.7833 19.0668 55.35 55.5001C18.9167 91.9334 0.700012 135.9 0.700012 187.4C0.700012 238.9 18.9167 282.867 55.35 319.3C59.15 323.1 63.0333 326.7 67 330.1C75.8333 337.7 85.0667 344.3 94.7 349.9H279.8C289.433 344.3 298.667 337.7 307.5 330.1C311.467 326.7 315.35 323.1 319.15 319.3Z" fill="#FFF04C"/>
<path d="M222.65 496H151.85M246.7 449.45H127.75H246.7ZM265.75 401.1H108.6H265.75Z" stroke="#666666" stroke-width="27" stroke-miterlimit="3" stroke-linecap="square"/>
</svg>
