<svg width="374" height="509" viewBox="0 0 374 509" fill="none" xmlns="http://www.w3.org/2000/svg">
<path fill-rule="evenodd" clip-rule="evenodd" d="M373.1 186.55C373.1 238.05 354.883 282.017 318.45 318.45C314.65 322.25 310.767 325.85 306.8 329.25C297.967 336.85 288.733 343.45 279.1 349.05H94C84.3667 343.45 75.1333 336.85 66.3 329.25C62.3333 325.85 58.45 322.25 54.65 318.45C18.2167 282.017 0 238.05 0 186.55C0 135.05 18.2167 91.0833 54.65 54.65C91.0833 18.2167 135.05 0 186.55 0C238.05 0 282.017 18.2167 318.45 54.65C354.883 91.0833 373.1 135.05 373.1 186.55ZM107.9 413.75H265.05V386.75H107.9V413.75ZM127.05 462.1H246V435.1H127.05V462.1ZM151.15 481.65H137.65V508.65H151.15H221.95H235.45V481.65H221.95H151.15Z" fill="white"/>
</svg>
